G04 (created by PCBNEW (2011-05-25)-stable) date Sun 14 Jun 2015 13:18:06 MST*
G01*
G70*
G90*
%MOIN*%
G04 Gerber Fmt 3.4, Leading zero omitted, Abs format*
%FSLAX34Y34*%
G04 APERTURE LIST*
%ADD10C,0.001000*%
%ADD11C,0.015000*%
%ADD12C,0.008000*%
G04 APERTURE END LIST*
G54D10*
G54D11*
X65000Y-07000D02*
X65000Y-33000D01*
X08000Y-33000D02*
X08000Y-07000D01*
X08000Y-07000D02*
X13000Y-07000D01*
X65000Y-33000D02*
X08000Y-33000D01*
X08000Y-07000D02*
X65000Y-07000D01*
G54D10*
X10675Y-17175D02*
X10925Y-17425D01*
X10925Y-17175D02*
X10675Y-17425D01*
X14475Y-13975D02*
X14725Y-14225D01*
X14725Y-13975D02*
X14475Y-14225D01*
X15675Y-14775D02*
X15925Y-15025D01*
X15925Y-14775D02*
X15675Y-15025D01*
X16075Y-19975D02*
X16325Y-20225D01*
X16325Y-19975D02*
X16075Y-20225D01*
X16675Y-20575D02*
X16925Y-20825D01*
X16925Y-20575D02*
X16675Y-20825D01*
X16675Y-23575D02*
X16925Y-23825D01*
X16925Y-23575D02*
X16675Y-23825D01*
X18875Y-22775D02*
X19125Y-23025D01*
X19125Y-22775D02*
X18875Y-23025D01*
X19075Y-17375D02*
X19325Y-17625D01*
X19325Y-17375D02*
X19075Y-17625D01*
X19675Y-22575D02*
X19925Y-22825D01*
X19925Y-22575D02*
X19675Y-22825D01*
X20075Y-24975D02*
X20325Y-25225D01*
X20325Y-24975D02*
X20075Y-25225D01*
X20675Y-16575D02*
X20925Y-16825D01*
X20925Y-16575D02*
X20675Y-16825D01*
X22075Y-25175D02*
X22325Y-25425D01*
X22325Y-25175D02*
X22075Y-25425D01*
X22275Y-23775D02*
X22525Y-24025D01*
X22525Y-23775D02*
X22275Y-24025D01*
X22675Y-26775D02*
X22925Y-27025D01*
X22925Y-26775D02*
X22675Y-27025D01*
X22675Y-27775D02*
X22925Y-28025D01*
X22925Y-27775D02*
X22675Y-28025D01*
X24675Y-20575D02*
X24925Y-20825D01*
X24925Y-20575D02*
X24675Y-20825D01*
X25075Y-17575D02*
X25325Y-17825D01*
X25325Y-17575D02*
X25075Y-17825D01*
X26875Y-27375D02*
X27125Y-27625D01*
X27125Y-27375D02*
X26875Y-27625D01*
X27075Y-14775D02*
X27325Y-15025D01*
X27325Y-14775D02*
X27075Y-15025D01*
X27275Y-20575D02*
X27525Y-20825D01*
X27525Y-20575D02*
X27275Y-20825D01*
X28875Y-26375D02*
X29125Y-26625D01*
X29125Y-26375D02*
X28875Y-26625D01*
X31475Y-17175D02*
X31725Y-17425D01*
X31725Y-17175D02*
X31475Y-17425D01*
X32475Y-20775D02*
X32725Y-21025D01*
X32725Y-20775D02*
X32475Y-21025D01*
X32675Y-08575D02*
X32925Y-08825D01*
X32925Y-08575D02*
X32675Y-08825D01*
X32675Y-08975D02*
X32925Y-09225D01*
X32925Y-08975D02*
X32675Y-09225D01*
X32675Y-09375D02*
X32925Y-09625D01*
X32925Y-09375D02*
X32675Y-09625D01*
X32675Y-09775D02*
X32925Y-10025D01*
X32925Y-09775D02*
X32675Y-10025D01*
X32675Y-10175D02*
X32925Y-10425D01*
X32925Y-10175D02*
X32675Y-10425D01*
X32675Y-10575D02*
X32925Y-10825D01*
X32925Y-10575D02*
X32675Y-10825D01*
X32675Y-10975D02*
X32925Y-11225D01*
X32925Y-10975D02*
X32675Y-11225D01*
X32675Y-11375D02*
X32925Y-11625D01*
X32925Y-11375D02*
X32675Y-11625D01*
X32675Y-11775D02*
X32925Y-12025D01*
X32925Y-11775D02*
X32675Y-12025D01*
X32675Y-12175D02*
X32925Y-12425D01*
X32925Y-12175D02*
X32675Y-12425D01*
X33075Y-29575D02*
X33325Y-29825D01*
X33325Y-29575D02*
X33075Y-29825D01*
X34875Y-20775D02*
X35125Y-21025D01*
X35125Y-20775D02*
X34875Y-21025D01*
X35275Y-23575D02*
X35525Y-23825D01*
X35525Y-23575D02*
X35275Y-23825D01*
X35675Y-29175D02*
X35925Y-29425D01*
X35925Y-29175D02*
X35675Y-29425D01*
X35875Y-19775D02*
X36125Y-20025D01*
X36125Y-19775D02*
X35875Y-20025D01*
X37075Y-08575D02*
X37325Y-08825D01*
X37325Y-08575D02*
X37075Y-08825D01*
X37075Y-08975D02*
X37325Y-09225D01*
X37325Y-08975D02*
X37075Y-09225D01*
X37075Y-09375D02*
X37325Y-09625D01*
X37325Y-09375D02*
X37075Y-09625D01*
X37075Y-09775D02*
X37325Y-10025D01*
X37325Y-09775D02*
X37075Y-10025D01*
X37075Y-10175D02*
X37325Y-10425D01*
X37325Y-10175D02*
X37075Y-10425D01*
X37075Y-10575D02*
X37325Y-10825D01*
X37325Y-10575D02*
X37075Y-10825D01*
X37075Y-10975D02*
X37325Y-11225D01*
X37325Y-10975D02*
X37075Y-11225D01*
X37075Y-11375D02*
X37325Y-11625D01*
X37325Y-11375D02*
X37075Y-11625D01*
X37075Y-11775D02*
X37325Y-12025D01*
X37325Y-11775D02*
X37075Y-12025D01*
X37075Y-12175D02*
X37325Y-12425D01*
X37325Y-12175D02*
X37075Y-12425D01*
X37075Y-22575D02*
X37325Y-22825D01*
X37325Y-22575D02*
X37075Y-22825D01*
X37675Y-21975D02*
X37925Y-22225D01*
X37925Y-21975D02*
X37675Y-22225D01*
X38075Y-28375D02*
X38325Y-28625D01*
X38325Y-28375D02*
X38075Y-28625D01*
X38275Y-27575D02*
X38525Y-27825D01*
X38525Y-27575D02*
X38275Y-27825D01*
X38875Y-19175D02*
X39125Y-19425D01*
X39125Y-19175D02*
X38875Y-19425D01*
X41675Y-19775D02*
X41925Y-20025D01*
X41925Y-19775D02*
X41675Y-20025D01*
X43475Y-27575D02*
X43725Y-27825D01*
X43725Y-27575D02*
X43475Y-27825D01*
X44475Y-27575D02*
X44725Y-27825D01*
X44725Y-27575D02*
X44475Y-27825D01*
X45425Y-12925D02*
X45675Y-13175D01*
X45675Y-12925D02*
X45425Y-13175D01*
X45475Y-26575D02*
X45725Y-26825D01*
X45725Y-26575D02*
X45475Y-26825D01*
X46275Y-25575D02*
X46525Y-25825D01*
X46525Y-25575D02*
X46275Y-25825D01*
X46275Y-30375D02*
X46525Y-30625D01*
X46525Y-30375D02*
X46275Y-30625D01*
X46325Y-15325D02*
X46575Y-15575D01*
X46575Y-15325D02*
X46325Y-15575D01*
X46325Y-22325D02*
X46575Y-22575D01*
X46575Y-22325D02*
X46325Y-22575D01*
X46325Y-28775D02*
X46575Y-29025D01*
X46575Y-28775D02*
X46325Y-29025D01*
X49075Y-12375D02*
X49325Y-12625D01*
X49325Y-12375D02*
X49075Y-12625D01*
X49075Y-25975D02*
X49325Y-26225D01*
X49325Y-25975D02*
X49075Y-26225D01*
X49275Y-19375D02*
X49525Y-19625D01*
X49525Y-19375D02*
X49275Y-19625D01*
X49875Y-13975D02*
X50125Y-14225D01*
X50125Y-13975D02*
X49875Y-14225D01*
X49875Y-20975D02*
X50125Y-21225D01*
X50125Y-20975D02*
X49875Y-21225D01*
X49875Y-27375D02*
X50125Y-27625D01*
X50125Y-27375D02*
X49875Y-27625D01*
X51875Y-15975D02*
X52125Y-16225D01*
X52125Y-15975D02*
X51875Y-16225D01*
X51875Y-21975D02*
X52125Y-22225D01*
X52125Y-21975D02*
X51875Y-22225D01*
X53275Y-29775D02*
X53525Y-30025D01*
X53525Y-29775D02*
X53275Y-30025D01*
X55275Y-14975D02*
X55525Y-15225D01*
X55525Y-14975D02*
X55275Y-15225D01*
X55875Y-22575D02*
X56125Y-22825D01*
X56125Y-22575D02*
X55875Y-22825D01*
X58275Y-16775D02*
X58525Y-17025D01*
X58525Y-16775D02*
X58275Y-17025D01*
X58275Y-22875D02*
X58525Y-23125D01*
X58525Y-22875D02*
X58275Y-23125D01*
X58275Y-28775D02*
X58525Y-29025D01*
X58525Y-28775D02*
X58275Y-29025D01*
X17650Y-25500D02*
X17647Y-25529D01*
X17638Y-25557D01*
X17624Y-25583D01*
X17606Y-25605D01*
X17583Y-25624D01*
X17558Y-25638D01*
X17530Y-25646D01*
X17501Y-25649D01*
X17472Y-25647D01*
X17444Y-25639D01*
X17418Y-25625D01*
X17396Y-25607D01*
X17377Y-25584D01*
X17363Y-25559D01*
X17354Y-25531D01*
X17351Y-25502D01*
X17353Y-25473D01*
X17361Y-25445D01*
X17374Y-25419D01*
X17393Y-25396D01*
X17415Y-25377D01*
X17440Y-25363D01*
X17468Y-25354D01*
X17497Y-25351D01*
X17526Y-25353D01*
X17554Y-25361D01*
X17580Y-25374D01*
X17603Y-25392D01*
X17622Y-25414D01*
X17637Y-25439D01*
X17646Y-25467D01*
X17649Y-25496D01*
X17650Y-25500D01*
X17650Y-27500D02*
X17647Y-27529D01*
X17638Y-27557D01*
X17624Y-27583D01*
X17606Y-27605D01*
X17583Y-27624D01*
X17558Y-27638D01*
X17530Y-27646D01*
X17501Y-27649D01*
X17472Y-27647D01*
X17444Y-27639D01*
X17418Y-27625D01*
X17396Y-27607D01*
X17377Y-27584D01*
X17363Y-27559D01*
X17354Y-27531D01*
X17351Y-27502D01*
X17353Y-27473D01*
X17361Y-27445D01*
X17374Y-27419D01*
X17393Y-27396D01*
X17415Y-27377D01*
X17440Y-27363D01*
X17468Y-27354D01*
X17497Y-27351D01*
X17526Y-27353D01*
X17554Y-27361D01*
X17580Y-27374D01*
X17603Y-27392D01*
X17622Y-27414D01*
X17637Y-27439D01*
X17646Y-27467D01*
X17649Y-27496D01*
X17650Y-27500D01*
X10500Y-22840D02*
X10500Y-23160D01*
X10660Y-23000D02*
X10340Y-23000D01*
X10500Y-25840D02*
X10500Y-26160D01*
X10660Y-26000D02*
X10340Y-26000D01*
X11000Y-27840D02*
X11000Y-28160D01*
X11160Y-28000D02*
X10840Y-28000D01*
X11000Y-30840D02*
X11000Y-31160D01*
X11160Y-31000D02*
X10840Y-31000D01*
X12500Y-22840D02*
X12500Y-23160D01*
X12660Y-23000D02*
X12340Y-23000D01*
X12500Y-25840D02*
X12500Y-26160D01*
X12660Y-26000D02*
X12340Y-26000D01*
X12500Y-27840D02*
X12500Y-28160D01*
X12660Y-28000D02*
X12340Y-28000D01*
X12500Y-29840D02*
X12500Y-30160D01*
X12660Y-30000D02*
X12340Y-30000D01*
X13500Y-31840D02*
X13500Y-32160D01*
X13660Y-32000D02*
X13340Y-32000D01*
X14500Y-10840D02*
X14500Y-11160D01*
X14660Y-11000D02*
X14340Y-11000D01*
X14500Y-12840D02*
X14500Y-13160D01*
X14660Y-13000D02*
X14340Y-13000D01*
X14500Y-15840D02*
X14500Y-16160D01*
X14660Y-16000D02*
X14340Y-16000D01*
X14500Y-17340D02*
X14500Y-17660D01*
X14660Y-17500D02*
X14340Y-17500D01*
X14500Y-18840D02*
X14500Y-19160D01*
X14660Y-19000D02*
X14340Y-19000D01*
X14500Y-31840D02*
X14500Y-32160D01*
X14660Y-32000D02*
X14340Y-32000D01*
X15500Y-22840D02*
X15500Y-23160D01*
X15660Y-23000D02*
X15340Y-23000D01*
X15500Y-24840D02*
X15500Y-25160D01*
X15660Y-25000D02*
X15340Y-25000D01*
X15500Y-27840D02*
X15500Y-28160D01*
X15660Y-28000D02*
X15340Y-28000D01*
X15500Y-29840D02*
X15500Y-30160D01*
X15660Y-30000D02*
X15340Y-30000D01*
X16000Y-31840D02*
X16000Y-32160D01*
X16160Y-32000D02*
X15840Y-32000D01*
X16500Y-10840D02*
X16500Y-11160D01*
X16660Y-11000D02*
X16340Y-11000D01*
X16500Y-12840D02*
X16500Y-13160D01*
X16660Y-13000D02*
X16340Y-13000D01*
X17500Y-15840D02*
X17500Y-16160D01*
X17660Y-16000D02*
X17340Y-16000D01*
X17500Y-17340D02*
X17500Y-17660D01*
X17660Y-17500D02*
X17340Y-17500D01*
X17500Y-18840D02*
X17500Y-19160D01*
X17660Y-19000D02*
X17340Y-19000D01*
X18000Y-20840D02*
X18000Y-21160D01*
X18160Y-21000D02*
X17840Y-21000D01*
X18000Y-22840D02*
X18000Y-23160D01*
X18160Y-23000D02*
X17840Y-23000D01*
X18600Y-12040D02*
X18600Y-12360D01*
X18760Y-12200D02*
X18440Y-12200D01*
X18600Y-13040D02*
X18600Y-13360D01*
X18760Y-13200D02*
X18440Y-13200D01*
X19000Y-31840D02*
X19000Y-32160D01*
X19160Y-32000D02*
X18840Y-32000D01*
X19600Y-12040D02*
X19600Y-12360D01*
X19760Y-12200D02*
X19440Y-12200D01*
X21000Y-15340D02*
X21000Y-15660D01*
X21160Y-15500D02*
X20840Y-15500D01*
X21000Y-17840D02*
X21000Y-18160D01*
X21160Y-18000D02*
X20840Y-18000D01*
X21000Y-18840D02*
X21000Y-19160D01*
X21160Y-19000D02*
X20840Y-19000D01*
X21000Y-19840D02*
X21000Y-20160D01*
X21160Y-20000D02*
X20840Y-20000D01*
X21000Y-20840D02*
X21000Y-21160D01*
X21160Y-21000D02*
X20840Y-21000D01*
X21000Y-21840D02*
X21000Y-22160D01*
X21160Y-22000D02*
X20840Y-22000D01*
X21000Y-22840D02*
X21000Y-23160D01*
X21160Y-23000D02*
X20840Y-23000D01*
X21000Y-23840D02*
X21000Y-24160D01*
X21160Y-24000D02*
X20840Y-24000D01*
X21000Y-24840D02*
X21000Y-25160D01*
X21160Y-25000D02*
X20840Y-25000D01*
X21000Y-25840D02*
X21000Y-26160D01*
X21160Y-26000D02*
X20840Y-26000D01*
X21000Y-26840D02*
X21000Y-27160D01*
X21160Y-27000D02*
X20840Y-27000D01*
X21000Y-27840D02*
X21000Y-28160D01*
X21160Y-28000D02*
X20840Y-28000D01*
X21000Y-28840D02*
X21000Y-29160D01*
X21160Y-29000D02*
X20840Y-29000D01*
X21000Y-29840D02*
X21000Y-30160D01*
X21160Y-30000D02*
X20840Y-30000D01*
X21000Y-30840D02*
X21000Y-31160D01*
X21160Y-31000D02*
X20840Y-31000D01*
X21500Y-08840D02*
X21500Y-09160D01*
X21660Y-09000D02*
X21340Y-09000D01*
X21500Y-09840D02*
X21500Y-10160D01*
X21660Y-10000D02*
X21340Y-10000D01*
X21500Y-11340D02*
X21500Y-11660D01*
X21660Y-11500D02*
X21340Y-11500D01*
X21500Y-14340D02*
X21500Y-14660D01*
X21660Y-14500D02*
X21340Y-14500D01*
X22500Y-08840D02*
X22500Y-09160D01*
X22660Y-09000D02*
X22340Y-09000D01*
X23000Y-11840D02*
X23000Y-12160D01*
X23160Y-12000D02*
X22840Y-12000D01*
X23000Y-13840D02*
X23000Y-14160D01*
X23160Y-14000D02*
X22840Y-14000D01*
X24000Y-15340D02*
X24000Y-15660D01*
X24160Y-15500D02*
X23840Y-15500D01*
X24000Y-17840D02*
X24000Y-18160D01*
X24160Y-18000D02*
X23840Y-18000D01*
X24000Y-18840D02*
X24000Y-19160D01*
X24160Y-19000D02*
X23840Y-19000D01*
X24000Y-19840D02*
X24000Y-20160D01*
X24160Y-20000D02*
X23840Y-20000D01*
X24000Y-20840D02*
X24000Y-21160D01*
X24160Y-21000D02*
X23840Y-21000D01*
X24000Y-21840D02*
X24000Y-22160D01*
X24160Y-22000D02*
X23840Y-22000D01*
X24000Y-22840D02*
X24000Y-23160D01*
X24160Y-23000D02*
X23840Y-23000D01*
X24000Y-23840D02*
X24000Y-24160D01*
X24160Y-24000D02*
X23840Y-24000D01*
X24000Y-24840D02*
X24000Y-25160D01*
X24160Y-25000D02*
X23840Y-25000D01*
X24000Y-25840D02*
X24000Y-26160D01*
X24160Y-26000D02*
X23840Y-26000D01*
X24000Y-26840D02*
X24000Y-27160D01*
X24160Y-27000D02*
X23840Y-27000D01*
X24000Y-27840D02*
X24000Y-28160D01*
X24160Y-28000D02*
X23840Y-28000D01*
X24000Y-28840D02*
X24000Y-29160D01*
X24160Y-29000D02*
X23840Y-29000D01*
X24000Y-29840D02*
X24000Y-30160D01*
X24160Y-30000D02*
X23840Y-30000D01*
X24000Y-30840D02*
X24000Y-31160D01*
X24160Y-31000D02*
X23840Y-31000D01*
X24500Y-11340D02*
X24500Y-11660D01*
X24660Y-11500D02*
X24340Y-11500D01*
X24500Y-14340D02*
X24500Y-14660D01*
X24660Y-14500D02*
X24340Y-14500D01*
X26000Y-11340D02*
X26000Y-11660D01*
X26160Y-11500D02*
X25840Y-11500D01*
X26000Y-14340D02*
X26000Y-14660D01*
X26160Y-14500D02*
X25840Y-14500D01*
X26000Y-23840D02*
X26000Y-24160D01*
X26160Y-24000D02*
X25840Y-24000D01*
X26000Y-25840D02*
X26000Y-26160D01*
X26160Y-26000D02*
X25840Y-26000D01*
X27000Y-15840D02*
X27000Y-16160D01*
X27160Y-16000D02*
X26840Y-16000D01*
X27000Y-18840D02*
X27000Y-19160D01*
X27160Y-19000D02*
X26840Y-19000D01*
X27500Y-22840D02*
X27500Y-23160D01*
X27660Y-23000D02*
X27340Y-23000D01*
X27500Y-24840D02*
X27500Y-25160D01*
X27660Y-25000D02*
X27340Y-25000D01*
X28000Y-15840D02*
X28000Y-16160D01*
X28160Y-16000D02*
X27840Y-16000D01*
X28000Y-18840D02*
X28000Y-19160D01*
X28160Y-19000D02*
X27840Y-19000D01*
X29000Y-15840D02*
X29000Y-16160D01*
X29160Y-16000D02*
X28840Y-16000D01*
X29000Y-18840D02*
X29000Y-19160D01*
X29160Y-19000D02*
X28840Y-19000D01*
X29000Y-23840D02*
X29000Y-24160D01*
X29160Y-24000D02*
X28840Y-24000D01*
X29000Y-25340D02*
X29000Y-25660D01*
X29160Y-25500D02*
X28840Y-25500D01*
X29000Y-27340D02*
X29000Y-27660D01*
X29160Y-27500D02*
X28840Y-27500D01*
X29000Y-28840D02*
X29000Y-29160D01*
X29160Y-29000D02*
X28840Y-29000D01*
X29500Y-20840D02*
X29500Y-21160D01*
X29660Y-21000D02*
X29340Y-21000D01*
X29500Y-22340D02*
X29500Y-22660D01*
X29660Y-22500D02*
X29340Y-22500D01*
X29500Y-30340D02*
X29500Y-30660D01*
X29660Y-30500D02*
X29340Y-30500D01*
X30000Y-15840D02*
X30000Y-16160D01*
X30160Y-16000D02*
X29840Y-16000D01*
X30000Y-18840D02*
X30000Y-19160D01*
X30160Y-19000D02*
X29840Y-19000D01*
X31000Y-15840D02*
X31000Y-16160D01*
X31160Y-16000D02*
X30840Y-16000D01*
X31000Y-18840D02*
X31000Y-19160D01*
X31160Y-19000D02*
X30840Y-19000D01*
X31500Y-20840D02*
X31500Y-21160D01*
X31660Y-21000D02*
X31340Y-21000D01*
X31500Y-22340D02*
X31500Y-22660D01*
X31660Y-22500D02*
X31340Y-22500D01*
X31500Y-30340D02*
X31500Y-30660D01*
X31660Y-30500D02*
X31340Y-30500D01*
X32000Y-15840D02*
X32000Y-16160D01*
X32160Y-16000D02*
X31840Y-16000D01*
X32000Y-18840D02*
X32000Y-19160D01*
X32160Y-19000D02*
X31840Y-19000D01*
X32000Y-23840D02*
X32000Y-24160D01*
X32160Y-24000D02*
X31840Y-24000D01*
X32000Y-25340D02*
X32000Y-25660D01*
X32160Y-25500D02*
X31840Y-25500D01*
X32000Y-27340D02*
X32000Y-27660D01*
X32160Y-27500D02*
X31840Y-27500D01*
X32000Y-28840D02*
X32000Y-29160D01*
X32160Y-29000D02*
X31840Y-29000D01*
X33000Y-15840D02*
X33000Y-16160D01*
X33160Y-16000D02*
X32840Y-16000D01*
X33000Y-18840D02*
X33000Y-19160D01*
X33160Y-19000D02*
X32840Y-19000D01*
X34000Y-23340D02*
X34000Y-23660D01*
X34160Y-23500D02*
X33840Y-23500D01*
X34000Y-24340D02*
X34000Y-24660D01*
X34160Y-24500D02*
X33840Y-24500D01*
X34000Y-25340D02*
X34000Y-25660D01*
X34160Y-25500D02*
X33840Y-25500D01*
X34000Y-26340D02*
X34000Y-26660D01*
X34160Y-26500D02*
X33840Y-26500D01*
X34000Y-27340D02*
X34000Y-27660D01*
X34160Y-27500D02*
X33840Y-27500D01*
X34000Y-28340D02*
X34000Y-28660D01*
X34160Y-28500D02*
X33840Y-28500D01*
X34000Y-29340D02*
X34000Y-29660D01*
X34160Y-29500D02*
X33840Y-29500D01*
X34500Y-31840D02*
X34500Y-32160D01*
X34660Y-32000D02*
X34340Y-32000D01*
X36500Y-31840D02*
X36500Y-32160D01*
X36660Y-32000D02*
X36340Y-32000D01*
X37000Y-23340D02*
X37000Y-23660D01*
X37160Y-23500D02*
X36840Y-23500D01*
X37000Y-24340D02*
X37000Y-24660D01*
X37160Y-24500D02*
X36840Y-24500D01*
X37000Y-25340D02*
X37000Y-25660D01*
X37160Y-25500D02*
X36840Y-25500D01*
X37000Y-26340D02*
X37000Y-26660D01*
X37160Y-26500D02*
X36840Y-26500D01*
X37000Y-27340D02*
X37000Y-27660D01*
X37160Y-27500D02*
X36840Y-27500D01*
X37000Y-28340D02*
X37000Y-28660D01*
X37160Y-28500D02*
X36840Y-28500D01*
X37000Y-29340D02*
X37000Y-29660D01*
X37160Y-29500D02*
X36840Y-29500D01*
X39000Y-22340D02*
X39000Y-22660D01*
X39160Y-22500D02*
X38840Y-22500D01*
X39000Y-23840D02*
X39000Y-24160D01*
X39160Y-24000D02*
X38840Y-24000D01*
X39000Y-25340D02*
X39000Y-25660D01*
X39160Y-25500D02*
X38840Y-25500D01*
X39000Y-26840D02*
X39000Y-27160D01*
X39160Y-27000D02*
X38840Y-27000D01*
X39000Y-28840D02*
X39000Y-29160D01*
X39160Y-29000D02*
X38840Y-29000D01*
X39000Y-30340D02*
X39000Y-30660D01*
X39160Y-30500D02*
X38840Y-30500D01*
X39500Y-20840D02*
X39500Y-21160D01*
X39660Y-21000D02*
X39340Y-21000D01*
X39500Y-31840D02*
X39500Y-32160D01*
X39660Y-32000D02*
X39340Y-32000D01*
X41500Y-20840D02*
X41500Y-21160D01*
X41660Y-21000D02*
X41340Y-21000D01*
X41500Y-31840D02*
X41500Y-32160D01*
X41660Y-32000D02*
X41340Y-32000D01*
X42000Y-22340D02*
X42000Y-22660D01*
X42160Y-22500D02*
X41840Y-22500D01*
X42000Y-23840D02*
X42000Y-24160D01*
X42160Y-24000D02*
X41840Y-24000D01*
X42000Y-25340D02*
X42000Y-25660D01*
X42160Y-25500D02*
X41840Y-25500D01*
X42000Y-26840D02*
X42000Y-27160D01*
X42160Y-27000D02*
X41840Y-27000D01*
X42000Y-28840D02*
X42000Y-29160D01*
X42160Y-29000D02*
X41840Y-29000D01*
X42000Y-30340D02*
X42000Y-30660D01*
X42160Y-30500D02*
X41840Y-30500D01*
X44500Y-11840D02*
X44500Y-12160D01*
X44660Y-12000D02*
X44340Y-12000D01*
X44500Y-13840D02*
X44500Y-14160D01*
X44660Y-14000D02*
X44340Y-14000D01*
X44500Y-18840D02*
X44500Y-19160D01*
X44660Y-19000D02*
X44340Y-19000D01*
X44500Y-20840D02*
X44500Y-21160D01*
X44660Y-21000D02*
X44340Y-21000D01*
X44500Y-24340D02*
X44500Y-24660D01*
X44660Y-24500D02*
X44340Y-24500D01*
X44500Y-26340D02*
X44500Y-26660D01*
X44660Y-26500D02*
X44340Y-26500D01*
X49500Y-30840D02*
X49500Y-31160D01*
X49660Y-31000D02*
X49340Y-31000D01*
X51000Y-10840D02*
X51000Y-11160D01*
X51160Y-11000D02*
X50840Y-11000D01*
X51000Y-12840D02*
X51000Y-13160D01*
X51160Y-13000D02*
X50840Y-13000D01*
X51000Y-17840D02*
X51000Y-18160D01*
X51160Y-18000D02*
X50840Y-18000D01*
X51000Y-19840D02*
X51000Y-20160D01*
X51160Y-20000D02*
X50840Y-20000D01*
X51000Y-24340D02*
X51000Y-24660D01*
X51160Y-24500D02*
X50840Y-24500D01*
X51000Y-26340D02*
X51000Y-26660D01*
X51160Y-26500D02*
X50840Y-26500D01*
X54500Y-30840D02*
X54500Y-31160D01*
X54660Y-31000D02*
X54340Y-31000D01*
X45675Y-11000D02*
X45671Y-11033D01*
X45661Y-11066D01*
X45645Y-11096D01*
X45624Y-11123D01*
X45597Y-11145D01*
X45567Y-11161D01*
X45535Y-11171D01*
X45501Y-11174D01*
X45468Y-11171D01*
X45435Y-11162D01*
X45405Y-11146D01*
X45378Y-11125D01*
X45356Y-11098D01*
X45340Y-11068D01*
X45329Y-11036D01*
X45326Y-11002D01*
X45328Y-10969D01*
X45338Y-10936D01*
X45353Y-10906D01*
X45375Y-10879D01*
X45401Y-10857D01*
X45430Y-10840D01*
X45463Y-10830D01*
X45497Y-10826D01*
X45530Y-10828D01*
X45563Y-10837D01*
X45593Y-10853D01*
X45620Y-10874D01*
X45643Y-10900D01*
X45659Y-10929D01*
X45670Y-10962D01*
X45674Y-10996D01*
X45675Y-11000D01*
X45325Y-10825D02*
X45675Y-11175D01*
X45675Y-10825D02*
X45325Y-11175D01*
X45675Y-18000D02*
X45671Y-18033D01*
X45661Y-18066D01*
X45645Y-18096D01*
X45624Y-18123D01*
X45597Y-18145D01*
X45567Y-18161D01*
X45535Y-18171D01*
X45501Y-18174D01*
X45468Y-18171D01*
X45435Y-18162D01*
X45405Y-18146D01*
X45378Y-18125D01*
X45356Y-18098D01*
X45340Y-18068D01*
X45329Y-18036D01*
X45326Y-18002D01*
X45328Y-17969D01*
X45338Y-17936D01*
X45353Y-17906D01*
X45375Y-17879D01*
X45401Y-17857D01*
X45430Y-17840D01*
X45463Y-17830D01*
X45497Y-17826D01*
X45530Y-17828D01*
X45563Y-17837D01*
X45593Y-17853D01*
X45620Y-17874D01*
X45643Y-17900D01*
X45659Y-17929D01*
X45670Y-17962D01*
X45674Y-17996D01*
X45675Y-18000D01*
X45325Y-17825D02*
X45675Y-18175D01*
X45675Y-17825D02*
X45325Y-18175D01*
X45675Y-24500D02*
X45671Y-24533D01*
X45661Y-24566D01*
X45645Y-24596D01*
X45624Y-24623D01*
X45597Y-24645D01*
X45567Y-24661D01*
X45535Y-24671D01*
X45501Y-24674D01*
X45468Y-24671D01*
X45435Y-24662D01*
X45405Y-24646D01*
X45378Y-24625D01*
X45356Y-24598D01*
X45340Y-24568D01*
X45329Y-24536D01*
X45326Y-24502D01*
X45328Y-24469D01*
X45338Y-24436D01*
X45353Y-24406D01*
X45375Y-24379D01*
X45401Y-24357D01*
X45430Y-24340D01*
X45463Y-24330D01*
X45497Y-24326D01*
X45530Y-24328D01*
X45563Y-24337D01*
X45593Y-24353D01*
X45620Y-24374D01*
X45643Y-24400D01*
X45659Y-24429D01*
X45670Y-24462D01*
X45674Y-24496D01*
X45675Y-24500D01*
X45325Y-24325D02*
X45675Y-24675D01*
X45675Y-24325D02*
X45325Y-24675D01*
X49675Y-11000D02*
X49671Y-11033D01*
X49661Y-11066D01*
X49645Y-11096D01*
X49624Y-11123D01*
X49597Y-11145D01*
X49567Y-11161D01*
X49535Y-11171D01*
X49501Y-11174D01*
X49468Y-11171D01*
X49435Y-11162D01*
X49405Y-11146D01*
X49378Y-11125D01*
X49356Y-11098D01*
X49340Y-11068D01*
X49329Y-11036D01*
X49326Y-11002D01*
X49328Y-10969D01*
X49338Y-10936D01*
X49353Y-10906D01*
X49375Y-10879D01*
X49401Y-10857D01*
X49430Y-10840D01*
X49463Y-10830D01*
X49497Y-10826D01*
X49530Y-10828D01*
X49563Y-10837D01*
X49593Y-10853D01*
X49620Y-10874D01*
X49643Y-10900D01*
X49659Y-10929D01*
X49670Y-10962D01*
X49674Y-10996D01*
X49675Y-11000D01*
X49325Y-10825D02*
X49675Y-11175D01*
X49675Y-10825D02*
X49325Y-11175D01*
X49675Y-18000D02*
X49671Y-18033D01*
X49661Y-18066D01*
X49645Y-18096D01*
X49624Y-18123D01*
X49597Y-18145D01*
X49567Y-18161D01*
X49535Y-18171D01*
X49501Y-18174D01*
X49468Y-18171D01*
X49435Y-18162D01*
X49405Y-18146D01*
X49378Y-18125D01*
X49356Y-18098D01*
X49340Y-18068D01*
X49329Y-18036D01*
X49326Y-18002D01*
X49328Y-17969D01*
X49338Y-17936D01*
X49353Y-17906D01*
X49375Y-17879D01*
X49401Y-17857D01*
X49430Y-17840D01*
X49463Y-17830D01*
X49497Y-17826D01*
X49530Y-17828D01*
X49563Y-17837D01*
X49593Y-17853D01*
X49620Y-17874D01*
X49643Y-17900D01*
X49659Y-17929D01*
X49670Y-17962D01*
X49674Y-17996D01*
X49675Y-18000D01*
X49325Y-17825D02*
X49675Y-18175D01*
X49675Y-17825D02*
X49325Y-18175D01*
X49675Y-24500D02*
X49671Y-24533D01*
X49661Y-24566D01*
X49645Y-24596D01*
X49624Y-24623D01*
X49597Y-24645D01*
X49567Y-24661D01*
X49535Y-24671D01*
X49501Y-24674D01*
X49468Y-24671D01*
X49435Y-24662D01*
X49405Y-24646D01*
X49378Y-24625D01*
X49356Y-24598D01*
X49340Y-24568D01*
X49329Y-24536D01*
X49326Y-24502D01*
X49328Y-24469D01*
X49338Y-24436D01*
X49353Y-24406D01*
X49375Y-24379D01*
X49401Y-24357D01*
X49430Y-24340D01*
X49463Y-24330D01*
X49497Y-24326D01*
X49530Y-24328D01*
X49563Y-24337D01*
X49593Y-24353D01*
X49620Y-24374D01*
X49643Y-24400D01*
X49659Y-24429D01*
X49670Y-24462D01*
X49674Y-24496D01*
X49675Y-24500D01*
X49325Y-24325D02*
X49675Y-24675D01*
X49675Y-24325D02*
X49325Y-24675D01*
X11200Y-18500D02*
X11196Y-18538D01*
X11184Y-18576D01*
X11166Y-18610D01*
X11141Y-18640D01*
X11111Y-18665D01*
X11077Y-18684D01*
X11040Y-18695D01*
X11001Y-18699D01*
X10963Y-18696D01*
X10926Y-18685D01*
X10891Y-18667D01*
X10861Y-18642D01*
X10835Y-18612D01*
X10817Y-18578D01*
X10805Y-18541D01*
X10801Y-18502D01*
X10804Y-18464D01*
X10815Y-18427D01*
X10832Y-18392D01*
X10857Y-18362D01*
X10886Y-18336D01*
X10920Y-18317D01*
X10958Y-18305D01*
X10996Y-18301D01*
X11034Y-18304D01*
X11072Y-18314D01*
X11107Y-18332D01*
X11137Y-18356D01*
X11163Y-18385D01*
X11182Y-18419D01*
X11195Y-18456D01*
X11199Y-18495D01*
X11200Y-18500D01*
X10800Y-18500D02*
X11200Y-18500D01*
X11200Y-19500D02*
X11196Y-19538D01*
X11184Y-19576D01*
X11166Y-19610D01*
X11141Y-19640D01*
X11111Y-19665D01*
X11077Y-19684D01*
X11040Y-19695D01*
X11001Y-19699D01*
X10963Y-19696D01*
X10926Y-19685D01*
X10891Y-19667D01*
X10861Y-19642D01*
X10835Y-19612D01*
X10817Y-19578D01*
X10805Y-19541D01*
X10801Y-19502D01*
X10804Y-19464D01*
X10815Y-19427D01*
X10832Y-19392D01*
X10857Y-19362D01*
X10886Y-19336D01*
X10920Y-19317D01*
X10958Y-19305D01*
X10996Y-19301D01*
X11034Y-19304D01*
X11072Y-19314D01*
X11107Y-19332D01*
X11137Y-19356D01*
X11163Y-19385D01*
X11182Y-19419D01*
X11195Y-19456D01*
X11199Y-19495D01*
X11200Y-19500D01*
X10800Y-19500D02*
X11200Y-19500D01*
X11200Y-20500D02*
X11196Y-20538D01*
X11184Y-20576D01*
X11166Y-20610D01*
X11141Y-20640D01*
X11111Y-20665D01*
X11077Y-20684D01*
X11040Y-20695D01*
X11001Y-20699D01*
X10963Y-20696D01*
X10926Y-20685D01*
X10891Y-20667D01*
X10861Y-20642D01*
X10835Y-20612D01*
X10817Y-20578D01*
X10805Y-20541D01*
X10801Y-20502D01*
X10804Y-20464D01*
X10815Y-20427D01*
X10832Y-20392D01*
X10857Y-20362D01*
X10886Y-20336D01*
X10920Y-20317D01*
X10958Y-20305D01*
X10996Y-20301D01*
X11034Y-20304D01*
X11072Y-20314D01*
X11107Y-20332D01*
X11137Y-20356D01*
X11163Y-20385D01*
X11182Y-20419D01*
X11195Y-20456D01*
X11199Y-20495D01*
X11200Y-20500D01*
X10800Y-20500D02*
X11200Y-20500D01*
X12200Y-11500D02*
X12196Y-11538D01*
X12184Y-11576D01*
X12166Y-11610D01*
X12141Y-11640D01*
X12111Y-11665D01*
X12077Y-11684D01*
X12040Y-11695D01*
X12001Y-11699D01*
X11963Y-11696D01*
X11926Y-11685D01*
X11891Y-11667D01*
X11861Y-11642D01*
X11835Y-11612D01*
X11817Y-11578D01*
X11805Y-11541D01*
X11801Y-11502D01*
X11804Y-11464D01*
X11815Y-11427D01*
X11832Y-11392D01*
X11857Y-11362D01*
X11886Y-11336D01*
X11920Y-11317D01*
X11958Y-11305D01*
X11996Y-11301D01*
X12034Y-11304D01*
X12072Y-11314D01*
X12107Y-11332D01*
X12137Y-11356D01*
X12163Y-11385D01*
X12182Y-11419D01*
X12195Y-11456D01*
X12199Y-11495D01*
X12200Y-11500D01*
X11800Y-11500D02*
X12200Y-11500D01*
X12200Y-12500D02*
X12196Y-12538D01*
X12184Y-12576D01*
X12166Y-12610D01*
X12141Y-12640D01*
X12111Y-12665D01*
X12077Y-12684D01*
X12040Y-12695D01*
X12001Y-12699D01*
X11963Y-12696D01*
X11926Y-12685D01*
X11891Y-12667D01*
X11861Y-12642D01*
X11835Y-12612D01*
X11817Y-12578D01*
X11805Y-12541D01*
X11801Y-12502D01*
X11804Y-12464D01*
X11815Y-12427D01*
X11832Y-12392D01*
X11857Y-12362D01*
X11886Y-12336D01*
X11920Y-12317D01*
X11958Y-12305D01*
X11996Y-12301D01*
X12034Y-12304D01*
X12072Y-12314D01*
X12107Y-12332D01*
X12137Y-12356D01*
X12163Y-12385D01*
X12182Y-12419D01*
X12195Y-12456D01*
X12199Y-12495D01*
X12200Y-12500D01*
X11800Y-12500D02*
X12200Y-12500D01*
X12200Y-13500D02*
X12196Y-13538D01*
X12184Y-13576D01*
X12166Y-13610D01*
X12141Y-13640D01*
X12111Y-13665D01*
X12077Y-13684D01*
X12040Y-13695D01*
X12001Y-13699D01*
X11963Y-13696D01*
X11926Y-13685D01*
X11891Y-13667D01*
X11861Y-13642D01*
X11835Y-13612D01*
X11817Y-13578D01*
X11805Y-13541D01*
X11801Y-13502D01*
X11804Y-13464D01*
X11815Y-13427D01*
X11832Y-13392D01*
X11857Y-13362D01*
X11886Y-13336D01*
X11920Y-13317D01*
X11958Y-13305D01*
X11996Y-13301D01*
X12034Y-13304D01*
X12072Y-13314D01*
X12107Y-13332D01*
X12137Y-13356D01*
X12163Y-13385D01*
X12182Y-13419D01*
X12195Y-13456D01*
X12199Y-13495D01*
X12200Y-13500D01*
X11800Y-13500D02*
X12200Y-13500D01*
X12200Y-15500D02*
X12196Y-15538D01*
X12184Y-15576D01*
X12166Y-15610D01*
X12141Y-15640D01*
X12111Y-15665D01*
X12077Y-15684D01*
X12040Y-15695D01*
X12001Y-15699D01*
X11963Y-15696D01*
X11926Y-15685D01*
X11891Y-15667D01*
X11861Y-15642D01*
X11835Y-15612D01*
X11817Y-15578D01*
X11805Y-15541D01*
X11801Y-15502D01*
X11804Y-15464D01*
X11815Y-15427D01*
X11832Y-15392D01*
X11857Y-15362D01*
X11886Y-15336D01*
X11920Y-15317D01*
X11958Y-15305D01*
X11996Y-15301D01*
X12034Y-15304D01*
X12072Y-15314D01*
X12107Y-15332D01*
X12137Y-15356D01*
X12163Y-15385D01*
X12182Y-15419D01*
X12195Y-15456D01*
X12199Y-15495D01*
X12200Y-15500D01*
X11800Y-15500D02*
X12200Y-15500D01*
X12200Y-16500D02*
X12196Y-16538D01*
X12184Y-16576D01*
X12166Y-16610D01*
X12141Y-16640D01*
X12111Y-16665D01*
X12077Y-16684D01*
X12040Y-16695D01*
X12001Y-16699D01*
X11963Y-16696D01*
X11926Y-16685D01*
X11891Y-16667D01*
X11861Y-16642D01*
X11835Y-16612D01*
X11817Y-16578D01*
X11805Y-16541D01*
X11801Y-16502D01*
X11804Y-16464D01*
X11815Y-16427D01*
X11832Y-16392D01*
X11857Y-16362D01*
X11886Y-16336D01*
X11920Y-16317D01*
X11958Y-16305D01*
X11996Y-16301D01*
X12034Y-16304D01*
X12072Y-16314D01*
X12107Y-16332D01*
X12137Y-16356D01*
X12163Y-16385D01*
X12182Y-16419D01*
X12195Y-16456D01*
X12199Y-16495D01*
X12200Y-16500D01*
X11800Y-16500D02*
X12200Y-16500D01*
X12200Y-18500D02*
X12196Y-18538D01*
X12184Y-18576D01*
X12166Y-18610D01*
X12141Y-18640D01*
X12111Y-18665D01*
X12077Y-18684D01*
X12040Y-18695D01*
X12001Y-18699D01*
X11963Y-18696D01*
X11926Y-18685D01*
X11891Y-18667D01*
X11861Y-18642D01*
X11835Y-18612D01*
X11817Y-18578D01*
X11805Y-18541D01*
X11801Y-18502D01*
X11804Y-18464D01*
X11815Y-18427D01*
X11832Y-18392D01*
X11857Y-18362D01*
X11886Y-18336D01*
X11920Y-18317D01*
X11958Y-18305D01*
X11996Y-18301D01*
X12034Y-18304D01*
X12072Y-18314D01*
X12107Y-18332D01*
X12137Y-18356D01*
X12163Y-18385D01*
X12182Y-18419D01*
X12195Y-18456D01*
X12199Y-18495D01*
X12200Y-18500D01*
X11800Y-18500D02*
X12200Y-18500D01*
X12200Y-19500D02*
X12196Y-19538D01*
X12184Y-19576D01*
X12166Y-19610D01*
X12141Y-19640D01*
X12111Y-19665D01*
X12077Y-19684D01*
X12040Y-19695D01*
X12001Y-19699D01*
X11963Y-19696D01*
X11926Y-19685D01*
X11891Y-19667D01*
X11861Y-19642D01*
X11835Y-19612D01*
X11817Y-19578D01*
X11805Y-19541D01*
X11801Y-19502D01*
X11804Y-19464D01*
X11815Y-19427D01*
X11832Y-19392D01*
X11857Y-19362D01*
X11886Y-19336D01*
X11920Y-19317D01*
X11958Y-19305D01*
X11996Y-19301D01*
X12034Y-19304D01*
X12072Y-19314D01*
X12107Y-19332D01*
X12137Y-19356D01*
X12163Y-19385D01*
X12182Y-19419D01*
X12195Y-19456D01*
X12199Y-19495D01*
X12200Y-19500D01*
X11800Y-19500D02*
X12200Y-19500D01*
X12200Y-20500D02*
X12196Y-20538D01*
X12184Y-20576D01*
X12166Y-20610D01*
X12141Y-20640D01*
X12111Y-20665D01*
X12077Y-20684D01*
X12040Y-20695D01*
X12001Y-20699D01*
X11963Y-20696D01*
X11926Y-20685D01*
X11891Y-20667D01*
X11861Y-20642D01*
X11835Y-20612D01*
X11817Y-20578D01*
X11805Y-20541D01*
X11801Y-20502D01*
X11804Y-20464D01*
X11815Y-20427D01*
X11832Y-20392D01*
X11857Y-20362D01*
X11886Y-20336D01*
X11920Y-20317D01*
X11958Y-20305D01*
X11996Y-20301D01*
X12034Y-20304D01*
X12072Y-20314D01*
X12107Y-20332D01*
X12137Y-20356D01*
X12163Y-20385D01*
X12182Y-20419D01*
X12195Y-20456D01*
X12199Y-20495D01*
X12200Y-20500D01*
X11800Y-20500D02*
X12200Y-20500D01*
G54D12*
X08314Y-34280D02*
X08314Y-33480D01*
X08505Y-33480D01*
X08619Y-33518D01*
X08695Y-33594D01*
X08734Y-33670D01*
X08772Y-33823D01*
X08772Y-33937D01*
X08734Y-34089D01*
X08695Y-34166D01*
X08619Y-34242D01*
X08505Y-34280D01*
X08314Y-34280D01*
X09114Y-34280D02*
X09114Y-33746D01*
X09114Y-33899D02*
X09153Y-33823D01*
X09191Y-33785D01*
X09267Y-33746D01*
X09343Y-33746D01*
X09609Y-34280D02*
X09609Y-33746D01*
X09609Y-33480D02*
X09571Y-33518D01*
X09609Y-33556D01*
X09648Y-33518D01*
X09609Y-33480D01*
X09609Y-33556D01*
X10105Y-34280D02*
X10029Y-34242D01*
X09990Y-34166D01*
X09990Y-33480D01*
X10524Y-34280D02*
X10448Y-34242D01*
X10409Y-34166D01*
X10409Y-33480D01*
X11438Y-34280D02*
X11438Y-33480D01*
X11705Y-34051D01*
X11972Y-33480D01*
X11972Y-34280D01*
X12695Y-34280D02*
X12695Y-33861D01*
X12657Y-33785D01*
X12581Y-33746D01*
X12429Y-33746D01*
X12352Y-33785D01*
X12695Y-34242D02*
X12619Y-34280D01*
X12429Y-34280D01*
X12352Y-34242D01*
X12314Y-34166D01*
X12314Y-34089D01*
X12352Y-34013D01*
X12429Y-33975D01*
X12619Y-33975D01*
X12695Y-33937D01*
X13076Y-33746D02*
X13076Y-34546D01*
X13076Y-33785D02*
X13153Y-33746D01*
X13305Y-33746D01*
X13381Y-33785D01*
X13419Y-33823D01*
X13457Y-33899D01*
X13457Y-34127D01*
X13419Y-34204D01*
X13381Y-34242D01*
X13305Y-34280D01*
X13153Y-34280D01*
X13076Y-34242D01*
X13800Y-34204D02*
X13839Y-34242D01*
X13800Y-34280D01*
X13762Y-34242D01*
X13800Y-34204D01*
X13800Y-34280D01*
X13800Y-33785D02*
X13839Y-33823D01*
X13800Y-33861D01*
X13762Y-33823D01*
X13800Y-33785D01*
X13800Y-33861D01*
X07674Y-35511D02*
X07924Y-35761D01*
X07924Y-35511D02*
X07674Y-35761D01*
X08467Y-35160D02*
X08543Y-35160D01*
X08619Y-35198D01*
X08657Y-35236D01*
X08695Y-35312D01*
X08734Y-35465D01*
X08734Y-35655D01*
X08695Y-35807D01*
X08657Y-35884D01*
X08619Y-35922D01*
X08543Y-35960D01*
X08467Y-35960D01*
X08391Y-35922D01*
X08353Y-35884D01*
X08314Y-35807D01*
X08276Y-35655D01*
X08276Y-35465D01*
X08314Y-35312D01*
X08353Y-35236D01*
X08391Y-35198D01*
X08467Y-35160D01*
X09076Y-35884D02*
X09115Y-35922D01*
X09076Y-35960D01*
X09038Y-35922D01*
X09076Y-35884D01*
X09076Y-35960D01*
X09610Y-35160D02*
X09686Y-35160D01*
X09762Y-35198D01*
X09800Y-35236D01*
X09838Y-35312D01*
X09877Y-35465D01*
X09877Y-35655D01*
X09838Y-35807D01*
X09800Y-35884D01*
X09762Y-35922D01*
X09686Y-35960D01*
X09610Y-35960D01*
X09534Y-35922D01*
X09496Y-35884D01*
X09457Y-35807D01*
X09419Y-35655D01*
X09419Y-35465D01*
X09457Y-35312D01*
X09496Y-35236D01*
X09534Y-35198D01*
X09610Y-35160D01*
X10181Y-35236D02*
X10219Y-35198D01*
X10296Y-35160D01*
X10486Y-35160D01*
X10562Y-35198D01*
X10600Y-35236D01*
X10639Y-35312D01*
X10639Y-35388D01*
X10600Y-35503D01*
X10143Y-35960D01*
X10639Y-35960D01*
X11362Y-35160D02*
X10981Y-35160D01*
X10943Y-35541D01*
X10981Y-35503D01*
X11058Y-35465D01*
X11248Y-35465D01*
X11324Y-35503D01*
X11362Y-35541D01*
X11401Y-35617D01*
X11401Y-35807D01*
X11362Y-35884D01*
X11324Y-35922D01*
X11248Y-35960D01*
X11058Y-35960D01*
X10981Y-35922D01*
X10943Y-35884D01*
X11705Y-35160D02*
X11705Y-35312D01*
X12010Y-35160D02*
X12010Y-35312D01*
X13535Y-35122D02*
X12849Y-36150D01*
X14564Y-35160D02*
X14640Y-35160D01*
X14716Y-35198D01*
X14754Y-35236D01*
X14792Y-35312D01*
X14831Y-35465D01*
X14831Y-35655D01*
X14792Y-35807D01*
X14754Y-35884D01*
X14716Y-35922D01*
X14640Y-35960D01*
X14564Y-35960D01*
X14488Y-35922D01*
X14450Y-35884D01*
X14411Y-35807D01*
X14373Y-35655D01*
X14373Y-35465D01*
X14411Y-35312D01*
X14450Y-35236D01*
X14488Y-35198D01*
X14564Y-35160D01*
X15173Y-35884D02*
X15212Y-35922D01*
X15173Y-35960D01*
X15135Y-35922D01*
X15173Y-35884D01*
X15173Y-35960D01*
X15897Y-35160D02*
X15745Y-35160D01*
X15669Y-35198D01*
X15631Y-35236D01*
X15554Y-35350D01*
X15516Y-35503D01*
X15516Y-35807D01*
X15554Y-35884D01*
X15593Y-35922D01*
X15669Y-35960D01*
X15821Y-35960D01*
X15897Y-35922D01*
X15935Y-35884D01*
X15974Y-35807D01*
X15974Y-35617D01*
X15935Y-35541D01*
X15897Y-35503D01*
X15821Y-35465D01*
X15669Y-35465D01*
X15593Y-35503D01*
X15554Y-35541D01*
X15516Y-35617D01*
X16659Y-35426D02*
X16659Y-35960D01*
X16469Y-35122D02*
X16278Y-35693D01*
X16774Y-35693D01*
X17078Y-35960D02*
X17078Y-35426D01*
X17078Y-35503D02*
X17117Y-35465D01*
X17193Y-35426D01*
X17307Y-35426D01*
X17383Y-35465D01*
X17421Y-35541D01*
X17421Y-35960D01*
X17421Y-35541D02*
X17459Y-35465D01*
X17536Y-35426D01*
X17650Y-35426D01*
X17726Y-35465D01*
X17764Y-35541D01*
X17764Y-35960D01*
X18145Y-35960D02*
X18145Y-35426D01*
X18145Y-35503D02*
X18184Y-35465D01*
X18260Y-35426D01*
X18374Y-35426D01*
X18450Y-35465D01*
X18488Y-35541D01*
X18488Y-35960D01*
X18488Y-35541D02*
X18526Y-35465D01*
X18603Y-35426D01*
X18717Y-35426D01*
X18793Y-35465D01*
X18831Y-35541D01*
X18831Y-35960D01*
X20051Y-36265D02*
X20013Y-36226D01*
X19937Y-36112D01*
X19899Y-36036D01*
X19861Y-35922D01*
X19822Y-35731D01*
X19822Y-35579D01*
X19861Y-35388D01*
X19899Y-35274D01*
X19937Y-35198D01*
X20013Y-35084D01*
X20051Y-35046D01*
X20279Y-35160D02*
X20813Y-35160D01*
X20470Y-35960D01*
X21041Y-35160D02*
X21575Y-35160D01*
X21232Y-35960D01*
X22489Y-35960D02*
X22489Y-35160D01*
X22832Y-35960D02*
X22832Y-35541D01*
X22794Y-35465D01*
X22718Y-35426D01*
X22604Y-35426D01*
X22528Y-35465D01*
X22489Y-35503D01*
X23328Y-35960D02*
X23252Y-35922D01*
X23213Y-35884D01*
X23175Y-35807D01*
X23175Y-35579D01*
X23213Y-35503D01*
X23252Y-35465D01*
X23328Y-35426D01*
X23442Y-35426D01*
X23518Y-35465D01*
X23556Y-35503D01*
X23594Y-35579D01*
X23594Y-35807D01*
X23556Y-35884D01*
X23518Y-35922D01*
X23442Y-35960D01*
X23328Y-35960D01*
X24052Y-35960D02*
X23976Y-35922D01*
X23937Y-35846D01*
X23937Y-35160D01*
X24661Y-35922D02*
X24585Y-35960D01*
X24433Y-35960D01*
X24356Y-35922D01*
X24318Y-35846D01*
X24318Y-35541D01*
X24356Y-35465D01*
X24433Y-35426D01*
X24585Y-35426D01*
X24661Y-35465D01*
X24699Y-35541D01*
X24699Y-35617D01*
X24318Y-35693D01*
X25004Y-35922D02*
X25081Y-35960D01*
X25233Y-35960D01*
X25309Y-35922D01*
X25347Y-35846D01*
X25347Y-35807D01*
X25309Y-35731D01*
X25233Y-35693D01*
X25119Y-35693D01*
X25042Y-35655D01*
X25004Y-35579D01*
X25004Y-35541D01*
X25042Y-35465D01*
X25119Y-35426D01*
X25233Y-35426D01*
X25309Y-35465D01*
X25614Y-36265D02*
X25652Y-36226D01*
X25729Y-36112D01*
X25767Y-36036D01*
X25805Y-35922D01*
X25843Y-35731D01*
X25843Y-35579D01*
X25805Y-35388D01*
X25767Y-35274D01*
X25729Y-35198D01*
X25652Y-35084D01*
X25614Y-35046D01*
G54D10*
X07924Y-36692D02*
X07921Y-36721D01*
X07912Y-36749D01*
X07898Y-36775D01*
X07880Y-36797D01*
X07857Y-36816D01*
X07832Y-36830D01*
X07804Y-36838D01*
X07775Y-36841D01*
X07746Y-36839D01*
X07718Y-36831D01*
X07692Y-36817D01*
X07670Y-36799D01*
X07651Y-36776D01*
X07637Y-36751D01*
X07628Y-36723D01*
X07625Y-36694D01*
X07627Y-36665D01*
X07635Y-36637D01*
X07648Y-36611D01*
X07667Y-36588D01*
X07689Y-36569D01*
X07714Y-36555D01*
X07742Y-36546D01*
X07771Y-36543D01*
X07800Y-36545D01*
X07828Y-36553D01*
X07854Y-36566D01*
X07877Y-36584D01*
X07896Y-36606D01*
X07911Y-36631D01*
X07920Y-36659D01*
X07923Y-36688D01*
X07924Y-36692D01*
G54D12*
X08467Y-36216D02*
X08543Y-36216D01*
X08619Y-36254D01*
X08657Y-36292D01*
X08695Y-36368D01*
X08734Y-36521D01*
X08734Y-36711D01*
X08695Y-36863D01*
X08657Y-36940D01*
X08619Y-36978D01*
X08543Y-37016D01*
X08467Y-37016D01*
X08391Y-36978D01*
X08353Y-36940D01*
X08314Y-36863D01*
X08276Y-36711D01*
X08276Y-36521D01*
X08314Y-36368D01*
X08353Y-36292D01*
X08391Y-36254D01*
X08467Y-36216D01*
X09076Y-36940D02*
X09115Y-36978D01*
X09076Y-37016D01*
X09038Y-36978D01*
X09076Y-36940D01*
X09076Y-37016D01*
X09610Y-36216D02*
X09686Y-36216D01*
X09762Y-36254D01*
X09800Y-36292D01*
X09838Y-36368D01*
X09877Y-36521D01*
X09877Y-36711D01*
X09838Y-36863D01*
X09800Y-36940D01*
X09762Y-36978D01*
X09686Y-37016D01*
X09610Y-37016D01*
X09534Y-36978D01*
X09496Y-36940D01*
X09457Y-36863D01*
X09419Y-36711D01*
X09419Y-36521D01*
X09457Y-36368D01*
X09496Y-36292D01*
X09534Y-36254D01*
X09610Y-36216D01*
X10143Y-36216D02*
X10639Y-36216D01*
X10372Y-36521D01*
X10486Y-36521D01*
X10562Y-36559D01*
X10600Y-36597D01*
X10639Y-36673D01*
X10639Y-36863D01*
X10600Y-36940D01*
X10562Y-36978D01*
X10486Y-37016D01*
X10258Y-37016D01*
X10181Y-36978D01*
X10143Y-36940D01*
X11134Y-36216D02*
X11210Y-36216D01*
X11286Y-36254D01*
X11324Y-36292D01*
X11362Y-36368D01*
X11401Y-36521D01*
X11401Y-36711D01*
X11362Y-36863D01*
X11324Y-36940D01*
X11286Y-36978D01*
X11210Y-37016D01*
X11134Y-37016D01*
X11058Y-36978D01*
X11020Y-36940D01*
X10981Y-36863D01*
X10943Y-36711D01*
X10943Y-36521D01*
X10981Y-36368D01*
X11020Y-36292D01*
X11058Y-36254D01*
X11134Y-36216D01*
X11705Y-36216D02*
X11705Y-36368D01*
X12010Y-36216D02*
X12010Y-36368D01*
X13535Y-36178D02*
X12849Y-37206D01*
X14564Y-36216D02*
X14640Y-36216D01*
X14716Y-36254D01*
X14754Y-36292D01*
X14792Y-36368D01*
X14831Y-36521D01*
X14831Y-36711D01*
X14792Y-36863D01*
X14754Y-36940D01*
X14716Y-36978D01*
X14640Y-37016D01*
X14564Y-37016D01*
X14488Y-36978D01*
X14450Y-36940D01*
X14411Y-36863D01*
X14373Y-36711D01*
X14373Y-36521D01*
X14411Y-36368D01*
X14450Y-36292D01*
X14488Y-36254D01*
X14564Y-36216D01*
X15173Y-36940D02*
X15212Y-36978D01*
X15173Y-37016D01*
X15135Y-36978D01*
X15173Y-36940D01*
X15173Y-37016D01*
X15478Y-36216D02*
X16012Y-36216D01*
X15669Y-37016D01*
X16659Y-36216D02*
X16507Y-36216D01*
X16431Y-36254D01*
X16393Y-36292D01*
X16316Y-36406D01*
X16278Y-36559D01*
X16278Y-36863D01*
X16316Y-36940D01*
X16355Y-36978D01*
X16431Y-37016D01*
X16583Y-37016D01*
X16659Y-36978D01*
X16697Y-36940D01*
X16736Y-36863D01*
X16736Y-36673D01*
X16697Y-36597D01*
X16659Y-36559D01*
X16583Y-36521D01*
X16431Y-36521D01*
X16355Y-36559D01*
X16316Y-36597D01*
X16278Y-36673D01*
X17078Y-37016D02*
X17078Y-36482D01*
X17078Y-36559D02*
X17117Y-36521D01*
X17193Y-36482D01*
X17307Y-36482D01*
X17383Y-36521D01*
X17421Y-36597D01*
X17421Y-37016D01*
X17421Y-36597D02*
X17459Y-36521D01*
X17536Y-36482D01*
X17650Y-36482D01*
X17726Y-36521D01*
X17764Y-36597D01*
X17764Y-37016D01*
X18145Y-37016D02*
X18145Y-36482D01*
X18145Y-36559D02*
X18184Y-36521D01*
X18260Y-36482D01*
X18374Y-36482D01*
X18450Y-36521D01*
X18488Y-36597D01*
X18488Y-37016D01*
X18488Y-36597D02*
X18526Y-36521D01*
X18603Y-36482D01*
X18717Y-36482D01*
X18793Y-36521D01*
X18831Y-36597D01*
X18831Y-37016D01*
X20051Y-37321D02*
X20013Y-37282D01*
X19937Y-37168D01*
X19899Y-37092D01*
X19861Y-36978D01*
X19822Y-36787D01*
X19822Y-36635D01*
X19861Y-36444D01*
X19899Y-36330D01*
X19937Y-36254D01*
X20013Y-36140D01*
X20051Y-36102D01*
X20317Y-36292D02*
X20355Y-36254D01*
X20432Y-36216D01*
X20622Y-36216D01*
X20698Y-36254D01*
X20736Y-36292D01*
X20775Y-36368D01*
X20775Y-36444D01*
X20736Y-36559D01*
X20279Y-37016D01*
X20775Y-37016D01*
X21727Y-37016D02*
X21727Y-36216D01*
X22070Y-37016D02*
X22070Y-36597D01*
X22032Y-36521D01*
X21956Y-36482D01*
X21842Y-36482D01*
X21766Y-36521D01*
X21727Y-36559D01*
X22566Y-37016D02*
X22490Y-36978D01*
X22451Y-36940D01*
X22413Y-36863D01*
X22413Y-36635D01*
X22451Y-36559D01*
X22490Y-36521D01*
X22566Y-36482D01*
X22680Y-36482D01*
X22756Y-36521D01*
X22794Y-36559D01*
X22832Y-36635D01*
X22832Y-36863D01*
X22794Y-36940D01*
X22756Y-36978D01*
X22680Y-37016D01*
X22566Y-37016D01*
X23290Y-37016D02*
X23214Y-36978D01*
X23175Y-36902D01*
X23175Y-36216D01*
X23899Y-36978D02*
X23823Y-37016D01*
X23671Y-37016D01*
X23594Y-36978D01*
X23556Y-36902D01*
X23556Y-36597D01*
X23594Y-36521D01*
X23671Y-36482D01*
X23823Y-36482D01*
X23899Y-36521D01*
X23937Y-36597D01*
X23937Y-36673D01*
X23556Y-36749D01*
X24242Y-36978D02*
X24319Y-37016D01*
X24471Y-37016D01*
X24547Y-36978D01*
X24585Y-36902D01*
X24585Y-36863D01*
X24547Y-36787D01*
X24471Y-36749D01*
X24357Y-36749D01*
X24280Y-36711D01*
X24242Y-36635D01*
X24242Y-36597D01*
X24280Y-36521D01*
X24357Y-36482D01*
X24471Y-36482D01*
X24547Y-36521D01*
X24852Y-37321D02*
X24890Y-37282D01*
X24967Y-37168D01*
X25005Y-37092D01*
X25043Y-36978D01*
X25081Y-36787D01*
X25081Y-36635D01*
X25043Y-36444D01*
X25005Y-36330D01*
X24967Y-36254D01*
X24890Y-36140D01*
X24852Y-36102D01*
X07764Y-37588D02*
X07764Y-37908D01*
X07924Y-37748D02*
X07604Y-37748D01*
X08467Y-37272D02*
X08543Y-37272D01*
X08619Y-37310D01*
X08657Y-37348D01*
X08695Y-37424D01*
X08734Y-37577D01*
X08734Y-37767D01*
X08695Y-37919D01*
X08657Y-37996D01*
X08619Y-38034D01*
X08543Y-38072D01*
X08467Y-38072D01*
X08391Y-38034D01*
X08353Y-37996D01*
X08314Y-37919D01*
X08276Y-37767D01*
X08276Y-37577D01*
X08314Y-37424D01*
X08353Y-37348D01*
X08391Y-37310D01*
X08467Y-37272D01*
X09076Y-37996D02*
X09115Y-38034D01*
X09076Y-38072D01*
X09038Y-38034D01*
X09076Y-37996D01*
X09076Y-38072D01*
X09610Y-37272D02*
X09686Y-37272D01*
X09762Y-37310D01*
X09800Y-37348D01*
X09838Y-37424D01*
X09877Y-37577D01*
X09877Y-37767D01*
X09838Y-37919D01*
X09800Y-37996D01*
X09762Y-38034D01*
X09686Y-38072D01*
X09610Y-38072D01*
X09534Y-38034D01*
X09496Y-37996D01*
X09457Y-37919D01*
X09419Y-37767D01*
X09419Y-37577D01*
X09457Y-37424D01*
X09496Y-37348D01*
X09534Y-37310D01*
X09610Y-37272D01*
X10143Y-37272D02*
X10639Y-37272D01*
X10372Y-37577D01*
X10486Y-37577D01*
X10562Y-37615D01*
X10600Y-37653D01*
X10639Y-37729D01*
X10639Y-37919D01*
X10600Y-37996D01*
X10562Y-38034D01*
X10486Y-38072D01*
X10258Y-38072D01*
X10181Y-38034D01*
X10143Y-37996D01*
X10943Y-37348D02*
X10981Y-37310D01*
X11058Y-37272D01*
X11248Y-37272D01*
X11324Y-37310D01*
X11362Y-37348D01*
X11401Y-37424D01*
X11401Y-37500D01*
X11362Y-37615D01*
X10905Y-38072D01*
X11401Y-38072D01*
X11705Y-37272D02*
X11705Y-37424D01*
X12010Y-37272D02*
X12010Y-37424D01*
X13535Y-37234D02*
X12849Y-38262D01*
X14564Y-37272D02*
X14640Y-37272D01*
X14716Y-37310D01*
X14754Y-37348D01*
X14792Y-37424D01*
X14831Y-37577D01*
X14831Y-37767D01*
X14792Y-37919D01*
X14754Y-37996D01*
X14716Y-38034D01*
X14640Y-38072D01*
X14564Y-38072D01*
X14488Y-38034D01*
X14450Y-37996D01*
X14411Y-37919D01*
X14373Y-37767D01*
X14373Y-37577D01*
X14411Y-37424D01*
X14450Y-37348D01*
X14488Y-37310D01*
X14564Y-37272D01*
X15173Y-37996D02*
X15212Y-38034D01*
X15173Y-38072D01*
X15135Y-38034D01*
X15173Y-37996D01*
X15173Y-38072D01*
X15669Y-37615D02*
X15593Y-37577D01*
X15554Y-37538D01*
X15516Y-37462D01*
X15516Y-37424D01*
X15554Y-37348D01*
X15593Y-37310D01*
X15669Y-37272D01*
X15821Y-37272D01*
X15897Y-37310D01*
X15935Y-37348D01*
X15974Y-37424D01*
X15974Y-37462D01*
X15935Y-37538D01*
X15897Y-37577D01*
X15821Y-37615D01*
X15669Y-37615D01*
X15593Y-37653D01*
X15554Y-37691D01*
X15516Y-37767D01*
X15516Y-37919D01*
X15554Y-37996D01*
X15593Y-38034D01*
X15669Y-38072D01*
X15821Y-38072D01*
X15897Y-38034D01*
X15935Y-37996D01*
X15974Y-37919D01*
X15974Y-37767D01*
X15935Y-37691D01*
X15897Y-37653D01*
X15821Y-37615D01*
X16736Y-38072D02*
X16278Y-38072D01*
X16507Y-38072D02*
X16507Y-37272D01*
X16431Y-37386D01*
X16355Y-37462D01*
X16278Y-37500D01*
X17078Y-38072D02*
X17078Y-37538D01*
X17078Y-37615D02*
X17117Y-37577D01*
X17193Y-37538D01*
X17307Y-37538D01*
X17383Y-37577D01*
X17421Y-37653D01*
X17421Y-38072D01*
X17421Y-37653D02*
X17459Y-37577D01*
X17536Y-37538D01*
X17650Y-37538D01*
X17726Y-37577D01*
X17764Y-37653D01*
X17764Y-38072D01*
X18145Y-38072D02*
X18145Y-37538D01*
X18145Y-37615D02*
X18184Y-37577D01*
X18260Y-37538D01*
X18374Y-37538D01*
X18450Y-37577D01*
X18488Y-37653D01*
X18488Y-38072D01*
X18488Y-37653D02*
X18526Y-37577D01*
X18603Y-37538D01*
X18717Y-37538D01*
X18793Y-37577D01*
X18831Y-37653D01*
X18831Y-38072D01*
X20051Y-38377D02*
X20013Y-38338D01*
X19937Y-38224D01*
X19899Y-38148D01*
X19861Y-38034D01*
X19822Y-37843D01*
X19822Y-37691D01*
X19861Y-37500D01*
X19899Y-37386D01*
X19937Y-37310D01*
X20013Y-37196D01*
X20051Y-37158D01*
X20775Y-38072D02*
X20317Y-38072D01*
X20546Y-38072D02*
X20546Y-37272D01*
X20470Y-37386D01*
X20394Y-37462D01*
X20317Y-37500D01*
X21498Y-37272D02*
X21117Y-37272D01*
X21079Y-37653D01*
X21117Y-37615D01*
X21194Y-37577D01*
X21384Y-37577D01*
X21460Y-37615D01*
X21498Y-37653D01*
X21537Y-37729D01*
X21537Y-37919D01*
X21498Y-37996D01*
X21460Y-38034D01*
X21384Y-38072D01*
X21194Y-38072D01*
X21117Y-38034D01*
X21079Y-37996D01*
X22032Y-37272D02*
X22108Y-37272D01*
X22184Y-37310D01*
X22222Y-37348D01*
X22260Y-37424D01*
X22299Y-37577D01*
X22299Y-37767D01*
X22260Y-37919D01*
X22222Y-37996D01*
X22184Y-38034D01*
X22108Y-38072D01*
X22032Y-38072D01*
X21956Y-38034D01*
X21918Y-37996D01*
X21879Y-37919D01*
X21841Y-37767D01*
X21841Y-37577D01*
X21879Y-37424D01*
X21918Y-37348D01*
X21956Y-37310D01*
X22032Y-37272D01*
X23251Y-38072D02*
X23251Y-37272D01*
X23594Y-38072D02*
X23594Y-37653D01*
X23556Y-37577D01*
X23480Y-37538D01*
X23366Y-37538D01*
X23290Y-37577D01*
X23251Y-37615D01*
X24090Y-38072D02*
X24014Y-38034D01*
X23975Y-37996D01*
X23937Y-37919D01*
X23937Y-37691D01*
X23975Y-37615D01*
X24014Y-37577D01*
X24090Y-37538D01*
X24204Y-37538D01*
X24280Y-37577D01*
X24318Y-37615D01*
X24356Y-37691D01*
X24356Y-37919D01*
X24318Y-37996D01*
X24280Y-38034D01*
X24204Y-38072D01*
X24090Y-38072D01*
X24814Y-38072D02*
X24738Y-38034D01*
X24699Y-37958D01*
X24699Y-37272D01*
X25423Y-38034D02*
X25347Y-38072D01*
X25195Y-38072D01*
X25118Y-38034D01*
X25080Y-37958D01*
X25080Y-37653D01*
X25118Y-37577D01*
X25195Y-37538D01*
X25347Y-37538D01*
X25423Y-37577D01*
X25461Y-37653D01*
X25461Y-37729D01*
X25080Y-37805D01*
X25766Y-38034D02*
X25843Y-38072D01*
X25995Y-38072D01*
X26071Y-38034D01*
X26109Y-37958D01*
X26109Y-37919D01*
X26071Y-37843D01*
X25995Y-37805D01*
X25881Y-37805D01*
X25804Y-37767D01*
X25766Y-37691D01*
X25766Y-37653D01*
X25804Y-37577D01*
X25881Y-37538D01*
X25995Y-37538D01*
X26071Y-37577D01*
X26376Y-38377D02*
X26414Y-38338D01*
X26491Y-38224D01*
X26529Y-38148D01*
X26567Y-38034D01*
X26605Y-37843D01*
X26605Y-37691D01*
X26567Y-37500D01*
X26529Y-37386D01*
X26491Y-37310D01*
X26414Y-37196D01*
X26376Y-37158D01*
G54D10*
X07924Y-38804D02*
X07920Y-38837D01*
X07910Y-38870D01*
X07894Y-38900D01*
X07873Y-38927D01*
X07846Y-38949D01*
X07816Y-38965D01*
X07784Y-38975D01*
X07750Y-38978D01*
X07717Y-38975D01*
X07684Y-38966D01*
X07654Y-38950D01*
X07627Y-38929D01*
X07605Y-38902D01*
X07589Y-38872D01*
X07578Y-38840D01*
X07575Y-38806D01*
X07577Y-38773D01*
X07587Y-38740D01*
X07602Y-38710D01*
X07624Y-38683D01*
X07650Y-38661D01*
X07679Y-38644D01*
X07712Y-38634D01*
X07746Y-38630D01*
X07779Y-38632D01*
X07812Y-38641D01*
X07842Y-38657D01*
X07869Y-38678D01*
X07892Y-38704D01*
X07908Y-38733D01*
X07919Y-38766D01*
X07923Y-38800D01*
X07924Y-38804D01*
X07574Y-38629D02*
X07924Y-38979D01*
X07924Y-38629D02*
X07574Y-38979D01*
G54D12*
X08467Y-38328D02*
X08543Y-38328D01*
X08619Y-38366D01*
X08657Y-38404D01*
X08695Y-38480D01*
X08734Y-38633D01*
X08734Y-38823D01*
X08695Y-38975D01*
X08657Y-39052D01*
X08619Y-39090D01*
X08543Y-39128D01*
X08467Y-39128D01*
X08391Y-39090D01*
X08353Y-39052D01*
X08314Y-38975D01*
X08276Y-38823D01*
X08276Y-38633D01*
X08314Y-38480D01*
X08353Y-38404D01*
X08391Y-38366D01*
X08467Y-38328D01*
X09076Y-39052D02*
X09115Y-39090D01*
X09076Y-39128D01*
X09038Y-39090D01*
X09076Y-39052D01*
X09076Y-39128D01*
X09610Y-38328D02*
X09686Y-38328D01*
X09762Y-38366D01*
X09800Y-38404D01*
X09838Y-38480D01*
X09877Y-38633D01*
X09877Y-38823D01*
X09838Y-38975D01*
X09800Y-39052D01*
X09762Y-39090D01*
X09686Y-39128D01*
X09610Y-39128D01*
X09534Y-39090D01*
X09496Y-39052D01*
X09457Y-38975D01*
X09419Y-38823D01*
X09419Y-38633D01*
X09457Y-38480D01*
X09496Y-38404D01*
X09534Y-38366D01*
X09610Y-38328D01*
X10143Y-38328D02*
X10639Y-38328D01*
X10372Y-38633D01*
X10486Y-38633D01*
X10562Y-38671D01*
X10600Y-38709D01*
X10639Y-38785D01*
X10639Y-38975D01*
X10600Y-39052D01*
X10562Y-39090D01*
X10486Y-39128D01*
X10258Y-39128D01*
X10181Y-39090D01*
X10143Y-39052D01*
X11362Y-38328D02*
X10981Y-38328D01*
X10943Y-38709D01*
X10981Y-38671D01*
X11058Y-38633D01*
X11248Y-38633D01*
X11324Y-38671D01*
X11362Y-38709D01*
X11401Y-38785D01*
X11401Y-38975D01*
X11362Y-39052D01*
X11324Y-39090D01*
X11248Y-39128D01*
X11058Y-39128D01*
X10981Y-39090D01*
X10943Y-39052D01*
X11705Y-38328D02*
X11705Y-38480D01*
X12010Y-38328D02*
X12010Y-38480D01*
X13535Y-38290D02*
X12849Y-39318D01*
X14564Y-38328D02*
X14640Y-38328D01*
X14716Y-38366D01*
X14754Y-38404D01*
X14792Y-38480D01*
X14831Y-38633D01*
X14831Y-38823D01*
X14792Y-38975D01*
X14754Y-39052D01*
X14716Y-39090D01*
X14640Y-39128D01*
X14564Y-39128D01*
X14488Y-39090D01*
X14450Y-39052D01*
X14411Y-38975D01*
X14373Y-38823D01*
X14373Y-38633D01*
X14411Y-38480D01*
X14450Y-38404D01*
X14488Y-38366D01*
X14564Y-38328D01*
X15173Y-39052D02*
X15212Y-39090D01*
X15173Y-39128D01*
X15135Y-39090D01*
X15173Y-39052D01*
X15173Y-39128D01*
X15669Y-38671D02*
X15593Y-38633D01*
X15554Y-38594D01*
X15516Y-38518D01*
X15516Y-38480D01*
X15554Y-38404D01*
X15593Y-38366D01*
X15669Y-38328D01*
X15821Y-38328D01*
X15897Y-38366D01*
X15935Y-38404D01*
X15974Y-38480D01*
X15974Y-38518D01*
X15935Y-38594D01*
X15897Y-38633D01*
X15821Y-38671D01*
X15669Y-38671D01*
X15593Y-38709D01*
X15554Y-38747D01*
X15516Y-38823D01*
X15516Y-38975D01*
X15554Y-39052D01*
X15593Y-39090D01*
X15669Y-39128D01*
X15821Y-39128D01*
X15897Y-39090D01*
X15935Y-39052D01*
X15974Y-38975D01*
X15974Y-38823D01*
X15935Y-38747D01*
X15897Y-38709D01*
X15821Y-38671D01*
X16355Y-39128D02*
X16507Y-39128D01*
X16583Y-39090D01*
X16621Y-39052D01*
X16697Y-38937D01*
X16736Y-38785D01*
X16736Y-38480D01*
X16697Y-38404D01*
X16659Y-38366D01*
X16583Y-38328D01*
X16431Y-38328D01*
X16355Y-38366D01*
X16316Y-38404D01*
X16278Y-38480D01*
X16278Y-38671D01*
X16316Y-38747D01*
X16355Y-38785D01*
X16431Y-38823D01*
X16583Y-38823D01*
X16659Y-38785D01*
X16697Y-38747D01*
X16736Y-38671D01*
X17078Y-39128D02*
X17078Y-38594D01*
X17078Y-38671D02*
X17117Y-38633D01*
X17193Y-38594D01*
X17307Y-38594D01*
X17383Y-38633D01*
X17421Y-38709D01*
X17421Y-39128D01*
X17421Y-38709D02*
X17459Y-38633D01*
X17536Y-38594D01*
X17650Y-38594D01*
X17726Y-38633D01*
X17764Y-38709D01*
X17764Y-39128D01*
X18145Y-39128D02*
X18145Y-38594D01*
X18145Y-38671D02*
X18184Y-38633D01*
X18260Y-38594D01*
X18374Y-38594D01*
X18450Y-38633D01*
X18488Y-38709D01*
X18488Y-39128D01*
X18488Y-38709D02*
X18526Y-38633D01*
X18603Y-38594D01*
X18717Y-38594D01*
X18793Y-38633D01*
X18831Y-38709D01*
X18831Y-39128D01*
X20051Y-39433D02*
X20013Y-39394D01*
X19937Y-39280D01*
X19899Y-39204D01*
X19861Y-39090D01*
X19822Y-38899D01*
X19822Y-38747D01*
X19861Y-38556D01*
X19899Y-38442D01*
X19937Y-38366D01*
X20013Y-38252D01*
X20051Y-38214D01*
X20698Y-38328D02*
X20546Y-38328D01*
X20470Y-38366D01*
X20432Y-38404D01*
X20355Y-38518D01*
X20317Y-38671D01*
X20317Y-38975D01*
X20355Y-39052D01*
X20394Y-39090D01*
X20470Y-39128D01*
X20622Y-39128D01*
X20698Y-39090D01*
X20736Y-39052D01*
X20775Y-38975D01*
X20775Y-38785D01*
X20736Y-38709D01*
X20698Y-38671D01*
X20622Y-38633D01*
X20470Y-38633D01*
X20394Y-38671D01*
X20355Y-38709D01*
X20317Y-38785D01*
X21727Y-39128D02*
X21727Y-38328D01*
X22070Y-39128D02*
X22070Y-38709D01*
X22032Y-38633D01*
X21956Y-38594D01*
X21842Y-38594D01*
X21766Y-38633D01*
X21727Y-38671D01*
X22566Y-39128D02*
X22490Y-39090D01*
X22451Y-39052D01*
X22413Y-38975D01*
X22413Y-38747D01*
X22451Y-38671D01*
X22490Y-38633D01*
X22566Y-38594D01*
X22680Y-38594D01*
X22756Y-38633D01*
X22794Y-38671D01*
X22832Y-38747D01*
X22832Y-38975D01*
X22794Y-39052D01*
X22756Y-39090D01*
X22680Y-39128D01*
X22566Y-39128D01*
X23290Y-39128D02*
X23214Y-39090D01*
X23175Y-39014D01*
X23175Y-38328D01*
X23899Y-39090D02*
X23823Y-39128D01*
X23671Y-39128D01*
X23594Y-39090D01*
X23556Y-39014D01*
X23556Y-38709D01*
X23594Y-38633D01*
X23671Y-38594D01*
X23823Y-38594D01*
X23899Y-38633D01*
X23937Y-38709D01*
X23937Y-38785D01*
X23556Y-38861D01*
X24242Y-39090D02*
X24319Y-39128D01*
X24471Y-39128D01*
X24547Y-39090D01*
X24585Y-39014D01*
X24585Y-38975D01*
X24547Y-38899D01*
X24471Y-38861D01*
X24357Y-38861D01*
X24280Y-38823D01*
X24242Y-38747D01*
X24242Y-38709D01*
X24280Y-38633D01*
X24357Y-38594D01*
X24471Y-38594D01*
X24547Y-38633D01*
X24852Y-39433D02*
X24890Y-39394D01*
X24967Y-39280D01*
X25005Y-39204D01*
X25043Y-39090D01*
X25081Y-38899D01*
X25081Y-38747D01*
X25043Y-38556D01*
X25005Y-38442D01*
X24967Y-38366D01*
X24890Y-38252D01*
X24852Y-38214D01*
G54D10*
X07924Y-39860D02*
X07920Y-39898D01*
X07908Y-39936D01*
X07890Y-39970D01*
X07865Y-40000D01*
X07835Y-40025D01*
X07801Y-40044D01*
X07764Y-40055D01*
X07725Y-40059D01*
X07687Y-40056D01*
X07650Y-40045D01*
X07615Y-40027D01*
X07585Y-40002D01*
X07559Y-39972D01*
X07541Y-39938D01*
X07529Y-39901D01*
X07525Y-39862D01*
X07528Y-39824D01*
X07539Y-39787D01*
X07556Y-39752D01*
X07581Y-39722D01*
X07610Y-39696D01*
X07644Y-39677D01*
X07682Y-39665D01*
X07720Y-39661D01*
X07758Y-39664D01*
X07796Y-39674D01*
X07831Y-39692D01*
X07861Y-39716D01*
X07887Y-39745D01*
X07906Y-39779D01*
X07919Y-39816D01*
X07923Y-39855D01*
X07924Y-39860D01*
X07524Y-39860D02*
X07924Y-39860D01*
G54D12*
X08467Y-39384D02*
X08543Y-39384D01*
X08619Y-39422D01*
X08657Y-39460D01*
X08695Y-39536D01*
X08734Y-39689D01*
X08734Y-39879D01*
X08695Y-40031D01*
X08657Y-40108D01*
X08619Y-40146D01*
X08543Y-40184D01*
X08467Y-40184D01*
X08391Y-40146D01*
X08353Y-40108D01*
X08314Y-40031D01*
X08276Y-39879D01*
X08276Y-39689D01*
X08314Y-39536D01*
X08353Y-39460D01*
X08391Y-39422D01*
X08467Y-39384D01*
X09076Y-40108D02*
X09115Y-40146D01*
X09076Y-40184D01*
X09038Y-40146D01*
X09076Y-40108D01*
X09076Y-40184D01*
X09610Y-39384D02*
X09686Y-39384D01*
X09762Y-39422D01*
X09800Y-39460D01*
X09838Y-39536D01*
X09877Y-39689D01*
X09877Y-39879D01*
X09838Y-40031D01*
X09800Y-40108D01*
X09762Y-40146D01*
X09686Y-40184D01*
X09610Y-40184D01*
X09534Y-40146D01*
X09496Y-40108D01*
X09457Y-40031D01*
X09419Y-39879D01*
X09419Y-39689D01*
X09457Y-39536D01*
X09496Y-39460D01*
X09534Y-39422D01*
X09610Y-39384D01*
X10562Y-39650D02*
X10562Y-40184D01*
X10372Y-39346D02*
X10181Y-39917D01*
X10677Y-39917D01*
X11134Y-39384D02*
X11210Y-39384D01*
X11286Y-39422D01*
X11324Y-39460D01*
X11362Y-39536D01*
X11401Y-39689D01*
X11401Y-39879D01*
X11362Y-40031D01*
X11324Y-40108D01*
X11286Y-40146D01*
X11210Y-40184D01*
X11134Y-40184D01*
X11058Y-40146D01*
X11020Y-40108D01*
X10981Y-40031D01*
X10943Y-39879D01*
X10943Y-39689D01*
X10981Y-39536D01*
X11020Y-39460D01*
X11058Y-39422D01*
X11134Y-39384D01*
X11705Y-39384D02*
X11705Y-39536D01*
X12010Y-39384D02*
X12010Y-39536D01*
X13535Y-39346D02*
X12849Y-40374D01*
X14831Y-40184D02*
X14373Y-40184D01*
X14602Y-40184D02*
X14602Y-39384D01*
X14526Y-39498D01*
X14450Y-39574D01*
X14373Y-39612D01*
X15173Y-40108D02*
X15212Y-40146D01*
X15173Y-40184D01*
X15135Y-40146D01*
X15173Y-40108D01*
X15173Y-40184D01*
X15707Y-39384D02*
X15783Y-39384D01*
X15859Y-39422D01*
X15897Y-39460D01*
X15935Y-39536D01*
X15974Y-39689D01*
X15974Y-39879D01*
X15935Y-40031D01*
X15897Y-40108D01*
X15859Y-40146D01*
X15783Y-40184D01*
X15707Y-40184D01*
X15631Y-40146D01*
X15593Y-40108D01*
X15554Y-40031D01*
X15516Y-39879D01*
X15516Y-39689D01*
X15554Y-39536D01*
X15593Y-39460D01*
X15631Y-39422D01*
X15707Y-39384D01*
X16278Y-39460D02*
X16316Y-39422D01*
X16393Y-39384D01*
X16583Y-39384D01*
X16659Y-39422D01*
X16697Y-39460D01*
X16736Y-39536D01*
X16736Y-39612D01*
X16697Y-39727D01*
X16240Y-40184D01*
X16736Y-40184D01*
X17078Y-40184D02*
X17078Y-39650D01*
X17078Y-39727D02*
X17117Y-39689D01*
X17193Y-39650D01*
X17307Y-39650D01*
X17383Y-39689D01*
X17421Y-39765D01*
X17421Y-40184D01*
X17421Y-39765D02*
X17459Y-39689D01*
X17536Y-39650D01*
X17650Y-39650D01*
X17726Y-39689D01*
X17764Y-39765D01*
X17764Y-40184D01*
X18145Y-40184D02*
X18145Y-39650D01*
X18145Y-39727D02*
X18184Y-39689D01*
X18260Y-39650D01*
X18374Y-39650D01*
X18450Y-39689D01*
X18488Y-39765D01*
X18488Y-40184D01*
X18488Y-39765D02*
X18526Y-39689D01*
X18603Y-39650D01*
X18717Y-39650D01*
X18793Y-39689D01*
X18831Y-39765D01*
X18831Y-40184D01*
X20051Y-40489D02*
X20013Y-40450D01*
X19937Y-40336D01*
X19899Y-40260D01*
X19861Y-40146D01*
X19822Y-39955D01*
X19822Y-39803D01*
X19861Y-39612D01*
X19899Y-39498D01*
X19937Y-39422D01*
X20013Y-39308D01*
X20051Y-39270D01*
X20775Y-40184D02*
X20317Y-40184D01*
X20546Y-40184D02*
X20546Y-39384D01*
X20470Y-39498D01*
X20394Y-39574D01*
X20317Y-39612D01*
X21537Y-40184D02*
X21079Y-40184D01*
X21308Y-40184D02*
X21308Y-39384D01*
X21232Y-39498D01*
X21156Y-39574D01*
X21079Y-39612D01*
X22489Y-40184D02*
X22489Y-39384D01*
X22832Y-40184D02*
X22832Y-39765D01*
X22794Y-39689D01*
X22718Y-39650D01*
X22604Y-39650D01*
X22528Y-39689D01*
X22489Y-39727D01*
X23328Y-40184D02*
X23252Y-40146D01*
X23213Y-40108D01*
X23175Y-40031D01*
X23175Y-39803D01*
X23213Y-39727D01*
X23252Y-39689D01*
X23328Y-39650D01*
X23442Y-39650D01*
X23518Y-39689D01*
X23556Y-39727D01*
X23594Y-39803D01*
X23594Y-40031D01*
X23556Y-40108D01*
X23518Y-40146D01*
X23442Y-40184D01*
X23328Y-40184D01*
X24052Y-40184D02*
X23976Y-40146D01*
X23937Y-40070D01*
X23937Y-39384D01*
X24661Y-40146D02*
X24585Y-40184D01*
X24433Y-40184D01*
X24356Y-40146D01*
X24318Y-40070D01*
X24318Y-39765D01*
X24356Y-39689D01*
X24433Y-39650D01*
X24585Y-39650D01*
X24661Y-39689D01*
X24699Y-39765D01*
X24699Y-39841D01*
X24318Y-39917D01*
X25004Y-40146D02*
X25081Y-40184D01*
X25233Y-40184D01*
X25309Y-40146D01*
X25347Y-40070D01*
X25347Y-40031D01*
X25309Y-39955D01*
X25233Y-39917D01*
X25119Y-39917D01*
X25042Y-39879D01*
X25004Y-39803D01*
X25004Y-39765D01*
X25042Y-39689D01*
X25119Y-39650D01*
X25233Y-39650D01*
X25309Y-39689D01*
X25614Y-40489D02*
X25652Y-40450D01*
X25729Y-40336D01*
X25767Y-40260D01*
X25805Y-40146D01*
X25843Y-39955D01*
X25843Y-39803D01*
X25805Y-39612D01*
X25767Y-39498D01*
X25729Y-39422D01*
X25652Y-39308D01*
X25614Y-39270D01*
M02*
