G04 (created by PCBNEW-RS274X (2011-05-25)-stable) date Sun 14 Jun 2015 13:17:46 MST*
G01*
G70*
G90*
%MOIN*%
G04 Gerber Fmt 3.4, Leading zero omitted, Abs format*
%FSLAX34Y34*%
G04 APERTURE LIST*
%ADD10C,0.006000*%
%ADD11C,0.015000*%
%ADD12C,0.010000*%
%ADD13C,0.012000*%
%ADD14C,0.005000*%
%ADD15C,0.008000*%
%ADD16C,0.012500*%
%ADD17C,0.003500*%
%ADD18C,0.011300*%
G04 APERTURE END LIST*
G54D10*
G54D11*
X65000Y-07000D02*
X65000Y-33000D01*
X08000Y-33000D02*
X08000Y-07000D01*
G54D12*
X09862Y-25081D02*
X09671Y-25215D01*
X09862Y-25310D02*
X09462Y-25310D01*
X09462Y-25157D01*
X09481Y-25119D01*
X09500Y-25100D01*
X09538Y-25081D01*
X09595Y-25081D01*
X09633Y-25100D01*
X09652Y-25119D01*
X09671Y-25157D01*
X09671Y-25310D01*
X09652Y-24910D02*
X09652Y-24776D01*
X09862Y-24719D02*
X09862Y-24910D01*
X09462Y-24910D01*
X09462Y-24719D01*
X09843Y-24567D02*
X09862Y-24510D01*
X09862Y-24414D01*
X09843Y-24376D01*
X09824Y-24357D01*
X09786Y-24338D01*
X09748Y-24338D01*
X09710Y-24357D01*
X09690Y-24376D01*
X09671Y-24414D01*
X09652Y-24491D01*
X09633Y-24529D01*
X09614Y-24548D01*
X09576Y-24567D01*
X09538Y-24567D01*
X09500Y-24548D01*
X09481Y-24529D01*
X09462Y-24491D01*
X09462Y-24395D01*
X09481Y-24338D01*
X09652Y-24167D02*
X09652Y-24033D01*
X09862Y-23976D02*
X09862Y-24167D01*
X09462Y-24167D01*
X09462Y-23976D01*
X09462Y-23862D02*
X09462Y-23633D01*
X09862Y-23748D02*
X09462Y-23748D01*
X10196Y-11281D02*
X10158Y-11262D01*
X10101Y-11262D01*
X10043Y-11281D01*
X10005Y-11319D01*
X09986Y-11357D01*
X09967Y-11433D01*
X09967Y-11490D01*
X09986Y-11567D01*
X10005Y-11605D01*
X10043Y-11643D01*
X10101Y-11662D01*
X10139Y-11662D01*
X10196Y-11643D01*
X10215Y-11624D01*
X10215Y-11490D01*
X10139Y-11490D01*
X10386Y-11662D02*
X10386Y-11262D01*
X10615Y-11662D01*
X10615Y-11262D01*
X10805Y-11662D02*
X10805Y-11262D01*
X10900Y-11262D01*
X10958Y-11281D01*
X10996Y-11319D01*
X11015Y-11357D01*
X11034Y-11433D01*
X11034Y-11490D01*
X11015Y-11567D01*
X10996Y-11605D01*
X10958Y-11643D01*
X10900Y-11662D01*
X10805Y-11662D01*
X10434Y-12662D02*
X10300Y-12471D01*
X10205Y-12662D02*
X10205Y-12262D01*
X10358Y-12262D01*
X10396Y-12281D01*
X10415Y-12300D01*
X10434Y-12338D01*
X10434Y-12395D01*
X10415Y-12433D01*
X10396Y-12452D01*
X10358Y-12471D01*
X10205Y-12471D01*
X10567Y-12262D02*
X10834Y-12662D01*
X10834Y-12262D02*
X10567Y-12662D01*
X10195Y-13262D02*
X10424Y-13262D01*
X10309Y-13662D02*
X10309Y-13262D01*
X10519Y-13262D02*
X10786Y-13662D01*
X10786Y-13262D02*
X10519Y-13662D01*
G54D11*
X08000Y-07000D02*
X13000Y-07000D01*
X65000Y-33000D02*
X08000Y-33000D01*
X08000Y-07000D02*
X65000Y-07000D01*
G54D13*
X18600Y-13700D02*
X20100Y-12200D01*
X20100Y-12200D02*
X20100Y-11700D01*
X20100Y-11700D02*
X19600Y-11200D01*
X19600Y-11200D02*
X18600Y-11200D01*
X18600Y-11200D02*
X17600Y-12200D01*
X17600Y-12200D02*
X17600Y-13200D01*
X17600Y-13200D02*
X18100Y-13700D01*
X18100Y-13700D02*
X18600Y-13700D01*
X21500Y-10500D02*
X23000Y-09000D01*
X23000Y-09000D02*
X23000Y-08500D01*
X23000Y-08500D02*
X22500Y-08000D01*
X22500Y-08000D02*
X21500Y-08000D01*
X21500Y-08000D02*
X20500Y-09000D01*
X20500Y-09000D02*
X20500Y-10000D01*
X20500Y-10000D02*
X21000Y-10500D01*
X21000Y-10500D02*
X21500Y-10500D01*
G54D14*
X12500Y-24500D02*
X12480Y-24694D01*
X12424Y-24881D01*
X12332Y-25053D01*
X12209Y-25204D01*
X12059Y-25329D01*
X11887Y-25421D01*
X11701Y-25479D01*
X11506Y-25499D01*
X11313Y-25482D01*
X11126Y-25427D01*
X10953Y-25336D01*
X10801Y-25214D01*
X10675Y-25064D01*
X10581Y-24893D01*
X10522Y-24707D01*
X10501Y-24513D01*
X10517Y-24320D01*
X10571Y-24132D01*
X10660Y-23959D01*
X10781Y-23806D01*
X10930Y-23679D01*
X11100Y-23584D01*
X11286Y-23524D01*
X11480Y-23501D01*
X11673Y-23516D01*
X11861Y-23568D01*
X12035Y-23656D01*
X12189Y-23776D01*
X12317Y-23924D01*
X12413Y-24094D01*
X12475Y-24279D01*
X12499Y-24473D01*
X12500Y-24500D01*
X10000Y-26000D02*
X10000Y-23000D01*
X10000Y-23000D02*
X13000Y-23000D01*
X13000Y-23000D02*
X13000Y-26000D01*
X10000Y-26000D02*
X13000Y-26000D01*
X46800Y-26450D02*
X46750Y-26450D01*
X46750Y-26450D02*
X46750Y-28550D01*
X48250Y-28550D02*
X48250Y-26450D01*
X48250Y-26450D02*
X46800Y-26450D01*
X47700Y-26450D02*
X47700Y-26650D01*
X47700Y-26650D02*
X47300Y-26650D01*
X47300Y-26650D02*
X47300Y-26450D01*
X48250Y-28550D02*
X46750Y-28550D01*
X46800Y-19950D02*
X46750Y-19950D01*
X46750Y-19950D02*
X46750Y-22050D01*
X48250Y-22050D02*
X48250Y-19950D01*
X48250Y-19950D02*
X46800Y-19950D01*
X47700Y-19950D02*
X47700Y-20150D01*
X47700Y-20150D02*
X47300Y-20150D01*
X47300Y-20150D02*
X47300Y-19950D01*
X48250Y-22050D02*
X46750Y-22050D01*
X46800Y-12950D02*
X46750Y-12950D01*
X46750Y-12950D02*
X46750Y-15050D01*
X48250Y-15050D02*
X48250Y-12950D01*
X48250Y-12950D02*
X46800Y-12950D01*
X47700Y-12950D02*
X47700Y-13150D01*
X47700Y-13150D02*
X47300Y-13150D01*
X47300Y-13150D02*
X47300Y-12950D01*
X48250Y-15050D02*
X46750Y-15050D01*
G54D13*
X54500Y-31000D02*
X54100Y-31000D01*
X49500Y-31000D02*
X49900Y-31000D01*
X49900Y-31500D02*
X49900Y-30500D01*
X49900Y-30500D02*
X54100Y-30500D01*
X54100Y-30500D02*
X54100Y-31500D01*
X54100Y-31500D02*
X49900Y-31500D01*
X54100Y-31300D02*
X53900Y-31500D01*
X39000Y-27000D02*
X39200Y-27000D01*
X42000Y-27000D02*
X41800Y-27000D01*
X41800Y-27000D02*
X41800Y-26600D01*
X41800Y-26600D02*
X39200Y-26600D01*
X39200Y-26600D02*
X39200Y-27400D01*
X39200Y-27400D02*
X41800Y-27400D01*
X41800Y-27400D02*
X41800Y-27000D01*
X39200Y-26800D02*
X39400Y-26600D01*
X39000Y-30500D02*
X39200Y-30500D01*
X42000Y-30500D02*
X41800Y-30500D01*
X41800Y-30500D02*
X41800Y-30100D01*
X41800Y-30100D02*
X39200Y-30100D01*
X39200Y-30100D02*
X39200Y-30900D01*
X39200Y-30900D02*
X41800Y-30900D01*
X41800Y-30900D02*
X41800Y-30500D01*
X39200Y-30300D02*
X39400Y-30100D01*
X39000Y-29000D02*
X39200Y-29000D01*
X42000Y-29000D02*
X41800Y-29000D01*
X41800Y-29000D02*
X41800Y-28600D01*
X41800Y-28600D02*
X39200Y-28600D01*
X39200Y-28600D02*
X39200Y-29400D01*
X39200Y-29400D02*
X41800Y-29400D01*
X41800Y-29400D02*
X41800Y-29000D01*
X39200Y-28800D02*
X39400Y-28600D01*
X32000Y-29000D02*
X31800Y-29000D01*
X29000Y-29000D02*
X29200Y-29000D01*
X29200Y-29000D02*
X29200Y-29400D01*
X29200Y-29400D02*
X31800Y-29400D01*
X31800Y-29400D02*
X31800Y-28600D01*
X31800Y-28600D02*
X29200Y-28600D01*
X29200Y-28600D02*
X29200Y-29000D01*
X31800Y-29200D02*
X31600Y-29400D01*
X32000Y-27500D02*
X31800Y-27500D01*
X29000Y-27500D02*
X29200Y-27500D01*
X29200Y-27500D02*
X29200Y-27900D01*
X29200Y-27900D02*
X31800Y-27900D01*
X31800Y-27900D02*
X31800Y-27100D01*
X31800Y-27100D02*
X29200Y-27100D01*
X29200Y-27100D02*
X29200Y-27500D01*
X31800Y-27700D02*
X31600Y-27900D01*
X39000Y-22500D02*
X39200Y-22500D01*
X42000Y-22500D02*
X41800Y-22500D01*
X41800Y-22500D02*
X41800Y-22100D01*
X41800Y-22100D02*
X39200Y-22100D01*
X39200Y-22100D02*
X39200Y-22900D01*
X39200Y-22900D02*
X41800Y-22900D01*
X41800Y-22900D02*
X41800Y-22500D01*
X39200Y-22300D02*
X39400Y-22100D01*
X32000Y-24000D02*
X31800Y-24000D01*
X29000Y-24000D02*
X29200Y-24000D01*
X29200Y-24000D02*
X29200Y-24400D01*
X29200Y-24400D02*
X31800Y-24400D01*
X31800Y-24400D02*
X31800Y-23600D01*
X31800Y-23600D02*
X29200Y-23600D01*
X29200Y-23600D02*
X29200Y-24000D01*
X31800Y-24200D02*
X31600Y-24400D01*
X32000Y-25500D02*
X31800Y-25500D01*
X29000Y-25500D02*
X29200Y-25500D01*
X29200Y-25500D02*
X29200Y-25900D01*
X29200Y-25900D02*
X31800Y-25900D01*
X31800Y-25900D02*
X31800Y-25100D01*
X31800Y-25100D02*
X29200Y-25100D01*
X29200Y-25100D02*
X29200Y-25500D01*
X31800Y-25700D02*
X31600Y-25900D01*
X17500Y-19000D02*
X17300Y-19000D01*
X14500Y-19000D02*
X14700Y-19000D01*
X14700Y-19000D02*
X14700Y-19400D01*
X14700Y-19400D02*
X17300Y-19400D01*
X17300Y-19400D02*
X17300Y-18600D01*
X17300Y-18600D02*
X14700Y-18600D01*
X14700Y-18600D02*
X14700Y-19000D01*
X17300Y-19200D02*
X17100Y-19400D01*
X39000Y-25500D02*
X39200Y-25500D01*
X42000Y-25500D02*
X41800Y-25500D01*
X41800Y-25500D02*
X41800Y-25100D01*
X41800Y-25100D02*
X39200Y-25100D01*
X39200Y-25100D02*
X39200Y-25900D01*
X39200Y-25900D02*
X41800Y-25900D01*
X41800Y-25900D02*
X41800Y-25500D01*
X39200Y-25300D02*
X39400Y-25100D01*
X14500Y-16000D02*
X14700Y-16000D01*
X17500Y-16000D02*
X17300Y-16000D01*
X17300Y-16000D02*
X17300Y-15600D01*
X17300Y-15600D02*
X14700Y-15600D01*
X14700Y-15600D02*
X14700Y-16400D01*
X14700Y-16400D02*
X17300Y-16400D01*
X17300Y-16400D02*
X17300Y-16000D01*
X14700Y-15800D02*
X14900Y-15600D01*
X14500Y-17500D02*
X14700Y-17500D01*
X17500Y-17500D02*
X17300Y-17500D01*
X17300Y-17500D02*
X17300Y-17100D01*
X17300Y-17100D02*
X14700Y-17100D01*
X14700Y-17100D02*
X14700Y-17900D01*
X14700Y-17900D02*
X17300Y-17900D01*
X17300Y-17900D02*
X17300Y-17500D01*
X14700Y-17300D02*
X14900Y-17100D01*
X11000Y-31000D02*
X11000Y-30800D01*
X11000Y-28000D02*
X11000Y-28200D01*
X11000Y-28200D02*
X10600Y-28200D01*
X10600Y-28200D02*
X10600Y-30800D01*
X10600Y-30800D02*
X11400Y-30800D01*
X11400Y-30800D02*
X11400Y-28200D01*
X11400Y-28200D02*
X11000Y-28200D01*
X10800Y-30800D02*
X10600Y-30600D01*
X24000Y-15500D02*
X23800Y-15500D01*
X21000Y-15500D02*
X21200Y-15500D01*
X21200Y-15500D02*
X21200Y-15900D01*
X21200Y-15900D02*
X23800Y-15900D01*
X23800Y-15900D02*
X23800Y-15100D01*
X23800Y-15100D02*
X21200Y-15100D01*
X21200Y-15100D02*
X21200Y-15500D01*
X23800Y-15700D02*
X23600Y-15900D01*
X21500Y-11500D02*
X21500Y-11700D01*
X21500Y-14500D02*
X21500Y-14300D01*
X21500Y-14300D02*
X21900Y-14300D01*
X21900Y-14300D02*
X21900Y-11700D01*
X21900Y-11700D02*
X21100Y-11700D01*
X21100Y-11700D02*
X21100Y-14300D01*
X21100Y-14300D02*
X21500Y-14300D01*
X21700Y-11700D02*
X21900Y-11900D01*
X26000Y-11500D02*
X26000Y-11700D01*
X26000Y-14500D02*
X26000Y-14300D01*
X26000Y-14300D02*
X26400Y-14300D01*
X26400Y-14300D02*
X26400Y-11700D01*
X26400Y-11700D02*
X25600Y-11700D01*
X25600Y-11700D02*
X25600Y-14300D01*
X25600Y-14300D02*
X26000Y-14300D01*
X26200Y-11700D02*
X26400Y-11900D01*
X24500Y-14500D02*
X24500Y-14300D01*
X24500Y-11500D02*
X24500Y-11700D01*
X24500Y-11700D02*
X24100Y-11700D01*
X24100Y-11700D02*
X24100Y-14300D01*
X24100Y-14300D02*
X24900Y-14300D01*
X24900Y-14300D02*
X24900Y-11700D01*
X24900Y-11700D02*
X24500Y-11700D01*
X24300Y-14300D02*
X24100Y-14100D01*
X16000Y-32000D02*
X16200Y-32000D01*
X19000Y-32000D02*
X18800Y-32000D01*
X18800Y-32000D02*
X18800Y-31600D01*
X18800Y-31600D02*
X16200Y-31600D01*
X16200Y-31600D02*
X16200Y-32400D01*
X16200Y-32400D02*
X18800Y-32400D01*
X18800Y-32400D02*
X18800Y-32000D01*
X16200Y-31800D02*
X16400Y-31600D01*
X42000Y-24000D02*
X41800Y-24000D01*
X39000Y-24000D02*
X39200Y-24000D01*
X39200Y-24000D02*
X39200Y-24400D01*
X39200Y-24400D02*
X41800Y-24400D01*
X41800Y-24400D02*
X41800Y-23600D01*
X41800Y-23600D02*
X39200Y-23600D01*
X39200Y-23600D02*
X39200Y-24000D01*
X41800Y-24200D02*
X41600Y-24400D01*
G54D15*
X10500Y-21000D02*
X10500Y-18000D01*
X12500Y-18000D02*
X12500Y-21000D01*
X12500Y-21000D02*
X10500Y-21000D01*
X10500Y-18000D02*
X12500Y-18000D01*
G54D10*
X12500Y-14000D02*
X11500Y-14000D01*
X11500Y-14000D02*
X11500Y-11000D01*
X11500Y-11000D02*
X12500Y-11000D01*
X12500Y-11000D02*
X12500Y-14000D01*
X11500Y-13000D02*
X12500Y-13000D01*
X11500Y-15000D02*
X12500Y-15000D01*
X12500Y-15000D02*
X12500Y-17000D01*
X12500Y-17000D02*
X11500Y-17000D01*
X11500Y-17000D02*
X11500Y-15000D01*
G54D12*
X13280Y-31500D02*
X13280Y-32500D01*
G54D10*
X14360Y-32384D02*
X14392Y-32342D01*
X14420Y-32298D01*
X14444Y-32251D01*
X14464Y-32203D01*
X14480Y-32153D01*
X14491Y-32102D01*
X14497Y-32050D01*
X14500Y-32000D01*
X14499Y-32000D02*
X14496Y-31948D01*
X14489Y-31896D01*
X14478Y-31845D01*
X14462Y-31796D01*
X14442Y-31747D01*
X14418Y-31701D01*
X14390Y-31657D01*
X14358Y-31615D01*
X14347Y-31603D01*
X13301Y-32000D02*
X13304Y-32052D01*
X13311Y-32104D01*
X13322Y-32155D01*
X13338Y-32204D01*
X13358Y-32253D01*
X13382Y-32299D01*
X13410Y-32343D01*
X13442Y-32385D01*
X13446Y-32389D01*
X13440Y-31616D02*
X13408Y-31658D01*
X13380Y-31702D01*
X13356Y-31749D01*
X13336Y-31797D01*
X13320Y-31847D01*
X13309Y-31898D01*
X13303Y-31950D01*
X13300Y-32000D01*
X13413Y-32349D02*
X13445Y-32390D01*
X13481Y-32428D01*
X13520Y-32463D01*
X13562Y-32495D01*
X13606Y-32522D01*
X13653Y-32546D01*
X13701Y-32565D01*
X13751Y-32581D01*
X13803Y-32591D01*
X13854Y-32598D01*
X13900Y-32600D01*
X13900Y-32600D02*
X13952Y-32597D01*
X14004Y-32590D01*
X14055Y-32579D01*
X14105Y-32563D01*
X14153Y-32543D01*
X14200Y-32519D01*
X14244Y-32491D01*
X14285Y-32459D01*
X14324Y-32424D01*
X14359Y-32385D01*
X14379Y-32360D01*
X13900Y-31401D02*
X13848Y-31404D01*
X13796Y-31411D01*
X13745Y-31422D01*
X13696Y-31438D01*
X13647Y-31458D01*
X13601Y-31482D01*
X13557Y-31510D01*
X13515Y-31542D01*
X13477Y-31577D01*
X13442Y-31615D01*
X13428Y-31633D01*
X14373Y-31632D02*
X14339Y-31592D01*
X14302Y-31555D01*
X14261Y-31522D01*
X14218Y-31492D01*
X14173Y-31466D01*
X14125Y-31445D01*
X14076Y-31427D01*
X14025Y-31414D01*
X13974Y-31405D01*
X13921Y-31401D01*
X13900Y-31400D01*
X13900Y-32250D02*
X13921Y-32249D01*
X13943Y-32246D01*
X13964Y-32241D01*
X13985Y-32234D01*
X14005Y-32226D01*
X14025Y-32216D01*
X14043Y-32204D01*
X14060Y-32191D01*
X14076Y-32176D01*
X14091Y-32160D01*
X14104Y-32143D01*
X14116Y-32124D01*
X14126Y-32105D01*
X14134Y-32085D01*
X14141Y-32064D01*
X14146Y-32043D01*
X14149Y-32021D01*
X14150Y-32000D01*
X13900Y-32400D02*
X13934Y-32398D01*
X13969Y-32393D01*
X14003Y-32386D01*
X14036Y-32375D01*
X14069Y-32362D01*
X14100Y-32346D01*
X14129Y-32327D01*
X14157Y-32306D01*
X14182Y-32282D01*
X14206Y-32257D01*
X14227Y-32229D01*
X14246Y-32199D01*
X14262Y-32169D01*
X14275Y-32136D01*
X14286Y-32103D01*
X14293Y-32069D01*
X14298Y-32034D01*
X14300Y-32000D01*
X13900Y-31750D02*
X13879Y-31751D01*
X13857Y-31754D01*
X13836Y-31759D01*
X13815Y-31766D01*
X13795Y-31774D01*
X13776Y-31784D01*
X13757Y-31796D01*
X13740Y-31809D01*
X13724Y-31824D01*
X13709Y-31840D01*
X13696Y-31857D01*
X13684Y-31876D01*
X13674Y-31895D01*
X13666Y-31915D01*
X13659Y-31936D01*
X13654Y-31957D01*
X13651Y-31979D01*
X13650Y-32000D01*
X13900Y-31600D02*
X13866Y-31602D01*
X13831Y-31607D01*
X13797Y-31614D01*
X13764Y-31625D01*
X13731Y-31638D01*
X13701Y-31654D01*
X13671Y-31673D01*
X13643Y-31694D01*
X13618Y-31718D01*
X13594Y-31743D01*
X13573Y-31771D01*
X13554Y-31801D01*
X13538Y-31831D01*
X13525Y-31864D01*
X13514Y-31897D01*
X13507Y-31931D01*
X13502Y-31966D01*
X13500Y-32000D01*
G54D12*
X13287Y-32513D02*
X13334Y-32564D01*
X13385Y-32611D01*
X13440Y-32654D01*
X13499Y-32692D01*
X13561Y-32724D01*
X13626Y-32751D01*
X13692Y-32772D01*
X13760Y-32787D01*
X13829Y-32796D01*
X13899Y-32799D01*
X13900Y-32800D01*
X13900Y-32799D02*
X13969Y-32795D01*
X14038Y-32786D01*
X14106Y-32771D01*
X14173Y-32750D01*
X14237Y-32724D01*
X14299Y-32691D01*
X14358Y-32654D01*
X14413Y-32612D01*
X14464Y-32564D01*
X14512Y-32513D01*
X14554Y-32458D01*
X14591Y-32399D01*
X14604Y-32376D01*
X13899Y-31203D02*
X13830Y-31206D01*
X13761Y-31215D01*
X13693Y-31230D01*
X13626Y-31251D01*
X13562Y-31278D01*
X13500Y-31310D01*
X13442Y-31348D01*
X13386Y-31390D01*
X13335Y-31437D01*
X13291Y-31485D01*
X14594Y-31603D02*
X14556Y-31544D01*
X14514Y-31488D01*
X14467Y-31437D01*
X14416Y-31389D01*
X14361Y-31347D01*
X14302Y-31309D01*
X14240Y-31277D01*
X14176Y-31250D01*
X14109Y-31228D01*
X14041Y-31213D01*
X13972Y-31204D01*
X13902Y-31201D01*
X13900Y-31200D01*
X14604Y-32379D02*
X14634Y-32316D01*
X14659Y-32251D01*
X14678Y-32184D01*
X14691Y-32115D01*
X14698Y-32046D01*
X14700Y-32000D01*
X14699Y-32000D02*
X14695Y-31931D01*
X14686Y-31862D01*
X14671Y-31794D01*
X14650Y-31727D01*
X14624Y-31663D01*
X14591Y-31601D01*
X14580Y-31582D01*
G54D16*
X18500Y-27750D02*
X18500Y-25250D01*
X16500Y-27750D02*
X16500Y-25250D01*
X17500Y-24250D02*
X17413Y-24254D01*
X17327Y-24266D01*
X17242Y-24285D01*
X17158Y-24311D01*
X17078Y-24344D01*
X17001Y-24384D01*
X16927Y-24431D01*
X16858Y-24484D01*
X16793Y-24543D01*
X16734Y-24608D01*
X16681Y-24677D01*
X16634Y-24751D01*
X16594Y-24828D01*
X16561Y-24908D01*
X16535Y-24992D01*
X16516Y-25077D01*
X16504Y-25163D01*
X16500Y-25250D01*
X18500Y-25250D02*
X18496Y-25163D01*
X18484Y-25077D01*
X18465Y-24992D01*
X18439Y-24908D01*
X18406Y-24828D01*
X18366Y-24751D01*
X18319Y-24677D01*
X18266Y-24608D01*
X18207Y-24543D01*
X18142Y-24484D01*
X18073Y-24431D01*
X18000Y-24384D01*
X17922Y-24344D01*
X17842Y-24311D01*
X17758Y-24285D01*
X17673Y-24266D01*
X17587Y-24254D01*
X17500Y-24250D01*
X16500Y-27750D02*
X16504Y-27837D01*
X16516Y-27923D01*
X16535Y-28008D01*
X16561Y-28092D01*
X16594Y-28172D01*
X16634Y-28249D01*
X16681Y-28323D01*
X16734Y-28392D01*
X16793Y-28457D01*
X16858Y-28516D01*
X16927Y-28569D01*
X17001Y-28616D01*
X17078Y-28656D01*
X17158Y-28689D01*
X17242Y-28715D01*
X17327Y-28734D01*
X17413Y-28746D01*
X17500Y-28750D01*
X17500Y-28750D02*
X17587Y-28746D01*
X17673Y-28734D01*
X17758Y-28715D01*
X17842Y-28689D01*
X17922Y-28656D01*
X18000Y-28616D01*
X18073Y-28569D01*
X18142Y-28516D01*
X18207Y-28457D01*
X18266Y-28392D01*
X18319Y-28323D01*
X18366Y-28249D01*
X18406Y-28172D01*
X18439Y-28092D01*
X18465Y-28008D01*
X18484Y-27923D01*
X18496Y-27837D01*
X18500Y-27750D01*
G54D14*
X58050Y-14900D02*
X58050Y-16150D01*
X58050Y-16150D02*
X58750Y-16150D01*
X58750Y-16150D02*
X58750Y-14900D01*
X56250Y-14900D02*
X56250Y-16150D01*
X56250Y-16150D02*
X56950Y-16150D01*
X56950Y-16150D02*
X56950Y-14900D01*
X58850Y-12500D02*
X58850Y-14900D01*
X58850Y-14900D02*
X56150Y-14900D01*
X56150Y-14900D02*
X56150Y-11800D01*
X56150Y-11750D02*
X58850Y-11750D01*
X58850Y-11800D02*
X58850Y-12500D01*
X54550Y-24900D02*
X54550Y-26150D01*
X54550Y-26150D02*
X55250Y-26150D01*
X55250Y-26150D02*
X55250Y-24900D01*
X52750Y-24900D02*
X52750Y-26150D01*
X52750Y-26150D02*
X53450Y-26150D01*
X53450Y-26150D02*
X53450Y-24900D01*
X55350Y-22500D02*
X55350Y-24900D01*
X55350Y-24900D02*
X52650Y-24900D01*
X52650Y-24900D02*
X52650Y-21800D01*
X52650Y-21750D02*
X55350Y-21750D01*
X55350Y-21800D02*
X55350Y-22500D01*
X58050Y-26900D02*
X58050Y-28150D01*
X58050Y-28150D02*
X58750Y-28150D01*
X58750Y-28150D02*
X58750Y-26900D01*
X56250Y-26900D02*
X56250Y-28150D01*
X56250Y-28150D02*
X56950Y-28150D01*
X56950Y-28150D02*
X56950Y-26900D01*
X58850Y-24500D02*
X58850Y-26900D01*
X58850Y-26900D02*
X56150Y-26900D01*
X56150Y-26900D02*
X56150Y-23800D01*
X56150Y-23750D02*
X58850Y-23750D01*
X58850Y-23800D02*
X58850Y-24500D01*
X54550Y-18900D02*
X54550Y-20150D01*
X54550Y-20150D02*
X55250Y-20150D01*
X55250Y-20150D02*
X55250Y-18900D01*
X52750Y-18900D02*
X52750Y-20150D01*
X52750Y-20150D02*
X53450Y-20150D01*
X53450Y-20150D02*
X53450Y-18900D01*
X55350Y-16500D02*
X55350Y-18900D01*
X55350Y-18900D02*
X52650Y-18900D01*
X52650Y-18900D02*
X52650Y-15800D01*
X52650Y-15750D02*
X55350Y-15750D01*
X55350Y-15800D02*
X55350Y-16500D01*
X58050Y-20900D02*
X58050Y-22150D01*
X58050Y-22150D02*
X58750Y-22150D01*
X58750Y-22150D02*
X58750Y-20900D01*
X56250Y-20900D02*
X56250Y-22150D01*
X56250Y-22150D02*
X56950Y-22150D01*
X56950Y-22150D02*
X56950Y-20900D01*
X58850Y-18500D02*
X58850Y-20900D01*
X58850Y-20900D02*
X56150Y-20900D01*
X56150Y-20900D02*
X56150Y-17800D01*
X56150Y-17750D02*
X58850Y-17750D01*
X58850Y-17800D02*
X58850Y-18500D01*
X54550Y-12900D02*
X54550Y-14150D01*
X54550Y-14150D02*
X55250Y-14150D01*
X55250Y-14150D02*
X55250Y-12900D01*
X52750Y-12900D02*
X52750Y-14150D01*
X52750Y-14150D02*
X53450Y-14150D01*
X53450Y-14150D02*
X53450Y-12900D01*
X55350Y-10500D02*
X55350Y-12900D01*
X55350Y-12900D02*
X52650Y-12900D01*
X52650Y-12900D02*
X52650Y-09800D01*
X52650Y-09750D02*
X55350Y-09750D01*
X55350Y-09800D02*
X55350Y-10500D01*
G54D16*
X46000Y-24500D02*
X45500Y-24500D01*
X49000Y-24500D02*
X49500Y-24500D01*
X49000Y-24500D02*
X48700Y-24500D01*
G54D13*
X48700Y-24500D02*
X48700Y-24100D01*
X48700Y-24100D02*
X46300Y-24100D01*
X46300Y-24100D02*
X46300Y-24500D01*
X46300Y-24500D02*
X46000Y-24500D01*
X46300Y-24500D02*
X46300Y-24900D01*
X46300Y-24900D02*
X48700Y-24900D01*
X48700Y-24900D02*
X48700Y-24500D01*
X48500Y-24100D02*
X48500Y-24900D01*
X48400Y-24900D02*
X48400Y-24100D01*
G54D16*
X46000Y-18000D02*
X45500Y-18000D01*
X49000Y-18000D02*
X49500Y-18000D01*
X49000Y-18000D02*
X48700Y-18000D01*
G54D13*
X48700Y-18000D02*
X48700Y-17600D01*
X48700Y-17600D02*
X46300Y-17600D01*
X46300Y-17600D02*
X46300Y-18000D01*
X46300Y-18000D02*
X46000Y-18000D01*
X46300Y-18000D02*
X46300Y-18400D01*
X46300Y-18400D02*
X48700Y-18400D01*
X48700Y-18400D02*
X48700Y-18000D01*
X48500Y-17600D02*
X48500Y-18400D01*
X48400Y-18400D02*
X48400Y-17600D01*
G54D16*
X46000Y-11000D02*
X45500Y-11000D01*
X49000Y-11000D02*
X49500Y-11000D01*
X49000Y-11000D02*
X48700Y-11000D01*
G54D13*
X48700Y-11000D02*
X48700Y-10600D01*
X48700Y-10600D02*
X46300Y-10600D01*
X46300Y-10600D02*
X46300Y-11000D01*
X46300Y-11000D02*
X46000Y-11000D01*
X46300Y-11000D02*
X46300Y-11400D01*
X46300Y-11400D02*
X48700Y-11400D01*
X48700Y-11400D02*
X48700Y-11000D01*
X48500Y-10600D02*
X48500Y-11400D01*
X48400Y-11400D02*
X48400Y-10600D01*
G54D11*
X23500Y-17000D02*
X23500Y-32000D01*
X23500Y-32000D02*
X21500Y-32000D01*
X21500Y-32000D02*
X21500Y-17000D01*
X21500Y-17000D02*
X23500Y-17000D01*
X23000Y-17000D02*
X23000Y-17500D01*
X23000Y-17500D02*
X22000Y-17500D01*
X22000Y-17500D02*
X22000Y-17000D01*
X36500Y-22500D02*
X36500Y-30500D01*
X34500Y-30500D02*
X34500Y-22500D01*
X34500Y-22500D02*
X36500Y-22500D01*
X36000Y-22500D02*
X36000Y-23000D01*
X36000Y-23000D02*
X35000Y-23000D01*
X35000Y-23000D02*
X35000Y-22500D01*
X36500Y-30500D02*
X34500Y-30500D01*
G54D13*
X15100Y-25400D02*
X15100Y-22600D01*
X15100Y-22600D02*
X15900Y-22600D01*
X15900Y-22600D02*
X15900Y-25400D01*
X15900Y-25400D02*
X15100Y-25400D01*
X15300Y-25400D02*
X15100Y-25200D01*
X16900Y-13400D02*
X14100Y-13400D01*
X14100Y-13400D02*
X14100Y-12600D01*
X14100Y-12600D02*
X16900Y-12600D01*
X16900Y-12600D02*
X16900Y-13400D01*
X16900Y-13200D02*
X16700Y-13400D01*
X12900Y-27600D02*
X12900Y-30400D01*
X12900Y-30400D02*
X12100Y-30400D01*
X12100Y-30400D02*
X12100Y-27600D01*
X12100Y-27600D02*
X12900Y-27600D01*
X12700Y-27600D02*
X12900Y-27800D01*
X27100Y-25400D02*
X27100Y-22600D01*
X27100Y-22600D02*
X27900Y-22600D01*
X27900Y-22600D02*
X27900Y-25400D01*
X27900Y-25400D02*
X27100Y-25400D01*
X27300Y-25400D02*
X27100Y-25200D01*
X25600Y-26400D02*
X25600Y-23600D01*
X25600Y-23600D02*
X26400Y-23600D01*
X26400Y-23600D02*
X26400Y-26400D01*
X26400Y-26400D02*
X25600Y-26400D01*
X25800Y-26400D02*
X25600Y-26200D01*
X17600Y-23400D02*
X17600Y-20600D01*
X17600Y-20600D02*
X18400Y-20600D01*
X18400Y-20600D02*
X18400Y-23400D01*
X18400Y-23400D02*
X17600Y-23400D01*
X17800Y-23400D02*
X17600Y-23200D01*
X41900Y-32400D02*
X39100Y-32400D01*
X39100Y-32400D02*
X39100Y-31600D01*
X39100Y-31600D02*
X41900Y-31600D01*
X41900Y-31600D02*
X41900Y-32400D01*
X41900Y-32200D02*
X41700Y-32400D01*
X34100Y-31600D02*
X36900Y-31600D01*
X36900Y-31600D02*
X36900Y-32400D01*
X36900Y-32400D02*
X34100Y-32400D01*
X34100Y-32400D02*
X34100Y-31600D01*
X34100Y-31800D02*
X34300Y-31600D01*
X29100Y-30100D02*
X31900Y-30100D01*
X31900Y-30100D02*
X31900Y-30900D01*
X31900Y-30900D02*
X29100Y-30900D01*
X29100Y-30900D02*
X29100Y-30100D01*
X29100Y-30300D02*
X29300Y-30100D01*
X41900Y-21400D02*
X39100Y-21400D01*
X39100Y-21400D02*
X39100Y-20600D01*
X39100Y-20600D02*
X41900Y-20600D01*
X41900Y-20600D02*
X41900Y-21400D01*
X41900Y-21200D02*
X41700Y-21400D01*
X29100Y-22100D02*
X31900Y-22100D01*
X31900Y-22100D02*
X31900Y-22900D01*
X31900Y-22900D02*
X29100Y-22900D01*
X29100Y-22900D02*
X29100Y-22100D01*
X29100Y-22300D02*
X29300Y-22100D01*
X15900Y-27600D02*
X15900Y-30400D01*
X15900Y-30400D02*
X15100Y-30400D01*
X15100Y-30400D02*
X15100Y-27600D01*
X15100Y-27600D02*
X15900Y-27600D01*
X15700Y-27600D02*
X15900Y-27800D01*
X31900Y-21400D02*
X29100Y-21400D01*
X29100Y-21400D02*
X29100Y-20600D01*
X29100Y-20600D02*
X31900Y-20600D01*
X31900Y-20600D02*
X31900Y-21400D01*
X31900Y-21200D02*
X31700Y-21400D01*
X22600Y-14400D02*
X22600Y-11600D01*
X22600Y-11600D02*
X23400Y-11600D01*
X23400Y-11600D02*
X23400Y-14400D01*
X23400Y-14400D02*
X22600Y-14400D01*
X22800Y-14400D02*
X22600Y-14200D01*
X44900Y-11600D02*
X44900Y-14400D01*
X44900Y-14400D02*
X44100Y-14400D01*
X44100Y-14400D02*
X44100Y-11600D01*
X44100Y-11600D02*
X44900Y-11600D01*
X44700Y-11600D02*
X44900Y-11800D01*
X51400Y-10600D02*
X51400Y-13400D01*
X51400Y-13400D02*
X50600Y-13400D01*
X50600Y-13400D02*
X50600Y-10600D01*
X50600Y-10600D02*
X51400Y-10600D01*
X51200Y-10600D02*
X51400Y-10800D01*
X44900Y-18600D02*
X44900Y-21400D01*
X44900Y-21400D02*
X44100Y-21400D01*
X44100Y-21400D02*
X44100Y-18600D01*
X44100Y-18600D02*
X44900Y-18600D01*
X44700Y-18600D02*
X44900Y-18800D01*
X51400Y-17600D02*
X51400Y-20400D01*
X51400Y-20400D02*
X50600Y-20400D01*
X50600Y-20400D02*
X50600Y-17600D01*
X50600Y-17600D02*
X51400Y-17600D01*
X51200Y-17600D02*
X51400Y-17800D01*
X44900Y-24100D02*
X44900Y-26900D01*
X44900Y-26900D02*
X44100Y-26900D01*
X44100Y-26900D02*
X44100Y-24100D01*
X44100Y-24100D02*
X44900Y-24100D01*
X44700Y-24100D02*
X44900Y-24300D01*
X51400Y-24100D02*
X51400Y-26900D01*
X51400Y-26900D02*
X50600Y-26900D01*
X50600Y-26900D02*
X50600Y-24100D01*
X50600Y-24100D02*
X51400Y-24100D01*
X51200Y-24100D02*
X51400Y-24300D01*
X16900Y-11400D02*
X14100Y-11400D01*
X14100Y-11400D02*
X14100Y-10600D01*
X14100Y-10600D02*
X16900Y-10600D01*
X16900Y-10600D02*
X16900Y-11400D01*
X16900Y-11200D02*
X16700Y-11400D01*
G54D11*
X34000Y-18500D02*
X26000Y-18500D01*
X26000Y-16500D02*
X34000Y-16500D01*
X34000Y-16500D02*
X34000Y-18500D01*
X34000Y-18000D02*
X33500Y-18000D01*
X33500Y-18000D02*
X33500Y-17000D01*
X33500Y-17000D02*
X34000Y-17000D01*
X26000Y-18500D02*
X26000Y-16500D01*
G54D10*
X19355Y-11955D02*
X19355Y-12445D01*
X19845Y-12445D01*
X19845Y-11955D01*
X19355Y-11955D01*
X18845Y-12200D02*
X18840Y-12247D01*
X18826Y-12293D01*
X18804Y-12335D01*
X18773Y-12372D01*
X18737Y-12403D01*
X18694Y-12425D01*
X18649Y-12439D01*
X18601Y-12444D01*
X18555Y-12440D01*
X18509Y-12427D01*
X18466Y-12405D01*
X18429Y-12375D01*
X18398Y-12338D01*
X18375Y-12296D01*
X18361Y-12250D01*
X18356Y-12203D01*
X18360Y-12156D01*
X18373Y-12110D01*
X18395Y-12068D01*
X18424Y-12030D01*
X18461Y-11999D01*
X18502Y-11976D01*
X18548Y-11961D01*
X18595Y-11956D01*
X18642Y-11959D01*
X18688Y-11972D01*
X18731Y-11994D01*
X18768Y-12023D01*
X18800Y-12059D01*
X18823Y-12101D01*
X18838Y-12146D01*
X18844Y-12194D01*
X18845Y-12200D01*
X18845Y-13200D02*
X18840Y-13247D01*
X18826Y-13293D01*
X18804Y-13335D01*
X18773Y-13372D01*
X18737Y-13403D01*
X18694Y-13425D01*
X18649Y-13439D01*
X18601Y-13444D01*
X18555Y-13440D01*
X18509Y-13427D01*
X18466Y-13405D01*
X18429Y-13375D01*
X18398Y-13338D01*
X18375Y-13296D01*
X18361Y-13250D01*
X18356Y-13203D01*
X18360Y-13156D01*
X18373Y-13110D01*
X18395Y-13068D01*
X18424Y-13030D01*
X18461Y-12999D01*
X18502Y-12976D01*
X18548Y-12961D01*
X18595Y-12956D01*
X18642Y-12959D01*
X18688Y-12972D01*
X18731Y-12994D01*
X18768Y-13023D01*
X18800Y-13059D01*
X18823Y-13101D01*
X18838Y-13146D01*
X18844Y-13194D01*
X18845Y-13200D01*
X22255Y-08755D02*
X22255Y-09245D01*
X22745Y-09245D01*
X22745Y-08755D01*
X22255Y-08755D01*
X21745Y-09000D02*
X21740Y-09047D01*
X21726Y-09093D01*
X21704Y-09135D01*
X21673Y-09172D01*
X21637Y-09203D01*
X21594Y-09225D01*
X21549Y-09239D01*
X21501Y-09244D01*
X21455Y-09240D01*
X21409Y-09227D01*
X21366Y-09205D01*
X21329Y-09175D01*
X21298Y-09138D01*
X21275Y-09096D01*
X21261Y-09050D01*
X21256Y-09003D01*
X21260Y-08956D01*
X21273Y-08910D01*
X21295Y-08868D01*
X21324Y-08830D01*
X21361Y-08799D01*
X21402Y-08776D01*
X21448Y-08761D01*
X21495Y-08756D01*
X21542Y-08759D01*
X21588Y-08772D01*
X21631Y-08794D01*
X21668Y-08823D01*
X21700Y-08859D01*
X21723Y-08901D01*
X21738Y-08946D01*
X21744Y-08994D01*
X21745Y-09000D01*
X21745Y-10000D02*
X21740Y-10047D01*
X21726Y-10093D01*
X21704Y-10135D01*
X21673Y-10172D01*
X21637Y-10203D01*
X21594Y-10225D01*
X21549Y-10239D01*
X21501Y-10244D01*
X21455Y-10240D01*
X21409Y-10227D01*
X21366Y-10205D01*
X21329Y-10175D01*
X21298Y-10138D01*
X21275Y-10096D01*
X21261Y-10050D01*
X21256Y-10003D01*
X21260Y-09956D01*
X21273Y-09910D01*
X21295Y-09868D01*
X21324Y-09830D01*
X21361Y-09799D01*
X21402Y-09776D01*
X21448Y-09761D01*
X21495Y-09756D01*
X21542Y-09759D01*
X21588Y-09772D01*
X21631Y-09794D01*
X21668Y-09823D01*
X21700Y-09859D01*
X21723Y-09901D01*
X21738Y-09946D01*
X21744Y-09994D01*
X21745Y-10000D01*
X10745Y-23000D02*
X10740Y-23047D01*
X10726Y-23093D01*
X10704Y-23135D01*
X10673Y-23172D01*
X10637Y-23203D01*
X10594Y-23225D01*
X10549Y-23239D01*
X10501Y-23244D01*
X10455Y-23240D01*
X10409Y-23227D01*
X10366Y-23205D01*
X10329Y-23175D01*
X10298Y-23138D01*
X10275Y-23096D01*
X10261Y-23050D01*
X10256Y-23003D01*
X10260Y-22956D01*
X10273Y-22910D01*
X10295Y-22868D01*
X10324Y-22830D01*
X10361Y-22799D01*
X10402Y-22776D01*
X10448Y-22761D01*
X10495Y-22756D01*
X10542Y-22759D01*
X10588Y-22772D01*
X10631Y-22794D01*
X10668Y-22823D01*
X10700Y-22859D01*
X10723Y-22901D01*
X10738Y-22946D01*
X10744Y-22994D01*
X10745Y-23000D01*
X12745Y-23000D02*
X12740Y-23047D01*
X12726Y-23093D01*
X12704Y-23135D01*
X12673Y-23172D01*
X12637Y-23203D01*
X12594Y-23225D01*
X12549Y-23239D01*
X12501Y-23244D01*
X12455Y-23240D01*
X12409Y-23227D01*
X12366Y-23205D01*
X12329Y-23175D01*
X12298Y-23138D01*
X12275Y-23096D01*
X12261Y-23050D01*
X12256Y-23003D01*
X12260Y-22956D01*
X12273Y-22910D01*
X12295Y-22868D01*
X12324Y-22830D01*
X12361Y-22799D01*
X12402Y-22776D01*
X12448Y-22761D01*
X12495Y-22756D01*
X12542Y-22759D01*
X12588Y-22772D01*
X12631Y-22794D01*
X12668Y-22823D01*
X12700Y-22859D01*
X12723Y-22901D01*
X12738Y-22946D01*
X12744Y-22994D01*
X12745Y-23000D01*
X10745Y-26000D02*
X10740Y-26047D01*
X10726Y-26093D01*
X10704Y-26135D01*
X10673Y-26172D01*
X10637Y-26203D01*
X10594Y-26225D01*
X10549Y-26239D01*
X10501Y-26244D01*
X10455Y-26240D01*
X10409Y-26227D01*
X10366Y-26205D01*
X10329Y-26175D01*
X10298Y-26138D01*
X10275Y-26096D01*
X10261Y-26050D01*
X10256Y-26003D01*
X10260Y-25956D01*
X10273Y-25910D01*
X10295Y-25868D01*
X10324Y-25830D01*
X10361Y-25799D01*
X10402Y-25776D01*
X10448Y-25761D01*
X10495Y-25756D01*
X10542Y-25759D01*
X10588Y-25772D01*
X10631Y-25794D01*
X10668Y-25823D01*
X10700Y-25859D01*
X10723Y-25901D01*
X10738Y-25946D01*
X10744Y-25994D01*
X10745Y-26000D01*
X12745Y-26000D02*
X12740Y-26047D01*
X12726Y-26093D01*
X12704Y-26135D01*
X12673Y-26172D01*
X12637Y-26203D01*
X12594Y-26225D01*
X12549Y-26239D01*
X12501Y-26244D01*
X12455Y-26240D01*
X12409Y-26227D01*
X12366Y-26205D01*
X12329Y-26175D01*
X12298Y-26138D01*
X12275Y-26096D01*
X12261Y-26050D01*
X12256Y-26003D01*
X12260Y-25956D01*
X12273Y-25910D01*
X12295Y-25868D01*
X12324Y-25830D01*
X12361Y-25799D01*
X12402Y-25776D01*
X12448Y-25761D01*
X12495Y-25756D01*
X12542Y-25759D01*
X12588Y-25772D01*
X12631Y-25794D01*
X12668Y-25823D01*
X12700Y-25859D01*
X12723Y-25901D01*
X12738Y-25946D01*
X12744Y-25994D01*
X12745Y-26000D01*
X54770Y-31000D02*
X54764Y-31052D01*
X54749Y-31102D01*
X54724Y-31149D01*
X54691Y-31190D01*
X54650Y-31223D01*
X54604Y-31248D01*
X54554Y-31264D01*
X54501Y-31269D01*
X54450Y-31265D01*
X54399Y-31250D01*
X54353Y-31225D01*
X54312Y-31192D01*
X54278Y-31152D01*
X54252Y-31106D01*
X54236Y-31056D01*
X54231Y-31003D01*
X54235Y-30952D01*
X54249Y-30901D01*
X54274Y-30854D01*
X54306Y-30813D01*
X54346Y-30779D01*
X54392Y-30753D01*
X54443Y-30737D01*
X54495Y-30731D01*
X54546Y-30735D01*
X54597Y-30749D01*
X54644Y-30773D01*
X54686Y-30805D01*
X54720Y-30845D01*
X54746Y-30891D01*
X54763Y-30941D01*
X54769Y-30993D01*
X54770Y-31000D01*
X49770Y-31000D02*
X49764Y-31052D01*
X49749Y-31102D01*
X49724Y-31149D01*
X49691Y-31190D01*
X49650Y-31223D01*
X49604Y-31248D01*
X49554Y-31264D01*
X49501Y-31269D01*
X49450Y-31265D01*
X49399Y-31250D01*
X49353Y-31225D01*
X49312Y-31192D01*
X49278Y-31152D01*
X49252Y-31106D01*
X49236Y-31056D01*
X49231Y-31003D01*
X49235Y-30952D01*
X49249Y-30901D01*
X49274Y-30854D01*
X49306Y-30813D01*
X49346Y-30779D01*
X49392Y-30753D01*
X49443Y-30737D01*
X49495Y-30731D01*
X49546Y-30735D01*
X49597Y-30749D01*
X49644Y-30773D01*
X49686Y-30805D01*
X49720Y-30845D01*
X49746Y-30891D01*
X49763Y-30941D01*
X49769Y-30993D01*
X49770Y-31000D01*
X39245Y-27000D02*
X39240Y-27047D01*
X39226Y-27093D01*
X39204Y-27135D01*
X39173Y-27172D01*
X39137Y-27203D01*
X39094Y-27225D01*
X39049Y-27239D01*
X39001Y-27244D01*
X38955Y-27240D01*
X38909Y-27227D01*
X38866Y-27205D01*
X38829Y-27175D01*
X38798Y-27138D01*
X38775Y-27096D01*
X38761Y-27050D01*
X38756Y-27003D01*
X38760Y-26956D01*
X38773Y-26910D01*
X38795Y-26868D01*
X38824Y-26830D01*
X38861Y-26799D01*
X38902Y-26776D01*
X38948Y-26761D01*
X38995Y-26756D01*
X39042Y-26759D01*
X39088Y-26772D01*
X39131Y-26794D01*
X39168Y-26823D01*
X39200Y-26859D01*
X39223Y-26901D01*
X39238Y-26946D01*
X39244Y-26994D01*
X39245Y-27000D01*
X42245Y-27000D02*
X42240Y-27047D01*
X42226Y-27093D01*
X42204Y-27135D01*
X42173Y-27172D01*
X42137Y-27203D01*
X42094Y-27225D01*
X42049Y-27239D01*
X42001Y-27244D01*
X41955Y-27240D01*
X41909Y-27227D01*
X41866Y-27205D01*
X41829Y-27175D01*
X41798Y-27138D01*
X41775Y-27096D01*
X41761Y-27050D01*
X41756Y-27003D01*
X41760Y-26956D01*
X41773Y-26910D01*
X41795Y-26868D01*
X41824Y-26830D01*
X41861Y-26799D01*
X41902Y-26776D01*
X41948Y-26761D01*
X41995Y-26756D01*
X42042Y-26759D01*
X42088Y-26772D01*
X42131Y-26794D01*
X42168Y-26823D01*
X42200Y-26859D01*
X42223Y-26901D01*
X42238Y-26946D01*
X42244Y-26994D01*
X42245Y-27000D01*
X39245Y-30500D02*
X39240Y-30547D01*
X39226Y-30593D01*
X39204Y-30635D01*
X39173Y-30672D01*
X39137Y-30703D01*
X39094Y-30725D01*
X39049Y-30739D01*
X39001Y-30744D01*
X38955Y-30740D01*
X38909Y-30727D01*
X38866Y-30705D01*
X38829Y-30675D01*
X38798Y-30638D01*
X38775Y-30596D01*
X38761Y-30550D01*
X38756Y-30503D01*
X38760Y-30456D01*
X38773Y-30410D01*
X38795Y-30368D01*
X38824Y-30330D01*
X38861Y-30299D01*
X38902Y-30276D01*
X38948Y-30261D01*
X38995Y-30256D01*
X39042Y-30259D01*
X39088Y-30272D01*
X39131Y-30294D01*
X39168Y-30323D01*
X39200Y-30359D01*
X39223Y-30401D01*
X39238Y-30446D01*
X39244Y-30494D01*
X39245Y-30500D01*
X42245Y-30500D02*
X42240Y-30547D01*
X42226Y-30593D01*
X42204Y-30635D01*
X42173Y-30672D01*
X42137Y-30703D01*
X42094Y-30725D01*
X42049Y-30739D01*
X42001Y-30744D01*
X41955Y-30740D01*
X41909Y-30727D01*
X41866Y-30705D01*
X41829Y-30675D01*
X41798Y-30638D01*
X41775Y-30596D01*
X41761Y-30550D01*
X41756Y-30503D01*
X41760Y-30456D01*
X41773Y-30410D01*
X41795Y-30368D01*
X41824Y-30330D01*
X41861Y-30299D01*
X41902Y-30276D01*
X41948Y-30261D01*
X41995Y-30256D01*
X42042Y-30259D01*
X42088Y-30272D01*
X42131Y-30294D01*
X42168Y-30323D01*
X42200Y-30359D01*
X42223Y-30401D01*
X42238Y-30446D01*
X42244Y-30494D01*
X42245Y-30500D01*
X39245Y-29000D02*
X39240Y-29047D01*
X39226Y-29093D01*
X39204Y-29135D01*
X39173Y-29172D01*
X39137Y-29203D01*
X39094Y-29225D01*
X39049Y-29239D01*
X39001Y-29244D01*
X38955Y-29240D01*
X38909Y-29227D01*
X38866Y-29205D01*
X38829Y-29175D01*
X38798Y-29138D01*
X38775Y-29096D01*
X38761Y-29050D01*
X38756Y-29003D01*
X38760Y-28956D01*
X38773Y-28910D01*
X38795Y-28868D01*
X38824Y-28830D01*
X38861Y-28799D01*
X38902Y-28776D01*
X38948Y-28761D01*
X38995Y-28756D01*
X39042Y-28759D01*
X39088Y-28772D01*
X39131Y-28794D01*
X39168Y-28823D01*
X39200Y-28859D01*
X39223Y-28901D01*
X39238Y-28946D01*
X39244Y-28994D01*
X39245Y-29000D01*
X42245Y-29000D02*
X42240Y-29047D01*
X42226Y-29093D01*
X42204Y-29135D01*
X42173Y-29172D01*
X42137Y-29203D01*
X42094Y-29225D01*
X42049Y-29239D01*
X42001Y-29244D01*
X41955Y-29240D01*
X41909Y-29227D01*
X41866Y-29205D01*
X41829Y-29175D01*
X41798Y-29138D01*
X41775Y-29096D01*
X41761Y-29050D01*
X41756Y-29003D01*
X41760Y-28956D01*
X41773Y-28910D01*
X41795Y-28868D01*
X41824Y-28830D01*
X41861Y-28799D01*
X41902Y-28776D01*
X41948Y-28761D01*
X41995Y-28756D01*
X42042Y-28759D01*
X42088Y-28772D01*
X42131Y-28794D01*
X42168Y-28823D01*
X42200Y-28859D01*
X42223Y-28901D01*
X42238Y-28946D01*
X42244Y-28994D01*
X42245Y-29000D01*
X32245Y-29000D02*
X32240Y-29047D01*
X32226Y-29093D01*
X32204Y-29135D01*
X32173Y-29172D01*
X32137Y-29203D01*
X32094Y-29225D01*
X32049Y-29239D01*
X32001Y-29244D01*
X31955Y-29240D01*
X31909Y-29227D01*
X31866Y-29205D01*
X31829Y-29175D01*
X31798Y-29138D01*
X31775Y-29096D01*
X31761Y-29050D01*
X31756Y-29003D01*
X31760Y-28956D01*
X31773Y-28910D01*
X31795Y-28868D01*
X31824Y-28830D01*
X31861Y-28799D01*
X31902Y-28776D01*
X31948Y-28761D01*
X31995Y-28756D01*
X32042Y-28759D01*
X32088Y-28772D01*
X32131Y-28794D01*
X32168Y-28823D01*
X32200Y-28859D01*
X32223Y-28901D01*
X32238Y-28946D01*
X32244Y-28994D01*
X32245Y-29000D01*
X29245Y-29000D02*
X29240Y-29047D01*
X29226Y-29093D01*
X29204Y-29135D01*
X29173Y-29172D01*
X29137Y-29203D01*
X29094Y-29225D01*
X29049Y-29239D01*
X29001Y-29244D01*
X28955Y-29240D01*
X28909Y-29227D01*
X28866Y-29205D01*
X28829Y-29175D01*
X28798Y-29138D01*
X28775Y-29096D01*
X28761Y-29050D01*
X28756Y-29003D01*
X28760Y-28956D01*
X28773Y-28910D01*
X28795Y-28868D01*
X28824Y-28830D01*
X28861Y-28799D01*
X28902Y-28776D01*
X28948Y-28761D01*
X28995Y-28756D01*
X29042Y-28759D01*
X29088Y-28772D01*
X29131Y-28794D01*
X29168Y-28823D01*
X29200Y-28859D01*
X29223Y-28901D01*
X29238Y-28946D01*
X29244Y-28994D01*
X29245Y-29000D01*
X32245Y-27500D02*
X32240Y-27547D01*
X32226Y-27593D01*
X32204Y-27635D01*
X32173Y-27672D01*
X32137Y-27703D01*
X32094Y-27725D01*
X32049Y-27739D01*
X32001Y-27744D01*
X31955Y-27740D01*
X31909Y-27727D01*
X31866Y-27705D01*
X31829Y-27675D01*
X31798Y-27638D01*
X31775Y-27596D01*
X31761Y-27550D01*
X31756Y-27503D01*
X31760Y-27456D01*
X31773Y-27410D01*
X31795Y-27368D01*
X31824Y-27330D01*
X31861Y-27299D01*
X31902Y-27276D01*
X31948Y-27261D01*
X31995Y-27256D01*
X32042Y-27259D01*
X32088Y-27272D01*
X32131Y-27294D01*
X32168Y-27323D01*
X32200Y-27359D01*
X32223Y-27401D01*
X32238Y-27446D01*
X32244Y-27494D01*
X32245Y-27500D01*
X29245Y-27500D02*
X29240Y-27547D01*
X29226Y-27593D01*
X29204Y-27635D01*
X29173Y-27672D01*
X29137Y-27703D01*
X29094Y-27725D01*
X29049Y-27739D01*
X29001Y-27744D01*
X28955Y-27740D01*
X28909Y-27727D01*
X28866Y-27705D01*
X28829Y-27675D01*
X28798Y-27638D01*
X28775Y-27596D01*
X28761Y-27550D01*
X28756Y-27503D01*
X28760Y-27456D01*
X28773Y-27410D01*
X28795Y-27368D01*
X28824Y-27330D01*
X28861Y-27299D01*
X28902Y-27276D01*
X28948Y-27261D01*
X28995Y-27256D01*
X29042Y-27259D01*
X29088Y-27272D01*
X29131Y-27294D01*
X29168Y-27323D01*
X29200Y-27359D01*
X29223Y-27401D01*
X29238Y-27446D01*
X29244Y-27494D01*
X29245Y-27500D01*
X39245Y-22500D02*
X39240Y-22547D01*
X39226Y-22593D01*
X39204Y-22635D01*
X39173Y-22672D01*
X39137Y-22703D01*
X39094Y-22725D01*
X39049Y-22739D01*
X39001Y-22744D01*
X38955Y-22740D01*
X38909Y-22727D01*
X38866Y-22705D01*
X38829Y-22675D01*
X38798Y-22638D01*
X38775Y-22596D01*
X38761Y-22550D01*
X38756Y-22503D01*
X38760Y-22456D01*
X38773Y-22410D01*
X38795Y-22368D01*
X38824Y-22330D01*
X38861Y-22299D01*
X38902Y-22276D01*
X38948Y-22261D01*
X38995Y-22256D01*
X39042Y-22259D01*
X39088Y-22272D01*
X39131Y-22294D01*
X39168Y-22323D01*
X39200Y-22359D01*
X39223Y-22401D01*
X39238Y-22446D01*
X39244Y-22494D01*
X39245Y-22500D01*
X42245Y-22500D02*
X42240Y-22547D01*
X42226Y-22593D01*
X42204Y-22635D01*
X42173Y-22672D01*
X42137Y-22703D01*
X42094Y-22725D01*
X42049Y-22739D01*
X42001Y-22744D01*
X41955Y-22740D01*
X41909Y-22727D01*
X41866Y-22705D01*
X41829Y-22675D01*
X41798Y-22638D01*
X41775Y-22596D01*
X41761Y-22550D01*
X41756Y-22503D01*
X41760Y-22456D01*
X41773Y-22410D01*
X41795Y-22368D01*
X41824Y-22330D01*
X41861Y-22299D01*
X41902Y-22276D01*
X41948Y-22261D01*
X41995Y-22256D01*
X42042Y-22259D01*
X42088Y-22272D01*
X42131Y-22294D01*
X42168Y-22323D01*
X42200Y-22359D01*
X42223Y-22401D01*
X42238Y-22446D01*
X42244Y-22494D01*
X42245Y-22500D01*
X32245Y-24000D02*
X32240Y-24047D01*
X32226Y-24093D01*
X32204Y-24135D01*
X32173Y-24172D01*
X32137Y-24203D01*
X32094Y-24225D01*
X32049Y-24239D01*
X32001Y-24244D01*
X31955Y-24240D01*
X31909Y-24227D01*
X31866Y-24205D01*
X31829Y-24175D01*
X31798Y-24138D01*
X31775Y-24096D01*
X31761Y-24050D01*
X31756Y-24003D01*
X31760Y-23956D01*
X31773Y-23910D01*
X31795Y-23868D01*
X31824Y-23830D01*
X31861Y-23799D01*
X31902Y-23776D01*
X31948Y-23761D01*
X31995Y-23756D01*
X32042Y-23759D01*
X32088Y-23772D01*
X32131Y-23794D01*
X32168Y-23823D01*
X32200Y-23859D01*
X32223Y-23901D01*
X32238Y-23946D01*
X32244Y-23994D01*
X32245Y-24000D01*
X29245Y-24000D02*
X29240Y-24047D01*
X29226Y-24093D01*
X29204Y-24135D01*
X29173Y-24172D01*
X29137Y-24203D01*
X29094Y-24225D01*
X29049Y-24239D01*
X29001Y-24244D01*
X28955Y-24240D01*
X28909Y-24227D01*
X28866Y-24205D01*
X28829Y-24175D01*
X28798Y-24138D01*
X28775Y-24096D01*
X28761Y-24050D01*
X28756Y-24003D01*
X28760Y-23956D01*
X28773Y-23910D01*
X28795Y-23868D01*
X28824Y-23830D01*
X28861Y-23799D01*
X28902Y-23776D01*
X28948Y-23761D01*
X28995Y-23756D01*
X29042Y-23759D01*
X29088Y-23772D01*
X29131Y-23794D01*
X29168Y-23823D01*
X29200Y-23859D01*
X29223Y-23901D01*
X29238Y-23946D01*
X29244Y-23994D01*
X29245Y-24000D01*
X32245Y-25500D02*
X32240Y-25547D01*
X32226Y-25593D01*
X32204Y-25635D01*
X32173Y-25672D01*
X32137Y-25703D01*
X32094Y-25725D01*
X32049Y-25739D01*
X32001Y-25744D01*
X31955Y-25740D01*
X31909Y-25727D01*
X31866Y-25705D01*
X31829Y-25675D01*
X31798Y-25638D01*
X31775Y-25596D01*
X31761Y-25550D01*
X31756Y-25503D01*
X31760Y-25456D01*
X31773Y-25410D01*
X31795Y-25368D01*
X31824Y-25330D01*
X31861Y-25299D01*
X31902Y-25276D01*
X31948Y-25261D01*
X31995Y-25256D01*
X32042Y-25259D01*
X32088Y-25272D01*
X32131Y-25294D01*
X32168Y-25323D01*
X32200Y-25359D01*
X32223Y-25401D01*
X32238Y-25446D01*
X32244Y-25494D01*
X32245Y-25500D01*
X29245Y-25500D02*
X29240Y-25547D01*
X29226Y-25593D01*
X29204Y-25635D01*
X29173Y-25672D01*
X29137Y-25703D01*
X29094Y-25725D01*
X29049Y-25739D01*
X29001Y-25744D01*
X28955Y-25740D01*
X28909Y-25727D01*
X28866Y-25705D01*
X28829Y-25675D01*
X28798Y-25638D01*
X28775Y-25596D01*
X28761Y-25550D01*
X28756Y-25503D01*
X28760Y-25456D01*
X28773Y-25410D01*
X28795Y-25368D01*
X28824Y-25330D01*
X28861Y-25299D01*
X28902Y-25276D01*
X28948Y-25261D01*
X28995Y-25256D01*
X29042Y-25259D01*
X29088Y-25272D01*
X29131Y-25294D01*
X29168Y-25323D01*
X29200Y-25359D01*
X29223Y-25401D01*
X29238Y-25446D01*
X29244Y-25494D01*
X29245Y-25500D01*
X17745Y-19000D02*
X17740Y-19047D01*
X17726Y-19093D01*
X17704Y-19135D01*
X17673Y-19172D01*
X17637Y-19203D01*
X17594Y-19225D01*
X17549Y-19239D01*
X17501Y-19244D01*
X17455Y-19240D01*
X17409Y-19227D01*
X17366Y-19205D01*
X17329Y-19175D01*
X17298Y-19138D01*
X17275Y-19096D01*
X17261Y-19050D01*
X17256Y-19003D01*
X17260Y-18956D01*
X17273Y-18910D01*
X17295Y-18868D01*
X17324Y-18830D01*
X17361Y-18799D01*
X17402Y-18776D01*
X17448Y-18761D01*
X17495Y-18756D01*
X17542Y-18759D01*
X17588Y-18772D01*
X17631Y-18794D01*
X17668Y-18823D01*
X17700Y-18859D01*
X17723Y-18901D01*
X17738Y-18946D01*
X17744Y-18994D01*
X17745Y-19000D01*
X14745Y-19000D02*
X14740Y-19047D01*
X14726Y-19093D01*
X14704Y-19135D01*
X14673Y-19172D01*
X14637Y-19203D01*
X14594Y-19225D01*
X14549Y-19239D01*
X14501Y-19244D01*
X14455Y-19240D01*
X14409Y-19227D01*
X14366Y-19205D01*
X14329Y-19175D01*
X14298Y-19138D01*
X14275Y-19096D01*
X14261Y-19050D01*
X14256Y-19003D01*
X14260Y-18956D01*
X14273Y-18910D01*
X14295Y-18868D01*
X14324Y-18830D01*
X14361Y-18799D01*
X14402Y-18776D01*
X14448Y-18761D01*
X14495Y-18756D01*
X14542Y-18759D01*
X14588Y-18772D01*
X14631Y-18794D01*
X14668Y-18823D01*
X14700Y-18859D01*
X14723Y-18901D01*
X14738Y-18946D01*
X14744Y-18994D01*
X14745Y-19000D01*
X39245Y-25500D02*
X39240Y-25547D01*
X39226Y-25593D01*
X39204Y-25635D01*
X39173Y-25672D01*
X39137Y-25703D01*
X39094Y-25725D01*
X39049Y-25739D01*
X39001Y-25744D01*
X38955Y-25740D01*
X38909Y-25727D01*
X38866Y-25705D01*
X38829Y-25675D01*
X38798Y-25638D01*
X38775Y-25596D01*
X38761Y-25550D01*
X38756Y-25503D01*
X38760Y-25456D01*
X38773Y-25410D01*
X38795Y-25368D01*
X38824Y-25330D01*
X38861Y-25299D01*
X38902Y-25276D01*
X38948Y-25261D01*
X38995Y-25256D01*
X39042Y-25259D01*
X39088Y-25272D01*
X39131Y-25294D01*
X39168Y-25323D01*
X39200Y-25359D01*
X39223Y-25401D01*
X39238Y-25446D01*
X39244Y-25494D01*
X39245Y-25500D01*
X42245Y-25500D02*
X42240Y-25547D01*
X42226Y-25593D01*
X42204Y-25635D01*
X42173Y-25672D01*
X42137Y-25703D01*
X42094Y-25725D01*
X42049Y-25739D01*
X42001Y-25744D01*
X41955Y-25740D01*
X41909Y-25727D01*
X41866Y-25705D01*
X41829Y-25675D01*
X41798Y-25638D01*
X41775Y-25596D01*
X41761Y-25550D01*
X41756Y-25503D01*
X41760Y-25456D01*
X41773Y-25410D01*
X41795Y-25368D01*
X41824Y-25330D01*
X41861Y-25299D01*
X41902Y-25276D01*
X41948Y-25261D01*
X41995Y-25256D01*
X42042Y-25259D01*
X42088Y-25272D01*
X42131Y-25294D01*
X42168Y-25323D01*
X42200Y-25359D01*
X42223Y-25401D01*
X42238Y-25446D01*
X42244Y-25494D01*
X42245Y-25500D01*
X14745Y-16000D02*
X14740Y-16047D01*
X14726Y-16093D01*
X14704Y-16135D01*
X14673Y-16172D01*
X14637Y-16203D01*
X14594Y-16225D01*
X14549Y-16239D01*
X14501Y-16244D01*
X14455Y-16240D01*
X14409Y-16227D01*
X14366Y-16205D01*
X14329Y-16175D01*
X14298Y-16138D01*
X14275Y-16096D01*
X14261Y-16050D01*
X14256Y-16003D01*
X14260Y-15956D01*
X14273Y-15910D01*
X14295Y-15868D01*
X14324Y-15830D01*
X14361Y-15799D01*
X14402Y-15776D01*
X14448Y-15761D01*
X14495Y-15756D01*
X14542Y-15759D01*
X14588Y-15772D01*
X14631Y-15794D01*
X14668Y-15823D01*
X14700Y-15859D01*
X14723Y-15901D01*
X14738Y-15946D01*
X14744Y-15994D01*
X14745Y-16000D01*
X17745Y-16000D02*
X17740Y-16047D01*
X17726Y-16093D01*
X17704Y-16135D01*
X17673Y-16172D01*
X17637Y-16203D01*
X17594Y-16225D01*
X17549Y-16239D01*
X17501Y-16244D01*
X17455Y-16240D01*
X17409Y-16227D01*
X17366Y-16205D01*
X17329Y-16175D01*
X17298Y-16138D01*
X17275Y-16096D01*
X17261Y-16050D01*
X17256Y-16003D01*
X17260Y-15956D01*
X17273Y-15910D01*
X17295Y-15868D01*
X17324Y-15830D01*
X17361Y-15799D01*
X17402Y-15776D01*
X17448Y-15761D01*
X17495Y-15756D01*
X17542Y-15759D01*
X17588Y-15772D01*
X17631Y-15794D01*
X17668Y-15823D01*
X17700Y-15859D01*
X17723Y-15901D01*
X17738Y-15946D01*
X17744Y-15994D01*
X17745Y-16000D01*
X14745Y-17500D02*
X14740Y-17547D01*
X14726Y-17593D01*
X14704Y-17635D01*
X14673Y-17672D01*
X14637Y-17703D01*
X14594Y-17725D01*
X14549Y-17739D01*
X14501Y-17744D01*
X14455Y-17740D01*
X14409Y-17727D01*
X14366Y-17705D01*
X14329Y-17675D01*
X14298Y-17638D01*
X14275Y-17596D01*
X14261Y-17550D01*
X14256Y-17503D01*
X14260Y-17456D01*
X14273Y-17410D01*
X14295Y-17368D01*
X14324Y-17330D01*
X14361Y-17299D01*
X14402Y-17276D01*
X14448Y-17261D01*
X14495Y-17256D01*
X14542Y-17259D01*
X14588Y-17272D01*
X14631Y-17294D01*
X14668Y-17323D01*
X14700Y-17359D01*
X14723Y-17401D01*
X14738Y-17446D01*
X14744Y-17494D01*
X14745Y-17500D01*
X17745Y-17500D02*
X17740Y-17547D01*
X17726Y-17593D01*
X17704Y-17635D01*
X17673Y-17672D01*
X17637Y-17703D01*
X17594Y-17725D01*
X17549Y-17739D01*
X17501Y-17744D01*
X17455Y-17740D01*
X17409Y-17727D01*
X17366Y-17705D01*
X17329Y-17675D01*
X17298Y-17638D01*
X17275Y-17596D01*
X17261Y-17550D01*
X17256Y-17503D01*
X17260Y-17456D01*
X17273Y-17410D01*
X17295Y-17368D01*
X17324Y-17330D01*
X17361Y-17299D01*
X17402Y-17276D01*
X17448Y-17261D01*
X17495Y-17256D01*
X17542Y-17259D01*
X17588Y-17272D01*
X17631Y-17294D01*
X17668Y-17323D01*
X17700Y-17359D01*
X17723Y-17401D01*
X17738Y-17446D01*
X17744Y-17494D01*
X17745Y-17500D01*
X11245Y-31000D02*
X11240Y-31047D01*
X11226Y-31093D01*
X11204Y-31135D01*
X11173Y-31172D01*
X11137Y-31203D01*
X11094Y-31225D01*
X11049Y-31239D01*
X11001Y-31244D01*
X10955Y-31240D01*
X10909Y-31227D01*
X10866Y-31205D01*
X10829Y-31175D01*
X10798Y-31138D01*
X10775Y-31096D01*
X10761Y-31050D01*
X10756Y-31003D01*
X10760Y-30956D01*
X10773Y-30910D01*
X10795Y-30868D01*
X10824Y-30830D01*
X10861Y-30799D01*
X10902Y-30776D01*
X10948Y-30761D01*
X10995Y-30756D01*
X11042Y-30759D01*
X11088Y-30772D01*
X11131Y-30794D01*
X11168Y-30823D01*
X11200Y-30859D01*
X11223Y-30901D01*
X11238Y-30946D01*
X11244Y-30994D01*
X11245Y-31000D01*
X11245Y-28000D02*
X11240Y-28047D01*
X11226Y-28093D01*
X11204Y-28135D01*
X11173Y-28172D01*
X11137Y-28203D01*
X11094Y-28225D01*
X11049Y-28239D01*
X11001Y-28244D01*
X10955Y-28240D01*
X10909Y-28227D01*
X10866Y-28205D01*
X10829Y-28175D01*
X10798Y-28138D01*
X10775Y-28096D01*
X10761Y-28050D01*
X10756Y-28003D01*
X10760Y-27956D01*
X10773Y-27910D01*
X10795Y-27868D01*
X10824Y-27830D01*
X10861Y-27799D01*
X10902Y-27776D01*
X10948Y-27761D01*
X10995Y-27756D01*
X11042Y-27759D01*
X11088Y-27772D01*
X11131Y-27794D01*
X11168Y-27823D01*
X11200Y-27859D01*
X11223Y-27901D01*
X11238Y-27946D01*
X11244Y-27994D01*
X11245Y-28000D01*
X24245Y-15500D02*
X24240Y-15547D01*
X24226Y-15593D01*
X24204Y-15635D01*
X24173Y-15672D01*
X24137Y-15703D01*
X24094Y-15725D01*
X24049Y-15739D01*
X24001Y-15744D01*
X23955Y-15740D01*
X23909Y-15727D01*
X23866Y-15705D01*
X23829Y-15675D01*
X23798Y-15638D01*
X23775Y-15596D01*
X23761Y-15550D01*
X23756Y-15503D01*
X23760Y-15456D01*
X23773Y-15410D01*
X23795Y-15368D01*
X23824Y-15330D01*
X23861Y-15299D01*
X23902Y-15276D01*
X23948Y-15261D01*
X23995Y-15256D01*
X24042Y-15259D01*
X24088Y-15272D01*
X24131Y-15294D01*
X24168Y-15323D01*
X24200Y-15359D01*
X24223Y-15401D01*
X24238Y-15446D01*
X24244Y-15494D01*
X24245Y-15500D01*
X21245Y-15500D02*
X21240Y-15547D01*
X21226Y-15593D01*
X21204Y-15635D01*
X21173Y-15672D01*
X21137Y-15703D01*
X21094Y-15725D01*
X21049Y-15739D01*
X21001Y-15744D01*
X20955Y-15740D01*
X20909Y-15727D01*
X20866Y-15705D01*
X20829Y-15675D01*
X20798Y-15638D01*
X20775Y-15596D01*
X20761Y-15550D01*
X20756Y-15503D01*
X20760Y-15456D01*
X20773Y-15410D01*
X20795Y-15368D01*
X20824Y-15330D01*
X20861Y-15299D01*
X20902Y-15276D01*
X20948Y-15261D01*
X20995Y-15256D01*
X21042Y-15259D01*
X21088Y-15272D01*
X21131Y-15294D01*
X21168Y-15323D01*
X21200Y-15359D01*
X21223Y-15401D01*
X21238Y-15446D01*
X21244Y-15494D01*
X21245Y-15500D01*
X21745Y-11500D02*
X21740Y-11547D01*
X21726Y-11593D01*
X21704Y-11635D01*
X21673Y-11672D01*
X21637Y-11703D01*
X21594Y-11725D01*
X21549Y-11739D01*
X21501Y-11744D01*
X21455Y-11740D01*
X21409Y-11727D01*
X21366Y-11705D01*
X21329Y-11675D01*
X21298Y-11638D01*
X21275Y-11596D01*
X21261Y-11550D01*
X21256Y-11503D01*
X21260Y-11456D01*
X21273Y-11410D01*
X21295Y-11368D01*
X21324Y-11330D01*
X21361Y-11299D01*
X21402Y-11276D01*
X21448Y-11261D01*
X21495Y-11256D01*
X21542Y-11259D01*
X21588Y-11272D01*
X21631Y-11294D01*
X21668Y-11323D01*
X21700Y-11359D01*
X21723Y-11401D01*
X21738Y-11446D01*
X21744Y-11494D01*
X21745Y-11500D01*
X21745Y-14500D02*
X21740Y-14547D01*
X21726Y-14593D01*
X21704Y-14635D01*
X21673Y-14672D01*
X21637Y-14703D01*
X21594Y-14725D01*
X21549Y-14739D01*
X21501Y-14744D01*
X21455Y-14740D01*
X21409Y-14727D01*
X21366Y-14705D01*
X21329Y-14675D01*
X21298Y-14638D01*
X21275Y-14596D01*
X21261Y-14550D01*
X21256Y-14503D01*
X21260Y-14456D01*
X21273Y-14410D01*
X21295Y-14368D01*
X21324Y-14330D01*
X21361Y-14299D01*
X21402Y-14276D01*
X21448Y-14261D01*
X21495Y-14256D01*
X21542Y-14259D01*
X21588Y-14272D01*
X21631Y-14294D01*
X21668Y-14323D01*
X21700Y-14359D01*
X21723Y-14401D01*
X21738Y-14446D01*
X21744Y-14494D01*
X21745Y-14500D01*
X26245Y-11500D02*
X26240Y-11547D01*
X26226Y-11593D01*
X26204Y-11635D01*
X26173Y-11672D01*
X26137Y-11703D01*
X26094Y-11725D01*
X26049Y-11739D01*
X26001Y-11744D01*
X25955Y-11740D01*
X25909Y-11727D01*
X25866Y-11705D01*
X25829Y-11675D01*
X25798Y-11638D01*
X25775Y-11596D01*
X25761Y-11550D01*
X25756Y-11503D01*
X25760Y-11456D01*
X25773Y-11410D01*
X25795Y-11368D01*
X25824Y-11330D01*
X25861Y-11299D01*
X25902Y-11276D01*
X25948Y-11261D01*
X25995Y-11256D01*
X26042Y-11259D01*
X26088Y-11272D01*
X26131Y-11294D01*
X26168Y-11323D01*
X26200Y-11359D01*
X26223Y-11401D01*
X26238Y-11446D01*
X26244Y-11494D01*
X26245Y-11500D01*
X26245Y-14500D02*
X26240Y-14547D01*
X26226Y-14593D01*
X26204Y-14635D01*
X26173Y-14672D01*
X26137Y-14703D01*
X26094Y-14725D01*
X26049Y-14739D01*
X26001Y-14744D01*
X25955Y-14740D01*
X25909Y-14727D01*
X25866Y-14705D01*
X25829Y-14675D01*
X25798Y-14638D01*
X25775Y-14596D01*
X25761Y-14550D01*
X25756Y-14503D01*
X25760Y-14456D01*
X25773Y-14410D01*
X25795Y-14368D01*
X25824Y-14330D01*
X25861Y-14299D01*
X25902Y-14276D01*
X25948Y-14261D01*
X25995Y-14256D01*
X26042Y-14259D01*
X26088Y-14272D01*
X26131Y-14294D01*
X26168Y-14323D01*
X26200Y-14359D01*
X26223Y-14401D01*
X26238Y-14446D01*
X26244Y-14494D01*
X26245Y-14500D01*
X24745Y-14500D02*
X24740Y-14547D01*
X24726Y-14593D01*
X24704Y-14635D01*
X24673Y-14672D01*
X24637Y-14703D01*
X24594Y-14725D01*
X24549Y-14739D01*
X24501Y-14744D01*
X24455Y-14740D01*
X24409Y-14727D01*
X24366Y-14705D01*
X24329Y-14675D01*
X24298Y-14638D01*
X24275Y-14596D01*
X24261Y-14550D01*
X24256Y-14503D01*
X24260Y-14456D01*
X24273Y-14410D01*
X24295Y-14368D01*
X24324Y-14330D01*
X24361Y-14299D01*
X24402Y-14276D01*
X24448Y-14261D01*
X24495Y-14256D01*
X24542Y-14259D01*
X24588Y-14272D01*
X24631Y-14294D01*
X24668Y-14323D01*
X24700Y-14359D01*
X24723Y-14401D01*
X24738Y-14446D01*
X24744Y-14494D01*
X24745Y-14500D01*
X24745Y-11500D02*
X24740Y-11547D01*
X24726Y-11593D01*
X24704Y-11635D01*
X24673Y-11672D01*
X24637Y-11703D01*
X24594Y-11725D01*
X24549Y-11739D01*
X24501Y-11744D01*
X24455Y-11740D01*
X24409Y-11727D01*
X24366Y-11705D01*
X24329Y-11675D01*
X24298Y-11638D01*
X24275Y-11596D01*
X24261Y-11550D01*
X24256Y-11503D01*
X24260Y-11456D01*
X24273Y-11410D01*
X24295Y-11368D01*
X24324Y-11330D01*
X24361Y-11299D01*
X24402Y-11276D01*
X24448Y-11261D01*
X24495Y-11256D01*
X24542Y-11259D01*
X24588Y-11272D01*
X24631Y-11294D01*
X24668Y-11323D01*
X24700Y-11359D01*
X24723Y-11401D01*
X24738Y-11446D01*
X24744Y-11494D01*
X24745Y-11500D01*
X16245Y-32000D02*
X16240Y-32047D01*
X16226Y-32093D01*
X16204Y-32135D01*
X16173Y-32172D01*
X16137Y-32203D01*
X16094Y-32225D01*
X16049Y-32239D01*
X16001Y-32244D01*
X15955Y-32240D01*
X15909Y-32227D01*
X15866Y-32205D01*
X15829Y-32175D01*
X15798Y-32138D01*
X15775Y-32096D01*
X15761Y-32050D01*
X15756Y-32003D01*
X15760Y-31956D01*
X15773Y-31910D01*
X15795Y-31868D01*
X15824Y-31830D01*
X15861Y-31799D01*
X15902Y-31776D01*
X15948Y-31761D01*
X15995Y-31756D01*
X16042Y-31759D01*
X16088Y-31772D01*
X16131Y-31794D01*
X16168Y-31823D01*
X16200Y-31859D01*
X16223Y-31901D01*
X16238Y-31946D01*
X16244Y-31994D01*
X16245Y-32000D01*
X19245Y-32000D02*
X19240Y-32047D01*
X19226Y-32093D01*
X19204Y-32135D01*
X19173Y-32172D01*
X19137Y-32203D01*
X19094Y-32225D01*
X19049Y-32239D01*
X19001Y-32244D01*
X18955Y-32240D01*
X18909Y-32227D01*
X18866Y-32205D01*
X18829Y-32175D01*
X18798Y-32138D01*
X18775Y-32096D01*
X18761Y-32050D01*
X18756Y-32003D01*
X18760Y-31956D01*
X18773Y-31910D01*
X18795Y-31868D01*
X18824Y-31830D01*
X18861Y-31799D01*
X18902Y-31776D01*
X18948Y-31761D01*
X18995Y-31756D01*
X19042Y-31759D01*
X19088Y-31772D01*
X19131Y-31794D01*
X19168Y-31823D01*
X19200Y-31859D01*
X19223Y-31901D01*
X19238Y-31946D01*
X19244Y-31994D01*
X19245Y-32000D01*
X42245Y-24000D02*
X42240Y-24047D01*
X42226Y-24093D01*
X42204Y-24135D01*
X42173Y-24172D01*
X42137Y-24203D01*
X42094Y-24225D01*
X42049Y-24239D01*
X42001Y-24244D01*
X41955Y-24240D01*
X41909Y-24227D01*
X41866Y-24205D01*
X41829Y-24175D01*
X41798Y-24138D01*
X41775Y-24096D01*
X41761Y-24050D01*
X41756Y-24003D01*
X41760Y-23956D01*
X41773Y-23910D01*
X41795Y-23868D01*
X41824Y-23830D01*
X41861Y-23799D01*
X41902Y-23776D01*
X41948Y-23761D01*
X41995Y-23756D01*
X42042Y-23759D01*
X42088Y-23772D01*
X42131Y-23794D01*
X42168Y-23823D01*
X42200Y-23859D01*
X42223Y-23901D01*
X42238Y-23946D01*
X42244Y-23994D01*
X42245Y-24000D01*
X39245Y-24000D02*
X39240Y-24047D01*
X39226Y-24093D01*
X39204Y-24135D01*
X39173Y-24172D01*
X39137Y-24203D01*
X39094Y-24225D01*
X39049Y-24239D01*
X39001Y-24244D01*
X38955Y-24240D01*
X38909Y-24227D01*
X38866Y-24205D01*
X38829Y-24175D01*
X38798Y-24138D01*
X38775Y-24096D01*
X38761Y-24050D01*
X38756Y-24003D01*
X38760Y-23956D01*
X38773Y-23910D01*
X38795Y-23868D01*
X38824Y-23830D01*
X38861Y-23799D01*
X38902Y-23776D01*
X38948Y-23761D01*
X38995Y-23756D01*
X39042Y-23759D01*
X39088Y-23772D01*
X39131Y-23794D01*
X39168Y-23823D01*
X39200Y-23859D01*
X39223Y-23901D01*
X39238Y-23946D01*
X39244Y-23994D01*
X39245Y-24000D01*
X10730Y-18230D02*
X10730Y-18770D01*
X11270Y-18770D01*
X11270Y-18230D01*
X10730Y-18230D01*
X12270Y-18500D02*
X12264Y-18552D01*
X12249Y-18602D01*
X12224Y-18649D01*
X12191Y-18690D01*
X12150Y-18723D01*
X12104Y-18748D01*
X12054Y-18764D01*
X12001Y-18769D01*
X11950Y-18765D01*
X11899Y-18750D01*
X11853Y-18725D01*
X11812Y-18692D01*
X11778Y-18652D01*
X11752Y-18606D01*
X11736Y-18556D01*
X11731Y-18503D01*
X11735Y-18452D01*
X11749Y-18401D01*
X11774Y-18354D01*
X11806Y-18313D01*
X11846Y-18279D01*
X11892Y-18253D01*
X11943Y-18237D01*
X11995Y-18231D01*
X12046Y-18235D01*
X12097Y-18249D01*
X12144Y-18273D01*
X12186Y-18305D01*
X12220Y-18345D01*
X12246Y-18391D01*
X12263Y-18441D01*
X12269Y-18493D01*
X12270Y-18500D01*
X11270Y-19500D02*
X11264Y-19552D01*
X11249Y-19602D01*
X11224Y-19649D01*
X11191Y-19690D01*
X11150Y-19723D01*
X11104Y-19748D01*
X11054Y-19764D01*
X11001Y-19769D01*
X10950Y-19765D01*
X10899Y-19750D01*
X10853Y-19725D01*
X10812Y-19692D01*
X10778Y-19652D01*
X10752Y-19606D01*
X10736Y-19556D01*
X10731Y-19503D01*
X10735Y-19452D01*
X10749Y-19401D01*
X10774Y-19354D01*
X10806Y-19313D01*
X10846Y-19279D01*
X10892Y-19253D01*
X10943Y-19237D01*
X10995Y-19231D01*
X11046Y-19235D01*
X11097Y-19249D01*
X11144Y-19273D01*
X11186Y-19305D01*
X11220Y-19345D01*
X11246Y-19391D01*
X11263Y-19441D01*
X11269Y-19493D01*
X11270Y-19500D01*
X12270Y-19500D02*
X12264Y-19552D01*
X12249Y-19602D01*
X12224Y-19649D01*
X12191Y-19690D01*
X12150Y-19723D01*
X12104Y-19748D01*
X12054Y-19764D01*
X12001Y-19769D01*
X11950Y-19765D01*
X11899Y-19750D01*
X11853Y-19725D01*
X11812Y-19692D01*
X11778Y-19652D01*
X11752Y-19606D01*
X11736Y-19556D01*
X11731Y-19503D01*
X11735Y-19452D01*
X11749Y-19401D01*
X11774Y-19354D01*
X11806Y-19313D01*
X11846Y-19279D01*
X11892Y-19253D01*
X11943Y-19237D01*
X11995Y-19231D01*
X12046Y-19235D01*
X12097Y-19249D01*
X12144Y-19273D01*
X12186Y-19305D01*
X12220Y-19345D01*
X12246Y-19391D01*
X12263Y-19441D01*
X12269Y-19493D01*
X12270Y-19500D01*
X11270Y-20500D02*
X11264Y-20552D01*
X11249Y-20602D01*
X11224Y-20649D01*
X11191Y-20690D01*
X11150Y-20723D01*
X11104Y-20748D01*
X11054Y-20764D01*
X11001Y-20769D01*
X10950Y-20765D01*
X10899Y-20750D01*
X10853Y-20725D01*
X10812Y-20692D01*
X10778Y-20652D01*
X10752Y-20606D01*
X10736Y-20556D01*
X10731Y-20503D01*
X10735Y-20452D01*
X10749Y-20401D01*
X10774Y-20354D01*
X10806Y-20313D01*
X10846Y-20279D01*
X10892Y-20253D01*
X10943Y-20237D01*
X10995Y-20231D01*
X11046Y-20235D01*
X11097Y-20249D01*
X11144Y-20273D01*
X11186Y-20305D01*
X11220Y-20345D01*
X11246Y-20391D01*
X11263Y-20441D01*
X11269Y-20493D01*
X11270Y-20500D01*
X12270Y-20500D02*
X12264Y-20552D01*
X12249Y-20602D01*
X12224Y-20649D01*
X12191Y-20690D01*
X12150Y-20723D01*
X12104Y-20748D01*
X12054Y-20764D01*
X12001Y-20769D01*
X11950Y-20765D01*
X11899Y-20750D01*
X11853Y-20725D01*
X11812Y-20692D01*
X11778Y-20652D01*
X11752Y-20606D01*
X11736Y-20556D01*
X11731Y-20503D01*
X11735Y-20452D01*
X11749Y-20401D01*
X11774Y-20354D01*
X11806Y-20313D01*
X11846Y-20279D01*
X11892Y-20253D01*
X11943Y-20237D01*
X11995Y-20231D01*
X12046Y-20235D01*
X12097Y-20249D01*
X12144Y-20273D01*
X12186Y-20305D01*
X12220Y-20345D01*
X12246Y-20391D01*
X12263Y-20441D01*
X12269Y-20493D01*
X12270Y-20500D01*
X11730Y-13230D02*
X11730Y-13770D01*
X12270Y-13770D01*
X12270Y-13230D01*
X11730Y-13230D01*
X12270Y-12500D02*
X12264Y-12552D01*
X12249Y-12602D01*
X12224Y-12649D01*
X12191Y-12690D01*
X12150Y-12723D01*
X12104Y-12748D01*
X12054Y-12764D01*
X12001Y-12769D01*
X11950Y-12765D01*
X11899Y-12750D01*
X11853Y-12725D01*
X11812Y-12692D01*
X11778Y-12652D01*
X11752Y-12606D01*
X11736Y-12556D01*
X11731Y-12503D01*
X11735Y-12452D01*
X11749Y-12401D01*
X11774Y-12354D01*
X11806Y-12313D01*
X11846Y-12279D01*
X11892Y-12253D01*
X11943Y-12237D01*
X11995Y-12231D01*
X12046Y-12235D01*
X12097Y-12249D01*
X12144Y-12273D01*
X12186Y-12305D01*
X12220Y-12345D01*
X12246Y-12391D01*
X12263Y-12441D01*
X12269Y-12493D01*
X12270Y-12500D01*
X12270Y-11500D02*
X12264Y-11552D01*
X12249Y-11602D01*
X12224Y-11649D01*
X12191Y-11690D01*
X12150Y-11723D01*
X12104Y-11748D01*
X12054Y-11764D01*
X12001Y-11769D01*
X11950Y-11765D01*
X11899Y-11750D01*
X11853Y-11725D01*
X11812Y-11692D01*
X11778Y-11652D01*
X11752Y-11606D01*
X11736Y-11556D01*
X11731Y-11503D01*
X11735Y-11452D01*
X11749Y-11401D01*
X11774Y-11354D01*
X11806Y-11313D01*
X11846Y-11279D01*
X11892Y-11253D01*
X11943Y-11237D01*
X11995Y-11231D01*
X12046Y-11235D01*
X12097Y-11249D01*
X12144Y-11273D01*
X12186Y-11305D01*
X12220Y-11345D01*
X12246Y-11391D01*
X12263Y-11441D01*
X12269Y-11493D01*
X12270Y-11500D01*
X11730Y-15230D02*
X11730Y-15770D01*
X12270Y-15770D01*
X12270Y-15230D01*
X11730Y-15230D01*
X12270Y-16500D02*
X12264Y-16552D01*
X12249Y-16602D01*
X12224Y-16649D01*
X12191Y-16690D01*
X12150Y-16723D01*
X12104Y-16748D01*
X12054Y-16764D01*
X12001Y-16769D01*
X11950Y-16765D01*
X11899Y-16750D01*
X11853Y-16725D01*
X11812Y-16692D01*
X11778Y-16652D01*
X11752Y-16606D01*
X11736Y-16556D01*
X11731Y-16503D01*
X11735Y-16452D01*
X11749Y-16401D01*
X11774Y-16354D01*
X11806Y-16313D01*
X11846Y-16279D01*
X11892Y-16253D01*
X11943Y-16237D01*
X11995Y-16231D01*
X12046Y-16235D01*
X12097Y-16249D01*
X12144Y-16273D01*
X12186Y-16305D01*
X12220Y-16345D01*
X12246Y-16391D01*
X12263Y-16441D01*
X12269Y-16493D01*
X12270Y-16500D01*
X14800Y-32000D02*
X14794Y-32058D01*
X14777Y-32114D01*
X14749Y-32166D01*
X14712Y-32211D01*
X14667Y-32248D01*
X14616Y-32276D01*
X14560Y-32293D01*
X14502Y-32299D01*
X14444Y-32294D01*
X14388Y-32278D01*
X14336Y-32251D01*
X14291Y-32214D01*
X14253Y-32169D01*
X14225Y-32118D01*
X14207Y-32062D01*
X14201Y-32004D01*
X14205Y-31946D01*
X14222Y-31890D01*
X14248Y-31838D01*
X14285Y-31792D01*
X14329Y-31754D01*
X14380Y-31726D01*
X14436Y-31707D01*
X14494Y-31701D01*
X14552Y-31705D01*
X14608Y-31721D01*
X14660Y-31747D01*
X14706Y-31783D01*
X14745Y-31828D01*
X14774Y-31878D01*
X14792Y-31934D01*
X14799Y-31992D01*
X14800Y-32000D01*
X13800Y-32000D02*
X13794Y-32058D01*
X13777Y-32114D01*
X13749Y-32166D01*
X13712Y-32211D01*
X13667Y-32248D01*
X13616Y-32276D01*
X13560Y-32293D01*
X13502Y-32299D01*
X13444Y-32294D01*
X13388Y-32278D01*
X13336Y-32251D01*
X13291Y-32214D01*
X13253Y-32169D01*
X13225Y-32118D01*
X13207Y-32062D01*
X13201Y-32004D01*
X13205Y-31946D01*
X13222Y-31890D01*
X13248Y-31838D01*
X13285Y-31792D01*
X13329Y-31754D01*
X13380Y-31726D01*
X13436Y-31707D01*
X13494Y-31701D01*
X13552Y-31705D01*
X13608Y-31721D01*
X13660Y-31747D01*
X13706Y-31783D01*
X13745Y-31828D01*
X13774Y-31878D01*
X13792Y-31934D01*
X13799Y-31992D01*
X13800Y-32000D01*
X17750Y-27500D02*
X17745Y-27548D01*
X17731Y-27595D01*
X17708Y-27638D01*
X17677Y-27676D01*
X17639Y-27707D01*
X17596Y-27730D01*
X17550Y-27744D01*
X17501Y-27749D01*
X17454Y-27745D01*
X17407Y-27731D01*
X17364Y-27709D01*
X17326Y-27678D01*
X17294Y-27641D01*
X17271Y-27598D01*
X17256Y-27551D01*
X17251Y-27503D01*
X17255Y-27455D01*
X17268Y-27408D01*
X17290Y-27365D01*
X17321Y-27327D01*
X17358Y-27295D01*
X17400Y-27271D01*
X17447Y-27256D01*
X17495Y-27251D01*
X17543Y-27254D01*
X17590Y-27267D01*
X17633Y-27289D01*
X17672Y-27319D01*
X17704Y-27356D01*
X17728Y-27399D01*
X17743Y-27445D01*
X17749Y-27494D01*
X17750Y-27500D01*
X17750Y-25500D02*
X17745Y-25548D01*
X17731Y-25595D01*
X17708Y-25638D01*
X17677Y-25676D01*
X17639Y-25707D01*
X17596Y-25730D01*
X17550Y-25744D01*
X17501Y-25749D01*
X17454Y-25745D01*
X17407Y-25731D01*
X17364Y-25709D01*
X17326Y-25678D01*
X17294Y-25641D01*
X17271Y-25598D01*
X17256Y-25551D01*
X17251Y-25503D01*
X17255Y-25455D01*
X17268Y-25408D01*
X17290Y-25365D01*
X17321Y-25327D01*
X17358Y-25295D01*
X17400Y-25271D01*
X17447Y-25256D01*
X17495Y-25251D01*
X17543Y-25254D01*
X17590Y-25267D01*
X17633Y-25289D01*
X17672Y-25319D01*
X17704Y-25356D01*
X17728Y-25399D01*
X17743Y-25445D01*
X17749Y-25494D01*
X17750Y-25500D01*
X49230Y-24230D02*
X49230Y-24770D01*
X49770Y-24770D01*
X49770Y-24230D01*
X49230Y-24230D01*
X45770Y-24500D02*
X45764Y-24552D01*
X45749Y-24602D01*
X45724Y-24649D01*
X45691Y-24690D01*
X45650Y-24723D01*
X45604Y-24748D01*
X45554Y-24764D01*
X45501Y-24769D01*
X45450Y-24765D01*
X45399Y-24750D01*
X45353Y-24725D01*
X45312Y-24692D01*
X45278Y-24652D01*
X45252Y-24606D01*
X45236Y-24556D01*
X45231Y-24503D01*
X45235Y-24452D01*
X45249Y-24401D01*
X45274Y-24354D01*
X45306Y-24313D01*
X45346Y-24279D01*
X45392Y-24253D01*
X45443Y-24237D01*
X45495Y-24231D01*
X45546Y-24235D01*
X45597Y-24249D01*
X45644Y-24273D01*
X45686Y-24305D01*
X45720Y-24345D01*
X45746Y-24391D01*
X45763Y-24441D01*
X45769Y-24493D01*
X45770Y-24500D01*
X49230Y-17730D02*
X49230Y-18270D01*
X49770Y-18270D01*
X49770Y-17730D01*
X49230Y-17730D01*
X45770Y-18000D02*
X45764Y-18052D01*
X45749Y-18102D01*
X45724Y-18149D01*
X45691Y-18190D01*
X45650Y-18223D01*
X45604Y-18248D01*
X45554Y-18264D01*
X45501Y-18269D01*
X45450Y-18265D01*
X45399Y-18250D01*
X45353Y-18225D01*
X45312Y-18192D01*
X45278Y-18152D01*
X45252Y-18106D01*
X45236Y-18056D01*
X45231Y-18003D01*
X45235Y-17952D01*
X45249Y-17901D01*
X45274Y-17854D01*
X45306Y-17813D01*
X45346Y-17779D01*
X45392Y-17753D01*
X45443Y-17737D01*
X45495Y-17731D01*
X45546Y-17735D01*
X45597Y-17749D01*
X45644Y-17773D01*
X45686Y-17805D01*
X45720Y-17845D01*
X45746Y-17891D01*
X45763Y-17941D01*
X45769Y-17993D01*
X45770Y-18000D01*
X49230Y-10730D02*
X49230Y-11270D01*
X49770Y-11270D01*
X49770Y-10730D01*
X49230Y-10730D01*
X45770Y-11000D02*
X45764Y-11052D01*
X45749Y-11102D01*
X45724Y-11149D01*
X45691Y-11190D01*
X45650Y-11223D01*
X45604Y-11248D01*
X45554Y-11264D01*
X45501Y-11269D01*
X45450Y-11265D01*
X45399Y-11250D01*
X45353Y-11225D01*
X45312Y-11192D01*
X45278Y-11152D01*
X45252Y-11106D01*
X45236Y-11056D01*
X45231Y-11003D01*
X45235Y-10952D01*
X45249Y-10901D01*
X45274Y-10854D01*
X45306Y-10813D01*
X45346Y-10779D01*
X45392Y-10753D01*
X45443Y-10737D01*
X45495Y-10731D01*
X45546Y-10735D01*
X45597Y-10749D01*
X45644Y-10773D01*
X45686Y-10805D01*
X45720Y-10845D01*
X45746Y-10891D01*
X45763Y-10941D01*
X45769Y-10993D01*
X45770Y-11000D01*
X21245Y-19000D02*
X21240Y-19047D01*
X21226Y-19093D01*
X21204Y-19135D01*
X21173Y-19172D01*
X21137Y-19203D01*
X21094Y-19225D01*
X21049Y-19239D01*
X21001Y-19244D01*
X20955Y-19240D01*
X20909Y-19227D01*
X20866Y-19205D01*
X20829Y-19175D01*
X20798Y-19138D01*
X20775Y-19096D01*
X20761Y-19050D01*
X20756Y-19003D01*
X20760Y-18956D01*
X20773Y-18910D01*
X20795Y-18868D01*
X20824Y-18830D01*
X20861Y-18799D01*
X20902Y-18776D01*
X20948Y-18761D01*
X20995Y-18756D01*
X21042Y-18759D01*
X21088Y-18772D01*
X21131Y-18794D01*
X21168Y-18823D01*
X21200Y-18859D01*
X21223Y-18901D01*
X21238Y-18946D01*
X21244Y-18994D01*
X21245Y-19000D01*
X21245Y-20000D02*
X21240Y-20047D01*
X21226Y-20093D01*
X21204Y-20135D01*
X21173Y-20172D01*
X21137Y-20203D01*
X21094Y-20225D01*
X21049Y-20239D01*
X21001Y-20244D01*
X20955Y-20240D01*
X20909Y-20227D01*
X20866Y-20205D01*
X20829Y-20175D01*
X20798Y-20138D01*
X20775Y-20096D01*
X20761Y-20050D01*
X20756Y-20003D01*
X20760Y-19956D01*
X20773Y-19910D01*
X20795Y-19868D01*
X20824Y-19830D01*
X20861Y-19799D01*
X20902Y-19776D01*
X20948Y-19761D01*
X20995Y-19756D01*
X21042Y-19759D01*
X21088Y-19772D01*
X21131Y-19794D01*
X21168Y-19823D01*
X21200Y-19859D01*
X21223Y-19901D01*
X21238Y-19946D01*
X21244Y-19994D01*
X21245Y-20000D01*
X21245Y-21000D02*
X21240Y-21047D01*
X21226Y-21093D01*
X21204Y-21135D01*
X21173Y-21172D01*
X21137Y-21203D01*
X21094Y-21225D01*
X21049Y-21239D01*
X21001Y-21244D01*
X20955Y-21240D01*
X20909Y-21227D01*
X20866Y-21205D01*
X20829Y-21175D01*
X20798Y-21138D01*
X20775Y-21096D01*
X20761Y-21050D01*
X20756Y-21003D01*
X20760Y-20956D01*
X20773Y-20910D01*
X20795Y-20868D01*
X20824Y-20830D01*
X20861Y-20799D01*
X20902Y-20776D01*
X20948Y-20761D01*
X20995Y-20756D01*
X21042Y-20759D01*
X21088Y-20772D01*
X21131Y-20794D01*
X21168Y-20823D01*
X21200Y-20859D01*
X21223Y-20901D01*
X21238Y-20946D01*
X21244Y-20994D01*
X21245Y-21000D01*
X21245Y-22000D02*
X21240Y-22047D01*
X21226Y-22093D01*
X21204Y-22135D01*
X21173Y-22172D01*
X21137Y-22203D01*
X21094Y-22225D01*
X21049Y-22239D01*
X21001Y-22244D01*
X20955Y-22240D01*
X20909Y-22227D01*
X20866Y-22205D01*
X20829Y-22175D01*
X20798Y-22138D01*
X20775Y-22096D01*
X20761Y-22050D01*
X20756Y-22003D01*
X20760Y-21956D01*
X20773Y-21910D01*
X20795Y-21868D01*
X20824Y-21830D01*
X20861Y-21799D01*
X20902Y-21776D01*
X20948Y-21761D01*
X20995Y-21756D01*
X21042Y-21759D01*
X21088Y-21772D01*
X21131Y-21794D01*
X21168Y-21823D01*
X21200Y-21859D01*
X21223Y-21901D01*
X21238Y-21946D01*
X21244Y-21994D01*
X21245Y-22000D01*
X21245Y-23000D02*
X21240Y-23047D01*
X21226Y-23093D01*
X21204Y-23135D01*
X21173Y-23172D01*
X21137Y-23203D01*
X21094Y-23225D01*
X21049Y-23239D01*
X21001Y-23244D01*
X20955Y-23240D01*
X20909Y-23227D01*
X20866Y-23205D01*
X20829Y-23175D01*
X20798Y-23138D01*
X20775Y-23096D01*
X20761Y-23050D01*
X20756Y-23003D01*
X20760Y-22956D01*
X20773Y-22910D01*
X20795Y-22868D01*
X20824Y-22830D01*
X20861Y-22799D01*
X20902Y-22776D01*
X20948Y-22761D01*
X20995Y-22756D01*
X21042Y-22759D01*
X21088Y-22772D01*
X21131Y-22794D01*
X21168Y-22823D01*
X21200Y-22859D01*
X21223Y-22901D01*
X21238Y-22946D01*
X21244Y-22994D01*
X21245Y-23000D01*
X21245Y-24000D02*
X21240Y-24047D01*
X21226Y-24093D01*
X21204Y-24135D01*
X21173Y-24172D01*
X21137Y-24203D01*
X21094Y-24225D01*
X21049Y-24239D01*
X21001Y-24244D01*
X20955Y-24240D01*
X20909Y-24227D01*
X20866Y-24205D01*
X20829Y-24175D01*
X20798Y-24138D01*
X20775Y-24096D01*
X20761Y-24050D01*
X20756Y-24003D01*
X20760Y-23956D01*
X20773Y-23910D01*
X20795Y-23868D01*
X20824Y-23830D01*
X20861Y-23799D01*
X20902Y-23776D01*
X20948Y-23761D01*
X20995Y-23756D01*
X21042Y-23759D01*
X21088Y-23772D01*
X21131Y-23794D01*
X21168Y-23823D01*
X21200Y-23859D01*
X21223Y-23901D01*
X21238Y-23946D01*
X21244Y-23994D01*
X21245Y-24000D01*
X21245Y-25000D02*
X21240Y-25047D01*
X21226Y-25093D01*
X21204Y-25135D01*
X21173Y-25172D01*
X21137Y-25203D01*
X21094Y-25225D01*
X21049Y-25239D01*
X21001Y-25244D01*
X20955Y-25240D01*
X20909Y-25227D01*
X20866Y-25205D01*
X20829Y-25175D01*
X20798Y-25138D01*
X20775Y-25096D01*
X20761Y-25050D01*
X20756Y-25003D01*
X20760Y-24956D01*
X20773Y-24910D01*
X20795Y-24868D01*
X20824Y-24830D01*
X20861Y-24799D01*
X20902Y-24776D01*
X20948Y-24761D01*
X20995Y-24756D01*
X21042Y-24759D01*
X21088Y-24772D01*
X21131Y-24794D01*
X21168Y-24823D01*
X21200Y-24859D01*
X21223Y-24901D01*
X21238Y-24946D01*
X21244Y-24994D01*
X21245Y-25000D01*
X21245Y-26000D02*
X21240Y-26047D01*
X21226Y-26093D01*
X21204Y-26135D01*
X21173Y-26172D01*
X21137Y-26203D01*
X21094Y-26225D01*
X21049Y-26239D01*
X21001Y-26244D01*
X20955Y-26240D01*
X20909Y-26227D01*
X20866Y-26205D01*
X20829Y-26175D01*
X20798Y-26138D01*
X20775Y-26096D01*
X20761Y-26050D01*
X20756Y-26003D01*
X20760Y-25956D01*
X20773Y-25910D01*
X20795Y-25868D01*
X20824Y-25830D01*
X20861Y-25799D01*
X20902Y-25776D01*
X20948Y-25761D01*
X20995Y-25756D01*
X21042Y-25759D01*
X21088Y-25772D01*
X21131Y-25794D01*
X21168Y-25823D01*
X21200Y-25859D01*
X21223Y-25901D01*
X21238Y-25946D01*
X21244Y-25994D01*
X21245Y-26000D01*
X21245Y-27000D02*
X21240Y-27047D01*
X21226Y-27093D01*
X21204Y-27135D01*
X21173Y-27172D01*
X21137Y-27203D01*
X21094Y-27225D01*
X21049Y-27239D01*
X21001Y-27244D01*
X20955Y-27240D01*
X20909Y-27227D01*
X20866Y-27205D01*
X20829Y-27175D01*
X20798Y-27138D01*
X20775Y-27096D01*
X20761Y-27050D01*
X20756Y-27003D01*
X20760Y-26956D01*
X20773Y-26910D01*
X20795Y-26868D01*
X20824Y-26830D01*
X20861Y-26799D01*
X20902Y-26776D01*
X20948Y-26761D01*
X20995Y-26756D01*
X21042Y-26759D01*
X21088Y-26772D01*
X21131Y-26794D01*
X21168Y-26823D01*
X21200Y-26859D01*
X21223Y-26901D01*
X21238Y-26946D01*
X21244Y-26994D01*
X21245Y-27000D01*
X21245Y-28000D02*
X21240Y-28047D01*
X21226Y-28093D01*
X21204Y-28135D01*
X21173Y-28172D01*
X21137Y-28203D01*
X21094Y-28225D01*
X21049Y-28239D01*
X21001Y-28244D01*
X20955Y-28240D01*
X20909Y-28227D01*
X20866Y-28205D01*
X20829Y-28175D01*
X20798Y-28138D01*
X20775Y-28096D01*
X20761Y-28050D01*
X20756Y-28003D01*
X20760Y-27956D01*
X20773Y-27910D01*
X20795Y-27868D01*
X20824Y-27830D01*
X20861Y-27799D01*
X20902Y-27776D01*
X20948Y-27761D01*
X20995Y-27756D01*
X21042Y-27759D01*
X21088Y-27772D01*
X21131Y-27794D01*
X21168Y-27823D01*
X21200Y-27859D01*
X21223Y-27901D01*
X21238Y-27946D01*
X21244Y-27994D01*
X21245Y-28000D01*
X21245Y-29000D02*
X21240Y-29047D01*
X21226Y-29093D01*
X21204Y-29135D01*
X21173Y-29172D01*
X21137Y-29203D01*
X21094Y-29225D01*
X21049Y-29239D01*
X21001Y-29244D01*
X20955Y-29240D01*
X20909Y-29227D01*
X20866Y-29205D01*
X20829Y-29175D01*
X20798Y-29138D01*
X20775Y-29096D01*
X20761Y-29050D01*
X20756Y-29003D01*
X20760Y-28956D01*
X20773Y-28910D01*
X20795Y-28868D01*
X20824Y-28830D01*
X20861Y-28799D01*
X20902Y-28776D01*
X20948Y-28761D01*
X20995Y-28756D01*
X21042Y-28759D01*
X21088Y-28772D01*
X21131Y-28794D01*
X21168Y-28823D01*
X21200Y-28859D01*
X21223Y-28901D01*
X21238Y-28946D01*
X21244Y-28994D01*
X21245Y-29000D01*
X21245Y-30000D02*
X21240Y-30047D01*
X21226Y-30093D01*
X21204Y-30135D01*
X21173Y-30172D01*
X21137Y-30203D01*
X21094Y-30225D01*
X21049Y-30239D01*
X21001Y-30244D01*
X20955Y-30240D01*
X20909Y-30227D01*
X20866Y-30205D01*
X20829Y-30175D01*
X20798Y-30138D01*
X20775Y-30096D01*
X20761Y-30050D01*
X20756Y-30003D01*
X20760Y-29956D01*
X20773Y-29910D01*
X20795Y-29868D01*
X20824Y-29830D01*
X20861Y-29799D01*
X20902Y-29776D01*
X20948Y-29761D01*
X20995Y-29756D01*
X21042Y-29759D01*
X21088Y-29772D01*
X21131Y-29794D01*
X21168Y-29823D01*
X21200Y-29859D01*
X21223Y-29901D01*
X21238Y-29946D01*
X21244Y-29994D01*
X21245Y-30000D01*
X21245Y-31000D02*
X21240Y-31047D01*
X21226Y-31093D01*
X21204Y-31135D01*
X21173Y-31172D01*
X21137Y-31203D01*
X21094Y-31225D01*
X21049Y-31239D01*
X21001Y-31244D01*
X20955Y-31240D01*
X20909Y-31227D01*
X20866Y-31205D01*
X20829Y-31175D01*
X20798Y-31138D01*
X20775Y-31096D01*
X20761Y-31050D01*
X20756Y-31003D01*
X20760Y-30956D01*
X20773Y-30910D01*
X20795Y-30868D01*
X20824Y-30830D01*
X20861Y-30799D01*
X20902Y-30776D01*
X20948Y-30761D01*
X20995Y-30756D01*
X21042Y-30759D01*
X21088Y-30772D01*
X21131Y-30794D01*
X21168Y-30823D01*
X21200Y-30859D01*
X21223Y-30901D01*
X21238Y-30946D01*
X21244Y-30994D01*
X21245Y-31000D01*
X20755Y-17755D02*
X20755Y-18245D01*
X21245Y-18245D01*
X21245Y-17755D01*
X20755Y-17755D01*
X24245Y-31000D02*
X24240Y-31047D01*
X24226Y-31093D01*
X24204Y-31135D01*
X24173Y-31172D01*
X24137Y-31203D01*
X24094Y-31225D01*
X24049Y-31239D01*
X24001Y-31244D01*
X23955Y-31240D01*
X23909Y-31227D01*
X23866Y-31205D01*
X23829Y-31175D01*
X23798Y-31138D01*
X23775Y-31096D01*
X23761Y-31050D01*
X23756Y-31003D01*
X23760Y-30956D01*
X23773Y-30910D01*
X23795Y-30868D01*
X23824Y-30830D01*
X23861Y-30799D01*
X23902Y-30776D01*
X23948Y-30761D01*
X23995Y-30756D01*
X24042Y-30759D01*
X24088Y-30772D01*
X24131Y-30794D01*
X24168Y-30823D01*
X24200Y-30859D01*
X24223Y-30901D01*
X24238Y-30946D01*
X24244Y-30994D01*
X24245Y-31000D01*
X24245Y-30000D02*
X24240Y-30047D01*
X24226Y-30093D01*
X24204Y-30135D01*
X24173Y-30172D01*
X24137Y-30203D01*
X24094Y-30225D01*
X24049Y-30239D01*
X24001Y-30244D01*
X23955Y-30240D01*
X23909Y-30227D01*
X23866Y-30205D01*
X23829Y-30175D01*
X23798Y-30138D01*
X23775Y-30096D01*
X23761Y-30050D01*
X23756Y-30003D01*
X23760Y-29956D01*
X23773Y-29910D01*
X23795Y-29868D01*
X23824Y-29830D01*
X23861Y-29799D01*
X23902Y-29776D01*
X23948Y-29761D01*
X23995Y-29756D01*
X24042Y-29759D01*
X24088Y-29772D01*
X24131Y-29794D01*
X24168Y-29823D01*
X24200Y-29859D01*
X24223Y-29901D01*
X24238Y-29946D01*
X24244Y-29994D01*
X24245Y-30000D01*
X24245Y-29000D02*
X24240Y-29047D01*
X24226Y-29093D01*
X24204Y-29135D01*
X24173Y-29172D01*
X24137Y-29203D01*
X24094Y-29225D01*
X24049Y-29239D01*
X24001Y-29244D01*
X23955Y-29240D01*
X23909Y-29227D01*
X23866Y-29205D01*
X23829Y-29175D01*
X23798Y-29138D01*
X23775Y-29096D01*
X23761Y-29050D01*
X23756Y-29003D01*
X23760Y-28956D01*
X23773Y-28910D01*
X23795Y-28868D01*
X23824Y-28830D01*
X23861Y-28799D01*
X23902Y-28776D01*
X23948Y-28761D01*
X23995Y-28756D01*
X24042Y-28759D01*
X24088Y-28772D01*
X24131Y-28794D01*
X24168Y-28823D01*
X24200Y-28859D01*
X24223Y-28901D01*
X24238Y-28946D01*
X24244Y-28994D01*
X24245Y-29000D01*
X24245Y-28000D02*
X24240Y-28047D01*
X24226Y-28093D01*
X24204Y-28135D01*
X24173Y-28172D01*
X24137Y-28203D01*
X24094Y-28225D01*
X24049Y-28239D01*
X24001Y-28244D01*
X23955Y-28240D01*
X23909Y-28227D01*
X23866Y-28205D01*
X23829Y-28175D01*
X23798Y-28138D01*
X23775Y-28096D01*
X23761Y-28050D01*
X23756Y-28003D01*
X23760Y-27956D01*
X23773Y-27910D01*
X23795Y-27868D01*
X23824Y-27830D01*
X23861Y-27799D01*
X23902Y-27776D01*
X23948Y-27761D01*
X23995Y-27756D01*
X24042Y-27759D01*
X24088Y-27772D01*
X24131Y-27794D01*
X24168Y-27823D01*
X24200Y-27859D01*
X24223Y-27901D01*
X24238Y-27946D01*
X24244Y-27994D01*
X24245Y-28000D01*
X24245Y-27000D02*
X24240Y-27047D01*
X24226Y-27093D01*
X24204Y-27135D01*
X24173Y-27172D01*
X24137Y-27203D01*
X24094Y-27225D01*
X24049Y-27239D01*
X24001Y-27244D01*
X23955Y-27240D01*
X23909Y-27227D01*
X23866Y-27205D01*
X23829Y-27175D01*
X23798Y-27138D01*
X23775Y-27096D01*
X23761Y-27050D01*
X23756Y-27003D01*
X23760Y-26956D01*
X23773Y-26910D01*
X23795Y-26868D01*
X23824Y-26830D01*
X23861Y-26799D01*
X23902Y-26776D01*
X23948Y-26761D01*
X23995Y-26756D01*
X24042Y-26759D01*
X24088Y-26772D01*
X24131Y-26794D01*
X24168Y-26823D01*
X24200Y-26859D01*
X24223Y-26901D01*
X24238Y-26946D01*
X24244Y-26994D01*
X24245Y-27000D01*
X24245Y-26000D02*
X24240Y-26047D01*
X24226Y-26093D01*
X24204Y-26135D01*
X24173Y-26172D01*
X24137Y-26203D01*
X24094Y-26225D01*
X24049Y-26239D01*
X24001Y-26244D01*
X23955Y-26240D01*
X23909Y-26227D01*
X23866Y-26205D01*
X23829Y-26175D01*
X23798Y-26138D01*
X23775Y-26096D01*
X23761Y-26050D01*
X23756Y-26003D01*
X23760Y-25956D01*
X23773Y-25910D01*
X23795Y-25868D01*
X23824Y-25830D01*
X23861Y-25799D01*
X23902Y-25776D01*
X23948Y-25761D01*
X23995Y-25756D01*
X24042Y-25759D01*
X24088Y-25772D01*
X24131Y-25794D01*
X24168Y-25823D01*
X24200Y-25859D01*
X24223Y-25901D01*
X24238Y-25946D01*
X24244Y-25994D01*
X24245Y-26000D01*
X24245Y-25000D02*
X24240Y-25047D01*
X24226Y-25093D01*
X24204Y-25135D01*
X24173Y-25172D01*
X24137Y-25203D01*
X24094Y-25225D01*
X24049Y-25239D01*
X24001Y-25244D01*
X23955Y-25240D01*
X23909Y-25227D01*
X23866Y-25205D01*
X23829Y-25175D01*
X23798Y-25138D01*
X23775Y-25096D01*
X23761Y-25050D01*
X23756Y-25003D01*
X23760Y-24956D01*
X23773Y-24910D01*
X23795Y-24868D01*
X23824Y-24830D01*
X23861Y-24799D01*
X23902Y-24776D01*
X23948Y-24761D01*
X23995Y-24756D01*
X24042Y-24759D01*
X24088Y-24772D01*
X24131Y-24794D01*
X24168Y-24823D01*
X24200Y-24859D01*
X24223Y-24901D01*
X24238Y-24946D01*
X24244Y-24994D01*
X24245Y-25000D01*
X24245Y-24000D02*
X24240Y-24047D01*
X24226Y-24093D01*
X24204Y-24135D01*
X24173Y-24172D01*
X24137Y-24203D01*
X24094Y-24225D01*
X24049Y-24239D01*
X24001Y-24244D01*
X23955Y-24240D01*
X23909Y-24227D01*
X23866Y-24205D01*
X23829Y-24175D01*
X23798Y-24138D01*
X23775Y-24096D01*
X23761Y-24050D01*
X23756Y-24003D01*
X23760Y-23956D01*
X23773Y-23910D01*
X23795Y-23868D01*
X23824Y-23830D01*
X23861Y-23799D01*
X23902Y-23776D01*
X23948Y-23761D01*
X23995Y-23756D01*
X24042Y-23759D01*
X24088Y-23772D01*
X24131Y-23794D01*
X24168Y-23823D01*
X24200Y-23859D01*
X24223Y-23901D01*
X24238Y-23946D01*
X24244Y-23994D01*
X24245Y-24000D01*
X24245Y-23000D02*
X24240Y-23047D01*
X24226Y-23093D01*
X24204Y-23135D01*
X24173Y-23172D01*
X24137Y-23203D01*
X24094Y-23225D01*
X24049Y-23239D01*
X24001Y-23244D01*
X23955Y-23240D01*
X23909Y-23227D01*
X23866Y-23205D01*
X23829Y-23175D01*
X23798Y-23138D01*
X23775Y-23096D01*
X23761Y-23050D01*
X23756Y-23003D01*
X23760Y-22956D01*
X23773Y-22910D01*
X23795Y-22868D01*
X23824Y-22830D01*
X23861Y-22799D01*
X23902Y-22776D01*
X23948Y-22761D01*
X23995Y-22756D01*
X24042Y-22759D01*
X24088Y-22772D01*
X24131Y-22794D01*
X24168Y-22823D01*
X24200Y-22859D01*
X24223Y-22901D01*
X24238Y-22946D01*
X24244Y-22994D01*
X24245Y-23000D01*
X24245Y-22000D02*
X24240Y-22047D01*
X24226Y-22093D01*
X24204Y-22135D01*
X24173Y-22172D01*
X24137Y-22203D01*
X24094Y-22225D01*
X24049Y-22239D01*
X24001Y-22244D01*
X23955Y-22240D01*
X23909Y-22227D01*
X23866Y-22205D01*
X23829Y-22175D01*
X23798Y-22138D01*
X23775Y-22096D01*
X23761Y-22050D01*
X23756Y-22003D01*
X23760Y-21956D01*
X23773Y-21910D01*
X23795Y-21868D01*
X23824Y-21830D01*
X23861Y-21799D01*
X23902Y-21776D01*
X23948Y-21761D01*
X23995Y-21756D01*
X24042Y-21759D01*
X24088Y-21772D01*
X24131Y-21794D01*
X24168Y-21823D01*
X24200Y-21859D01*
X24223Y-21901D01*
X24238Y-21946D01*
X24244Y-21994D01*
X24245Y-22000D01*
X24245Y-21000D02*
X24240Y-21047D01*
X24226Y-21093D01*
X24204Y-21135D01*
X24173Y-21172D01*
X24137Y-21203D01*
X24094Y-21225D01*
X24049Y-21239D01*
X24001Y-21244D01*
X23955Y-21240D01*
X23909Y-21227D01*
X23866Y-21205D01*
X23829Y-21175D01*
X23798Y-21138D01*
X23775Y-21096D01*
X23761Y-21050D01*
X23756Y-21003D01*
X23760Y-20956D01*
X23773Y-20910D01*
X23795Y-20868D01*
X23824Y-20830D01*
X23861Y-20799D01*
X23902Y-20776D01*
X23948Y-20761D01*
X23995Y-20756D01*
X24042Y-20759D01*
X24088Y-20772D01*
X24131Y-20794D01*
X24168Y-20823D01*
X24200Y-20859D01*
X24223Y-20901D01*
X24238Y-20946D01*
X24244Y-20994D01*
X24245Y-21000D01*
X24245Y-20000D02*
X24240Y-20047D01*
X24226Y-20093D01*
X24204Y-20135D01*
X24173Y-20172D01*
X24137Y-20203D01*
X24094Y-20225D01*
X24049Y-20239D01*
X24001Y-20244D01*
X23955Y-20240D01*
X23909Y-20227D01*
X23866Y-20205D01*
X23829Y-20175D01*
X23798Y-20138D01*
X23775Y-20096D01*
X23761Y-20050D01*
X23756Y-20003D01*
X23760Y-19956D01*
X23773Y-19910D01*
X23795Y-19868D01*
X23824Y-19830D01*
X23861Y-19799D01*
X23902Y-19776D01*
X23948Y-19761D01*
X23995Y-19756D01*
X24042Y-19759D01*
X24088Y-19772D01*
X24131Y-19794D01*
X24168Y-19823D01*
X24200Y-19859D01*
X24223Y-19901D01*
X24238Y-19946D01*
X24244Y-19994D01*
X24245Y-20000D01*
X24245Y-19000D02*
X24240Y-19047D01*
X24226Y-19093D01*
X24204Y-19135D01*
X24173Y-19172D01*
X24137Y-19203D01*
X24094Y-19225D01*
X24049Y-19239D01*
X24001Y-19244D01*
X23955Y-19240D01*
X23909Y-19227D01*
X23866Y-19205D01*
X23829Y-19175D01*
X23798Y-19138D01*
X23775Y-19096D01*
X23761Y-19050D01*
X23756Y-19003D01*
X23760Y-18956D01*
X23773Y-18910D01*
X23795Y-18868D01*
X23824Y-18830D01*
X23861Y-18799D01*
X23902Y-18776D01*
X23948Y-18761D01*
X23995Y-18756D01*
X24042Y-18759D01*
X24088Y-18772D01*
X24131Y-18794D01*
X24168Y-18823D01*
X24200Y-18859D01*
X24223Y-18901D01*
X24238Y-18946D01*
X24244Y-18994D01*
X24245Y-19000D01*
X24245Y-18000D02*
X24240Y-18047D01*
X24226Y-18093D01*
X24204Y-18135D01*
X24173Y-18172D01*
X24137Y-18203D01*
X24094Y-18225D01*
X24049Y-18239D01*
X24001Y-18244D01*
X23955Y-18240D01*
X23909Y-18227D01*
X23866Y-18205D01*
X23829Y-18175D01*
X23798Y-18138D01*
X23775Y-18096D01*
X23761Y-18050D01*
X23756Y-18003D01*
X23760Y-17956D01*
X23773Y-17910D01*
X23795Y-17868D01*
X23824Y-17830D01*
X23861Y-17799D01*
X23902Y-17776D01*
X23948Y-17761D01*
X23995Y-17756D01*
X24042Y-17759D01*
X24088Y-17772D01*
X24131Y-17794D01*
X24168Y-17823D01*
X24200Y-17859D01*
X24223Y-17901D01*
X24238Y-17946D01*
X24244Y-17994D01*
X24245Y-18000D01*
X33755Y-23255D02*
X33755Y-23745D01*
X34245Y-23745D01*
X34245Y-23255D01*
X33755Y-23255D01*
X34245Y-24500D02*
X34240Y-24547D01*
X34226Y-24593D01*
X34204Y-24635D01*
X34173Y-24672D01*
X34137Y-24703D01*
X34094Y-24725D01*
X34049Y-24739D01*
X34001Y-24744D01*
X33955Y-24740D01*
X33909Y-24727D01*
X33866Y-24705D01*
X33829Y-24675D01*
X33798Y-24638D01*
X33775Y-24596D01*
X33761Y-24550D01*
X33756Y-24503D01*
X33760Y-24456D01*
X33773Y-24410D01*
X33795Y-24368D01*
X33824Y-24330D01*
X33861Y-24299D01*
X33902Y-24276D01*
X33948Y-24261D01*
X33995Y-24256D01*
X34042Y-24259D01*
X34088Y-24272D01*
X34131Y-24294D01*
X34168Y-24323D01*
X34200Y-24359D01*
X34223Y-24401D01*
X34238Y-24446D01*
X34244Y-24494D01*
X34245Y-24500D01*
X34245Y-25500D02*
X34240Y-25547D01*
X34226Y-25593D01*
X34204Y-25635D01*
X34173Y-25672D01*
X34137Y-25703D01*
X34094Y-25725D01*
X34049Y-25739D01*
X34001Y-25744D01*
X33955Y-25740D01*
X33909Y-25727D01*
X33866Y-25705D01*
X33829Y-25675D01*
X33798Y-25638D01*
X33775Y-25596D01*
X33761Y-25550D01*
X33756Y-25503D01*
X33760Y-25456D01*
X33773Y-25410D01*
X33795Y-25368D01*
X33824Y-25330D01*
X33861Y-25299D01*
X33902Y-25276D01*
X33948Y-25261D01*
X33995Y-25256D01*
X34042Y-25259D01*
X34088Y-25272D01*
X34131Y-25294D01*
X34168Y-25323D01*
X34200Y-25359D01*
X34223Y-25401D01*
X34238Y-25446D01*
X34244Y-25494D01*
X34245Y-25500D01*
X34245Y-26500D02*
X34240Y-26547D01*
X34226Y-26593D01*
X34204Y-26635D01*
X34173Y-26672D01*
X34137Y-26703D01*
X34094Y-26725D01*
X34049Y-26739D01*
X34001Y-26744D01*
X33955Y-26740D01*
X33909Y-26727D01*
X33866Y-26705D01*
X33829Y-26675D01*
X33798Y-26638D01*
X33775Y-26596D01*
X33761Y-26550D01*
X33756Y-26503D01*
X33760Y-26456D01*
X33773Y-26410D01*
X33795Y-26368D01*
X33824Y-26330D01*
X33861Y-26299D01*
X33902Y-26276D01*
X33948Y-26261D01*
X33995Y-26256D01*
X34042Y-26259D01*
X34088Y-26272D01*
X34131Y-26294D01*
X34168Y-26323D01*
X34200Y-26359D01*
X34223Y-26401D01*
X34238Y-26446D01*
X34244Y-26494D01*
X34245Y-26500D01*
X34245Y-27500D02*
X34240Y-27547D01*
X34226Y-27593D01*
X34204Y-27635D01*
X34173Y-27672D01*
X34137Y-27703D01*
X34094Y-27725D01*
X34049Y-27739D01*
X34001Y-27744D01*
X33955Y-27740D01*
X33909Y-27727D01*
X33866Y-27705D01*
X33829Y-27675D01*
X33798Y-27638D01*
X33775Y-27596D01*
X33761Y-27550D01*
X33756Y-27503D01*
X33760Y-27456D01*
X33773Y-27410D01*
X33795Y-27368D01*
X33824Y-27330D01*
X33861Y-27299D01*
X33902Y-27276D01*
X33948Y-27261D01*
X33995Y-27256D01*
X34042Y-27259D01*
X34088Y-27272D01*
X34131Y-27294D01*
X34168Y-27323D01*
X34200Y-27359D01*
X34223Y-27401D01*
X34238Y-27446D01*
X34244Y-27494D01*
X34245Y-27500D01*
X34245Y-28500D02*
X34240Y-28547D01*
X34226Y-28593D01*
X34204Y-28635D01*
X34173Y-28672D01*
X34137Y-28703D01*
X34094Y-28725D01*
X34049Y-28739D01*
X34001Y-28744D01*
X33955Y-28740D01*
X33909Y-28727D01*
X33866Y-28705D01*
X33829Y-28675D01*
X33798Y-28638D01*
X33775Y-28596D01*
X33761Y-28550D01*
X33756Y-28503D01*
X33760Y-28456D01*
X33773Y-28410D01*
X33795Y-28368D01*
X33824Y-28330D01*
X33861Y-28299D01*
X33902Y-28276D01*
X33948Y-28261D01*
X33995Y-28256D01*
X34042Y-28259D01*
X34088Y-28272D01*
X34131Y-28294D01*
X34168Y-28323D01*
X34200Y-28359D01*
X34223Y-28401D01*
X34238Y-28446D01*
X34244Y-28494D01*
X34245Y-28500D01*
X34245Y-29500D02*
X34240Y-29547D01*
X34226Y-29593D01*
X34204Y-29635D01*
X34173Y-29672D01*
X34137Y-29703D01*
X34094Y-29725D01*
X34049Y-29739D01*
X34001Y-29744D01*
X33955Y-29740D01*
X33909Y-29727D01*
X33866Y-29705D01*
X33829Y-29675D01*
X33798Y-29638D01*
X33775Y-29596D01*
X33761Y-29550D01*
X33756Y-29503D01*
X33760Y-29456D01*
X33773Y-29410D01*
X33795Y-29368D01*
X33824Y-29330D01*
X33861Y-29299D01*
X33902Y-29276D01*
X33948Y-29261D01*
X33995Y-29256D01*
X34042Y-29259D01*
X34088Y-29272D01*
X34131Y-29294D01*
X34168Y-29323D01*
X34200Y-29359D01*
X34223Y-29401D01*
X34238Y-29446D01*
X34244Y-29494D01*
X34245Y-29500D01*
X37245Y-29500D02*
X37240Y-29547D01*
X37226Y-29593D01*
X37204Y-29635D01*
X37173Y-29672D01*
X37137Y-29703D01*
X37094Y-29725D01*
X37049Y-29739D01*
X37001Y-29744D01*
X36955Y-29740D01*
X36909Y-29727D01*
X36866Y-29705D01*
X36829Y-29675D01*
X36798Y-29638D01*
X36775Y-29596D01*
X36761Y-29550D01*
X36756Y-29503D01*
X36760Y-29456D01*
X36773Y-29410D01*
X36795Y-29368D01*
X36824Y-29330D01*
X36861Y-29299D01*
X36902Y-29276D01*
X36948Y-29261D01*
X36995Y-29256D01*
X37042Y-29259D01*
X37088Y-29272D01*
X37131Y-29294D01*
X37168Y-29323D01*
X37200Y-29359D01*
X37223Y-29401D01*
X37238Y-29446D01*
X37244Y-29494D01*
X37245Y-29500D01*
X37245Y-28500D02*
X37240Y-28547D01*
X37226Y-28593D01*
X37204Y-28635D01*
X37173Y-28672D01*
X37137Y-28703D01*
X37094Y-28725D01*
X37049Y-28739D01*
X37001Y-28744D01*
X36955Y-28740D01*
X36909Y-28727D01*
X36866Y-28705D01*
X36829Y-28675D01*
X36798Y-28638D01*
X36775Y-28596D01*
X36761Y-28550D01*
X36756Y-28503D01*
X36760Y-28456D01*
X36773Y-28410D01*
X36795Y-28368D01*
X36824Y-28330D01*
X36861Y-28299D01*
X36902Y-28276D01*
X36948Y-28261D01*
X36995Y-28256D01*
X37042Y-28259D01*
X37088Y-28272D01*
X37131Y-28294D01*
X37168Y-28323D01*
X37200Y-28359D01*
X37223Y-28401D01*
X37238Y-28446D01*
X37244Y-28494D01*
X37245Y-28500D01*
X37245Y-27500D02*
X37240Y-27547D01*
X37226Y-27593D01*
X37204Y-27635D01*
X37173Y-27672D01*
X37137Y-27703D01*
X37094Y-27725D01*
X37049Y-27739D01*
X37001Y-27744D01*
X36955Y-27740D01*
X36909Y-27727D01*
X36866Y-27705D01*
X36829Y-27675D01*
X36798Y-27638D01*
X36775Y-27596D01*
X36761Y-27550D01*
X36756Y-27503D01*
X36760Y-27456D01*
X36773Y-27410D01*
X36795Y-27368D01*
X36824Y-27330D01*
X36861Y-27299D01*
X36902Y-27276D01*
X36948Y-27261D01*
X36995Y-27256D01*
X37042Y-27259D01*
X37088Y-27272D01*
X37131Y-27294D01*
X37168Y-27323D01*
X37200Y-27359D01*
X37223Y-27401D01*
X37238Y-27446D01*
X37244Y-27494D01*
X37245Y-27500D01*
X37245Y-26500D02*
X37240Y-26547D01*
X37226Y-26593D01*
X37204Y-26635D01*
X37173Y-26672D01*
X37137Y-26703D01*
X37094Y-26725D01*
X37049Y-26739D01*
X37001Y-26744D01*
X36955Y-26740D01*
X36909Y-26727D01*
X36866Y-26705D01*
X36829Y-26675D01*
X36798Y-26638D01*
X36775Y-26596D01*
X36761Y-26550D01*
X36756Y-26503D01*
X36760Y-26456D01*
X36773Y-26410D01*
X36795Y-26368D01*
X36824Y-26330D01*
X36861Y-26299D01*
X36902Y-26276D01*
X36948Y-26261D01*
X36995Y-26256D01*
X37042Y-26259D01*
X37088Y-26272D01*
X37131Y-26294D01*
X37168Y-26323D01*
X37200Y-26359D01*
X37223Y-26401D01*
X37238Y-26446D01*
X37244Y-26494D01*
X37245Y-26500D01*
X37245Y-25500D02*
X37240Y-25547D01*
X37226Y-25593D01*
X37204Y-25635D01*
X37173Y-25672D01*
X37137Y-25703D01*
X37094Y-25725D01*
X37049Y-25739D01*
X37001Y-25744D01*
X36955Y-25740D01*
X36909Y-25727D01*
X36866Y-25705D01*
X36829Y-25675D01*
X36798Y-25638D01*
X36775Y-25596D01*
X36761Y-25550D01*
X36756Y-25503D01*
X36760Y-25456D01*
X36773Y-25410D01*
X36795Y-25368D01*
X36824Y-25330D01*
X36861Y-25299D01*
X36902Y-25276D01*
X36948Y-25261D01*
X36995Y-25256D01*
X37042Y-25259D01*
X37088Y-25272D01*
X37131Y-25294D01*
X37168Y-25323D01*
X37200Y-25359D01*
X37223Y-25401D01*
X37238Y-25446D01*
X37244Y-25494D01*
X37245Y-25500D01*
X37245Y-24500D02*
X37240Y-24547D01*
X37226Y-24593D01*
X37204Y-24635D01*
X37173Y-24672D01*
X37137Y-24703D01*
X37094Y-24725D01*
X37049Y-24739D01*
X37001Y-24744D01*
X36955Y-24740D01*
X36909Y-24727D01*
X36866Y-24705D01*
X36829Y-24675D01*
X36798Y-24638D01*
X36775Y-24596D01*
X36761Y-24550D01*
X36756Y-24503D01*
X36760Y-24456D01*
X36773Y-24410D01*
X36795Y-24368D01*
X36824Y-24330D01*
X36861Y-24299D01*
X36902Y-24276D01*
X36948Y-24261D01*
X36995Y-24256D01*
X37042Y-24259D01*
X37088Y-24272D01*
X37131Y-24294D01*
X37168Y-24323D01*
X37200Y-24359D01*
X37223Y-24401D01*
X37238Y-24446D01*
X37244Y-24494D01*
X37245Y-24500D01*
X37245Y-23500D02*
X37240Y-23547D01*
X37226Y-23593D01*
X37204Y-23635D01*
X37173Y-23672D01*
X37137Y-23703D01*
X37094Y-23725D01*
X37049Y-23739D01*
X37001Y-23744D01*
X36955Y-23740D01*
X36909Y-23727D01*
X36866Y-23705D01*
X36829Y-23675D01*
X36798Y-23638D01*
X36775Y-23596D01*
X36761Y-23550D01*
X36756Y-23503D01*
X36760Y-23456D01*
X36773Y-23410D01*
X36795Y-23368D01*
X36824Y-23330D01*
X36861Y-23299D01*
X36902Y-23276D01*
X36948Y-23261D01*
X36995Y-23256D01*
X37042Y-23259D01*
X37088Y-23272D01*
X37131Y-23294D01*
X37168Y-23323D01*
X37200Y-23359D01*
X37223Y-23401D01*
X37238Y-23446D01*
X37244Y-23494D01*
X37245Y-23500D01*
X15745Y-25000D02*
X15740Y-25047D01*
X15726Y-25093D01*
X15704Y-25135D01*
X15673Y-25172D01*
X15637Y-25203D01*
X15594Y-25225D01*
X15549Y-25239D01*
X15501Y-25244D01*
X15455Y-25240D01*
X15409Y-25227D01*
X15366Y-25205D01*
X15329Y-25175D01*
X15298Y-25138D01*
X15275Y-25096D01*
X15261Y-25050D01*
X15256Y-25003D01*
X15260Y-24956D01*
X15273Y-24910D01*
X15295Y-24868D01*
X15324Y-24830D01*
X15361Y-24799D01*
X15402Y-24776D01*
X15448Y-24761D01*
X15495Y-24756D01*
X15542Y-24759D01*
X15588Y-24772D01*
X15631Y-24794D01*
X15668Y-24823D01*
X15700Y-24859D01*
X15723Y-24901D01*
X15738Y-24946D01*
X15744Y-24994D01*
X15745Y-25000D01*
X15745Y-23000D02*
X15740Y-23047D01*
X15726Y-23093D01*
X15704Y-23135D01*
X15673Y-23172D01*
X15637Y-23203D01*
X15594Y-23225D01*
X15549Y-23239D01*
X15501Y-23244D01*
X15455Y-23240D01*
X15409Y-23227D01*
X15366Y-23205D01*
X15329Y-23175D01*
X15298Y-23138D01*
X15275Y-23096D01*
X15261Y-23050D01*
X15256Y-23003D01*
X15260Y-22956D01*
X15273Y-22910D01*
X15295Y-22868D01*
X15324Y-22830D01*
X15361Y-22799D01*
X15402Y-22776D01*
X15448Y-22761D01*
X15495Y-22756D01*
X15542Y-22759D01*
X15588Y-22772D01*
X15631Y-22794D01*
X15668Y-22823D01*
X15700Y-22859D01*
X15723Y-22901D01*
X15738Y-22946D01*
X15744Y-22994D01*
X15745Y-23000D01*
X16745Y-13000D02*
X16740Y-13047D01*
X16726Y-13093D01*
X16704Y-13135D01*
X16673Y-13172D01*
X16637Y-13203D01*
X16594Y-13225D01*
X16549Y-13239D01*
X16501Y-13244D01*
X16455Y-13240D01*
X16409Y-13227D01*
X16366Y-13205D01*
X16329Y-13175D01*
X16298Y-13138D01*
X16275Y-13096D01*
X16261Y-13050D01*
X16256Y-13003D01*
X16260Y-12956D01*
X16273Y-12910D01*
X16295Y-12868D01*
X16324Y-12830D01*
X16361Y-12799D01*
X16402Y-12776D01*
X16448Y-12761D01*
X16495Y-12756D01*
X16542Y-12759D01*
X16588Y-12772D01*
X16631Y-12794D01*
X16668Y-12823D01*
X16700Y-12859D01*
X16723Y-12901D01*
X16738Y-12946D01*
X16744Y-12994D01*
X16745Y-13000D01*
X14745Y-13000D02*
X14740Y-13047D01*
X14726Y-13093D01*
X14704Y-13135D01*
X14673Y-13172D01*
X14637Y-13203D01*
X14594Y-13225D01*
X14549Y-13239D01*
X14501Y-13244D01*
X14455Y-13240D01*
X14409Y-13227D01*
X14366Y-13205D01*
X14329Y-13175D01*
X14298Y-13138D01*
X14275Y-13096D01*
X14261Y-13050D01*
X14256Y-13003D01*
X14260Y-12956D01*
X14273Y-12910D01*
X14295Y-12868D01*
X14324Y-12830D01*
X14361Y-12799D01*
X14402Y-12776D01*
X14448Y-12761D01*
X14495Y-12756D01*
X14542Y-12759D01*
X14588Y-12772D01*
X14631Y-12794D01*
X14668Y-12823D01*
X14700Y-12859D01*
X14723Y-12901D01*
X14738Y-12946D01*
X14744Y-12994D01*
X14745Y-13000D01*
X12745Y-28000D02*
X12740Y-28047D01*
X12726Y-28093D01*
X12704Y-28135D01*
X12673Y-28172D01*
X12637Y-28203D01*
X12594Y-28225D01*
X12549Y-28239D01*
X12501Y-28244D01*
X12455Y-28240D01*
X12409Y-28227D01*
X12366Y-28205D01*
X12329Y-28175D01*
X12298Y-28138D01*
X12275Y-28096D01*
X12261Y-28050D01*
X12256Y-28003D01*
X12260Y-27956D01*
X12273Y-27910D01*
X12295Y-27868D01*
X12324Y-27830D01*
X12361Y-27799D01*
X12402Y-27776D01*
X12448Y-27761D01*
X12495Y-27756D01*
X12542Y-27759D01*
X12588Y-27772D01*
X12631Y-27794D01*
X12668Y-27823D01*
X12700Y-27859D01*
X12723Y-27901D01*
X12738Y-27946D01*
X12744Y-27994D01*
X12745Y-28000D01*
X12745Y-30000D02*
X12740Y-30047D01*
X12726Y-30093D01*
X12704Y-30135D01*
X12673Y-30172D01*
X12637Y-30203D01*
X12594Y-30225D01*
X12549Y-30239D01*
X12501Y-30244D01*
X12455Y-30240D01*
X12409Y-30227D01*
X12366Y-30205D01*
X12329Y-30175D01*
X12298Y-30138D01*
X12275Y-30096D01*
X12261Y-30050D01*
X12256Y-30003D01*
X12260Y-29956D01*
X12273Y-29910D01*
X12295Y-29868D01*
X12324Y-29830D01*
X12361Y-29799D01*
X12402Y-29776D01*
X12448Y-29761D01*
X12495Y-29756D01*
X12542Y-29759D01*
X12588Y-29772D01*
X12631Y-29794D01*
X12668Y-29823D01*
X12700Y-29859D01*
X12723Y-29901D01*
X12738Y-29946D01*
X12744Y-29994D01*
X12745Y-30000D01*
X27745Y-25000D02*
X27740Y-25047D01*
X27726Y-25093D01*
X27704Y-25135D01*
X27673Y-25172D01*
X27637Y-25203D01*
X27594Y-25225D01*
X27549Y-25239D01*
X27501Y-25244D01*
X27455Y-25240D01*
X27409Y-25227D01*
X27366Y-25205D01*
X27329Y-25175D01*
X27298Y-25138D01*
X27275Y-25096D01*
X27261Y-25050D01*
X27256Y-25003D01*
X27260Y-24956D01*
X27273Y-24910D01*
X27295Y-24868D01*
X27324Y-24830D01*
X27361Y-24799D01*
X27402Y-24776D01*
X27448Y-24761D01*
X27495Y-24756D01*
X27542Y-24759D01*
X27588Y-24772D01*
X27631Y-24794D01*
X27668Y-24823D01*
X27700Y-24859D01*
X27723Y-24901D01*
X27738Y-24946D01*
X27744Y-24994D01*
X27745Y-25000D01*
X27745Y-23000D02*
X27740Y-23047D01*
X27726Y-23093D01*
X27704Y-23135D01*
X27673Y-23172D01*
X27637Y-23203D01*
X27594Y-23225D01*
X27549Y-23239D01*
X27501Y-23244D01*
X27455Y-23240D01*
X27409Y-23227D01*
X27366Y-23205D01*
X27329Y-23175D01*
X27298Y-23138D01*
X27275Y-23096D01*
X27261Y-23050D01*
X27256Y-23003D01*
X27260Y-22956D01*
X27273Y-22910D01*
X27295Y-22868D01*
X27324Y-22830D01*
X27361Y-22799D01*
X27402Y-22776D01*
X27448Y-22761D01*
X27495Y-22756D01*
X27542Y-22759D01*
X27588Y-22772D01*
X27631Y-22794D01*
X27668Y-22823D01*
X27700Y-22859D01*
X27723Y-22901D01*
X27738Y-22946D01*
X27744Y-22994D01*
X27745Y-23000D01*
X26245Y-26000D02*
X26240Y-26047D01*
X26226Y-26093D01*
X26204Y-26135D01*
X26173Y-26172D01*
X26137Y-26203D01*
X26094Y-26225D01*
X26049Y-26239D01*
X26001Y-26244D01*
X25955Y-26240D01*
X25909Y-26227D01*
X25866Y-26205D01*
X25829Y-26175D01*
X25798Y-26138D01*
X25775Y-26096D01*
X25761Y-26050D01*
X25756Y-26003D01*
X25760Y-25956D01*
X25773Y-25910D01*
X25795Y-25868D01*
X25824Y-25830D01*
X25861Y-25799D01*
X25902Y-25776D01*
X25948Y-25761D01*
X25995Y-25756D01*
X26042Y-25759D01*
X26088Y-25772D01*
X26131Y-25794D01*
X26168Y-25823D01*
X26200Y-25859D01*
X26223Y-25901D01*
X26238Y-25946D01*
X26244Y-25994D01*
X26245Y-26000D01*
X26245Y-24000D02*
X26240Y-24047D01*
X26226Y-24093D01*
X26204Y-24135D01*
X26173Y-24172D01*
X26137Y-24203D01*
X26094Y-24225D01*
X26049Y-24239D01*
X26001Y-24244D01*
X25955Y-24240D01*
X25909Y-24227D01*
X25866Y-24205D01*
X25829Y-24175D01*
X25798Y-24138D01*
X25775Y-24096D01*
X25761Y-24050D01*
X25756Y-24003D01*
X25760Y-23956D01*
X25773Y-23910D01*
X25795Y-23868D01*
X25824Y-23830D01*
X25861Y-23799D01*
X25902Y-23776D01*
X25948Y-23761D01*
X25995Y-23756D01*
X26042Y-23759D01*
X26088Y-23772D01*
X26131Y-23794D01*
X26168Y-23823D01*
X26200Y-23859D01*
X26223Y-23901D01*
X26238Y-23946D01*
X26244Y-23994D01*
X26245Y-24000D01*
X18245Y-23000D02*
X18240Y-23047D01*
X18226Y-23093D01*
X18204Y-23135D01*
X18173Y-23172D01*
X18137Y-23203D01*
X18094Y-23225D01*
X18049Y-23239D01*
X18001Y-23244D01*
X17955Y-23240D01*
X17909Y-23227D01*
X17866Y-23205D01*
X17829Y-23175D01*
X17798Y-23138D01*
X17775Y-23096D01*
X17761Y-23050D01*
X17756Y-23003D01*
X17760Y-22956D01*
X17773Y-22910D01*
X17795Y-22868D01*
X17824Y-22830D01*
X17861Y-22799D01*
X17902Y-22776D01*
X17948Y-22761D01*
X17995Y-22756D01*
X18042Y-22759D01*
X18088Y-22772D01*
X18131Y-22794D01*
X18168Y-22823D01*
X18200Y-22859D01*
X18223Y-22901D01*
X18238Y-22946D01*
X18244Y-22994D01*
X18245Y-23000D01*
X18245Y-21000D02*
X18240Y-21047D01*
X18226Y-21093D01*
X18204Y-21135D01*
X18173Y-21172D01*
X18137Y-21203D01*
X18094Y-21225D01*
X18049Y-21239D01*
X18001Y-21244D01*
X17955Y-21240D01*
X17909Y-21227D01*
X17866Y-21205D01*
X17829Y-21175D01*
X17798Y-21138D01*
X17775Y-21096D01*
X17761Y-21050D01*
X17756Y-21003D01*
X17760Y-20956D01*
X17773Y-20910D01*
X17795Y-20868D01*
X17824Y-20830D01*
X17861Y-20799D01*
X17902Y-20776D01*
X17948Y-20761D01*
X17995Y-20756D01*
X18042Y-20759D01*
X18088Y-20772D01*
X18131Y-20794D01*
X18168Y-20823D01*
X18200Y-20859D01*
X18223Y-20901D01*
X18238Y-20946D01*
X18244Y-20994D01*
X18245Y-21000D01*
X41745Y-32000D02*
X41740Y-32047D01*
X41726Y-32093D01*
X41704Y-32135D01*
X41673Y-32172D01*
X41637Y-32203D01*
X41594Y-32225D01*
X41549Y-32239D01*
X41501Y-32244D01*
X41455Y-32240D01*
X41409Y-32227D01*
X41366Y-32205D01*
X41329Y-32175D01*
X41298Y-32138D01*
X41275Y-32096D01*
X41261Y-32050D01*
X41256Y-32003D01*
X41260Y-31956D01*
X41273Y-31910D01*
X41295Y-31868D01*
X41324Y-31830D01*
X41361Y-31799D01*
X41402Y-31776D01*
X41448Y-31761D01*
X41495Y-31756D01*
X41542Y-31759D01*
X41588Y-31772D01*
X41631Y-31794D01*
X41668Y-31823D01*
X41700Y-31859D01*
X41723Y-31901D01*
X41738Y-31946D01*
X41744Y-31994D01*
X41745Y-32000D01*
X39745Y-32000D02*
X39740Y-32047D01*
X39726Y-32093D01*
X39704Y-32135D01*
X39673Y-32172D01*
X39637Y-32203D01*
X39594Y-32225D01*
X39549Y-32239D01*
X39501Y-32244D01*
X39455Y-32240D01*
X39409Y-32227D01*
X39366Y-32205D01*
X39329Y-32175D01*
X39298Y-32138D01*
X39275Y-32096D01*
X39261Y-32050D01*
X39256Y-32003D01*
X39260Y-31956D01*
X39273Y-31910D01*
X39295Y-31868D01*
X39324Y-31830D01*
X39361Y-31799D01*
X39402Y-31776D01*
X39448Y-31761D01*
X39495Y-31756D01*
X39542Y-31759D01*
X39588Y-31772D01*
X39631Y-31794D01*
X39668Y-31823D01*
X39700Y-31859D01*
X39723Y-31901D01*
X39738Y-31946D01*
X39744Y-31994D01*
X39745Y-32000D01*
X34745Y-32000D02*
X34740Y-32047D01*
X34726Y-32093D01*
X34704Y-32135D01*
X34673Y-32172D01*
X34637Y-32203D01*
X34594Y-32225D01*
X34549Y-32239D01*
X34501Y-32244D01*
X34455Y-32240D01*
X34409Y-32227D01*
X34366Y-32205D01*
X34329Y-32175D01*
X34298Y-32138D01*
X34275Y-32096D01*
X34261Y-32050D01*
X34256Y-32003D01*
X34260Y-31956D01*
X34273Y-31910D01*
X34295Y-31868D01*
X34324Y-31830D01*
X34361Y-31799D01*
X34402Y-31776D01*
X34448Y-31761D01*
X34495Y-31756D01*
X34542Y-31759D01*
X34588Y-31772D01*
X34631Y-31794D01*
X34668Y-31823D01*
X34700Y-31859D01*
X34723Y-31901D01*
X34738Y-31946D01*
X34744Y-31994D01*
X34745Y-32000D01*
X36745Y-32000D02*
X36740Y-32047D01*
X36726Y-32093D01*
X36704Y-32135D01*
X36673Y-32172D01*
X36637Y-32203D01*
X36594Y-32225D01*
X36549Y-32239D01*
X36501Y-32244D01*
X36455Y-32240D01*
X36409Y-32227D01*
X36366Y-32205D01*
X36329Y-32175D01*
X36298Y-32138D01*
X36275Y-32096D01*
X36261Y-32050D01*
X36256Y-32003D01*
X36260Y-31956D01*
X36273Y-31910D01*
X36295Y-31868D01*
X36324Y-31830D01*
X36361Y-31799D01*
X36402Y-31776D01*
X36448Y-31761D01*
X36495Y-31756D01*
X36542Y-31759D01*
X36588Y-31772D01*
X36631Y-31794D01*
X36668Y-31823D01*
X36700Y-31859D01*
X36723Y-31901D01*
X36738Y-31946D01*
X36744Y-31994D01*
X36745Y-32000D01*
X29745Y-30500D02*
X29740Y-30547D01*
X29726Y-30593D01*
X29704Y-30635D01*
X29673Y-30672D01*
X29637Y-30703D01*
X29594Y-30725D01*
X29549Y-30739D01*
X29501Y-30744D01*
X29455Y-30740D01*
X29409Y-30727D01*
X29366Y-30705D01*
X29329Y-30675D01*
X29298Y-30638D01*
X29275Y-30596D01*
X29261Y-30550D01*
X29256Y-30503D01*
X29260Y-30456D01*
X29273Y-30410D01*
X29295Y-30368D01*
X29324Y-30330D01*
X29361Y-30299D01*
X29402Y-30276D01*
X29448Y-30261D01*
X29495Y-30256D01*
X29542Y-30259D01*
X29588Y-30272D01*
X29631Y-30294D01*
X29668Y-30323D01*
X29700Y-30359D01*
X29723Y-30401D01*
X29738Y-30446D01*
X29744Y-30494D01*
X29745Y-30500D01*
X31745Y-30500D02*
X31740Y-30547D01*
X31726Y-30593D01*
X31704Y-30635D01*
X31673Y-30672D01*
X31637Y-30703D01*
X31594Y-30725D01*
X31549Y-30739D01*
X31501Y-30744D01*
X31455Y-30740D01*
X31409Y-30727D01*
X31366Y-30705D01*
X31329Y-30675D01*
X31298Y-30638D01*
X31275Y-30596D01*
X31261Y-30550D01*
X31256Y-30503D01*
X31260Y-30456D01*
X31273Y-30410D01*
X31295Y-30368D01*
X31324Y-30330D01*
X31361Y-30299D01*
X31402Y-30276D01*
X31448Y-30261D01*
X31495Y-30256D01*
X31542Y-30259D01*
X31588Y-30272D01*
X31631Y-30294D01*
X31668Y-30323D01*
X31700Y-30359D01*
X31723Y-30401D01*
X31738Y-30446D01*
X31744Y-30494D01*
X31745Y-30500D01*
X41745Y-21000D02*
X41740Y-21047D01*
X41726Y-21093D01*
X41704Y-21135D01*
X41673Y-21172D01*
X41637Y-21203D01*
X41594Y-21225D01*
X41549Y-21239D01*
X41501Y-21244D01*
X41455Y-21240D01*
X41409Y-21227D01*
X41366Y-21205D01*
X41329Y-21175D01*
X41298Y-21138D01*
X41275Y-21096D01*
X41261Y-21050D01*
X41256Y-21003D01*
X41260Y-20956D01*
X41273Y-20910D01*
X41295Y-20868D01*
X41324Y-20830D01*
X41361Y-20799D01*
X41402Y-20776D01*
X41448Y-20761D01*
X41495Y-20756D01*
X41542Y-20759D01*
X41588Y-20772D01*
X41631Y-20794D01*
X41668Y-20823D01*
X41700Y-20859D01*
X41723Y-20901D01*
X41738Y-20946D01*
X41744Y-20994D01*
X41745Y-21000D01*
X39745Y-21000D02*
X39740Y-21047D01*
X39726Y-21093D01*
X39704Y-21135D01*
X39673Y-21172D01*
X39637Y-21203D01*
X39594Y-21225D01*
X39549Y-21239D01*
X39501Y-21244D01*
X39455Y-21240D01*
X39409Y-21227D01*
X39366Y-21205D01*
X39329Y-21175D01*
X39298Y-21138D01*
X39275Y-21096D01*
X39261Y-21050D01*
X39256Y-21003D01*
X39260Y-20956D01*
X39273Y-20910D01*
X39295Y-20868D01*
X39324Y-20830D01*
X39361Y-20799D01*
X39402Y-20776D01*
X39448Y-20761D01*
X39495Y-20756D01*
X39542Y-20759D01*
X39588Y-20772D01*
X39631Y-20794D01*
X39668Y-20823D01*
X39700Y-20859D01*
X39723Y-20901D01*
X39738Y-20946D01*
X39744Y-20994D01*
X39745Y-21000D01*
X29745Y-22500D02*
X29740Y-22547D01*
X29726Y-22593D01*
X29704Y-22635D01*
X29673Y-22672D01*
X29637Y-22703D01*
X29594Y-22725D01*
X29549Y-22739D01*
X29501Y-22744D01*
X29455Y-22740D01*
X29409Y-22727D01*
X29366Y-22705D01*
X29329Y-22675D01*
X29298Y-22638D01*
X29275Y-22596D01*
X29261Y-22550D01*
X29256Y-22503D01*
X29260Y-22456D01*
X29273Y-22410D01*
X29295Y-22368D01*
X29324Y-22330D01*
X29361Y-22299D01*
X29402Y-22276D01*
X29448Y-22261D01*
X29495Y-22256D01*
X29542Y-22259D01*
X29588Y-22272D01*
X29631Y-22294D01*
X29668Y-22323D01*
X29700Y-22359D01*
X29723Y-22401D01*
X29738Y-22446D01*
X29744Y-22494D01*
X29745Y-22500D01*
X31745Y-22500D02*
X31740Y-22547D01*
X31726Y-22593D01*
X31704Y-22635D01*
X31673Y-22672D01*
X31637Y-22703D01*
X31594Y-22725D01*
X31549Y-22739D01*
X31501Y-22744D01*
X31455Y-22740D01*
X31409Y-22727D01*
X31366Y-22705D01*
X31329Y-22675D01*
X31298Y-22638D01*
X31275Y-22596D01*
X31261Y-22550D01*
X31256Y-22503D01*
X31260Y-22456D01*
X31273Y-22410D01*
X31295Y-22368D01*
X31324Y-22330D01*
X31361Y-22299D01*
X31402Y-22276D01*
X31448Y-22261D01*
X31495Y-22256D01*
X31542Y-22259D01*
X31588Y-22272D01*
X31631Y-22294D01*
X31668Y-22323D01*
X31700Y-22359D01*
X31723Y-22401D01*
X31738Y-22446D01*
X31744Y-22494D01*
X31745Y-22500D01*
X15745Y-28000D02*
X15740Y-28047D01*
X15726Y-28093D01*
X15704Y-28135D01*
X15673Y-28172D01*
X15637Y-28203D01*
X15594Y-28225D01*
X15549Y-28239D01*
X15501Y-28244D01*
X15455Y-28240D01*
X15409Y-28227D01*
X15366Y-28205D01*
X15329Y-28175D01*
X15298Y-28138D01*
X15275Y-28096D01*
X15261Y-28050D01*
X15256Y-28003D01*
X15260Y-27956D01*
X15273Y-27910D01*
X15295Y-27868D01*
X15324Y-27830D01*
X15361Y-27799D01*
X15402Y-27776D01*
X15448Y-27761D01*
X15495Y-27756D01*
X15542Y-27759D01*
X15588Y-27772D01*
X15631Y-27794D01*
X15668Y-27823D01*
X15700Y-27859D01*
X15723Y-27901D01*
X15738Y-27946D01*
X15744Y-27994D01*
X15745Y-28000D01*
X15745Y-30000D02*
X15740Y-30047D01*
X15726Y-30093D01*
X15704Y-30135D01*
X15673Y-30172D01*
X15637Y-30203D01*
X15594Y-30225D01*
X15549Y-30239D01*
X15501Y-30244D01*
X15455Y-30240D01*
X15409Y-30227D01*
X15366Y-30205D01*
X15329Y-30175D01*
X15298Y-30138D01*
X15275Y-30096D01*
X15261Y-30050D01*
X15256Y-30003D01*
X15260Y-29956D01*
X15273Y-29910D01*
X15295Y-29868D01*
X15324Y-29830D01*
X15361Y-29799D01*
X15402Y-29776D01*
X15448Y-29761D01*
X15495Y-29756D01*
X15542Y-29759D01*
X15588Y-29772D01*
X15631Y-29794D01*
X15668Y-29823D01*
X15700Y-29859D01*
X15723Y-29901D01*
X15738Y-29946D01*
X15744Y-29994D01*
X15745Y-30000D01*
X31745Y-21000D02*
X31740Y-21047D01*
X31726Y-21093D01*
X31704Y-21135D01*
X31673Y-21172D01*
X31637Y-21203D01*
X31594Y-21225D01*
X31549Y-21239D01*
X31501Y-21244D01*
X31455Y-21240D01*
X31409Y-21227D01*
X31366Y-21205D01*
X31329Y-21175D01*
X31298Y-21138D01*
X31275Y-21096D01*
X31261Y-21050D01*
X31256Y-21003D01*
X31260Y-20956D01*
X31273Y-20910D01*
X31295Y-20868D01*
X31324Y-20830D01*
X31361Y-20799D01*
X31402Y-20776D01*
X31448Y-20761D01*
X31495Y-20756D01*
X31542Y-20759D01*
X31588Y-20772D01*
X31631Y-20794D01*
X31668Y-20823D01*
X31700Y-20859D01*
X31723Y-20901D01*
X31738Y-20946D01*
X31744Y-20994D01*
X31745Y-21000D01*
X29745Y-21000D02*
X29740Y-21047D01*
X29726Y-21093D01*
X29704Y-21135D01*
X29673Y-21172D01*
X29637Y-21203D01*
X29594Y-21225D01*
X29549Y-21239D01*
X29501Y-21244D01*
X29455Y-21240D01*
X29409Y-21227D01*
X29366Y-21205D01*
X29329Y-21175D01*
X29298Y-21138D01*
X29275Y-21096D01*
X29261Y-21050D01*
X29256Y-21003D01*
X29260Y-20956D01*
X29273Y-20910D01*
X29295Y-20868D01*
X29324Y-20830D01*
X29361Y-20799D01*
X29402Y-20776D01*
X29448Y-20761D01*
X29495Y-20756D01*
X29542Y-20759D01*
X29588Y-20772D01*
X29631Y-20794D01*
X29668Y-20823D01*
X29700Y-20859D01*
X29723Y-20901D01*
X29738Y-20946D01*
X29744Y-20994D01*
X29745Y-21000D01*
X23245Y-14000D02*
X23240Y-14047D01*
X23226Y-14093D01*
X23204Y-14135D01*
X23173Y-14172D01*
X23137Y-14203D01*
X23094Y-14225D01*
X23049Y-14239D01*
X23001Y-14244D01*
X22955Y-14240D01*
X22909Y-14227D01*
X22866Y-14205D01*
X22829Y-14175D01*
X22798Y-14138D01*
X22775Y-14096D01*
X22761Y-14050D01*
X22756Y-14003D01*
X22760Y-13956D01*
X22773Y-13910D01*
X22795Y-13868D01*
X22824Y-13830D01*
X22861Y-13799D01*
X22902Y-13776D01*
X22948Y-13761D01*
X22995Y-13756D01*
X23042Y-13759D01*
X23088Y-13772D01*
X23131Y-13794D01*
X23168Y-13823D01*
X23200Y-13859D01*
X23223Y-13901D01*
X23238Y-13946D01*
X23244Y-13994D01*
X23245Y-14000D01*
X23245Y-12000D02*
X23240Y-12047D01*
X23226Y-12093D01*
X23204Y-12135D01*
X23173Y-12172D01*
X23137Y-12203D01*
X23094Y-12225D01*
X23049Y-12239D01*
X23001Y-12244D01*
X22955Y-12240D01*
X22909Y-12227D01*
X22866Y-12205D01*
X22829Y-12175D01*
X22798Y-12138D01*
X22775Y-12096D01*
X22761Y-12050D01*
X22756Y-12003D01*
X22760Y-11956D01*
X22773Y-11910D01*
X22795Y-11868D01*
X22824Y-11830D01*
X22861Y-11799D01*
X22902Y-11776D01*
X22948Y-11761D01*
X22995Y-11756D01*
X23042Y-11759D01*
X23088Y-11772D01*
X23131Y-11794D01*
X23168Y-11823D01*
X23200Y-11859D01*
X23223Y-11901D01*
X23238Y-11946D01*
X23244Y-11994D01*
X23245Y-12000D01*
X44745Y-12000D02*
X44740Y-12047D01*
X44726Y-12093D01*
X44704Y-12135D01*
X44673Y-12172D01*
X44637Y-12203D01*
X44594Y-12225D01*
X44549Y-12239D01*
X44501Y-12244D01*
X44455Y-12240D01*
X44409Y-12227D01*
X44366Y-12205D01*
X44329Y-12175D01*
X44298Y-12138D01*
X44275Y-12096D01*
X44261Y-12050D01*
X44256Y-12003D01*
X44260Y-11956D01*
X44273Y-11910D01*
X44295Y-11868D01*
X44324Y-11830D01*
X44361Y-11799D01*
X44402Y-11776D01*
X44448Y-11761D01*
X44495Y-11756D01*
X44542Y-11759D01*
X44588Y-11772D01*
X44631Y-11794D01*
X44668Y-11823D01*
X44700Y-11859D01*
X44723Y-11901D01*
X44738Y-11946D01*
X44744Y-11994D01*
X44745Y-12000D01*
X44745Y-14000D02*
X44740Y-14047D01*
X44726Y-14093D01*
X44704Y-14135D01*
X44673Y-14172D01*
X44637Y-14203D01*
X44594Y-14225D01*
X44549Y-14239D01*
X44501Y-14244D01*
X44455Y-14240D01*
X44409Y-14227D01*
X44366Y-14205D01*
X44329Y-14175D01*
X44298Y-14138D01*
X44275Y-14096D01*
X44261Y-14050D01*
X44256Y-14003D01*
X44260Y-13956D01*
X44273Y-13910D01*
X44295Y-13868D01*
X44324Y-13830D01*
X44361Y-13799D01*
X44402Y-13776D01*
X44448Y-13761D01*
X44495Y-13756D01*
X44542Y-13759D01*
X44588Y-13772D01*
X44631Y-13794D01*
X44668Y-13823D01*
X44700Y-13859D01*
X44723Y-13901D01*
X44738Y-13946D01*
X44744Y-13994D01*
X44745Y-14000D01*
X51245Y-11000D02*
X51240Y-11047D01*
X51226Y-11093D01*
X51204Y-11135D01*
X51173Y-11172D01*
X51137Y-11203D01*
X51094Y-11225D01*
X51049Y-11239D01*
X51001Y-11244D01*
X50955Y-11240D01*
X50909Y-11227D01*
X50866Y-11205D01*
X50829Y-11175D01*
X50798Y-11138D01*
X50775Y-11096D01*
X50761Y-11050D01*
X50756Y-11003D01*
X50760Y-10956D01*
X50773Y-10910D01*
X50795Y-10868D01*
X50824Y-10830D01*
X50861Y-10799D01*
X50902Y-10776D01*
X50948Y-10761D01*
X50995Y-10756D01*
X51042Y-10759D01*
X51088Y-10772D01*
X51131Y-10794D01*
X51168Y-10823D01*
X51200Y-10859D01*
X51223Y-10901D01*
X51238Y-10946D01*
X51244Y-10994D01*
X51245Y-11000D01*
X51245Y-13000D02*
X51240Y-13047D01*
X51226Y-13093D01*
X51204Y-13135D01*
X51173Y-13172D01*
X51137Y-13203D01*
X51094Y-13225D01*
X51049Y-13239D01*
X51001Y-13244D01*
X50955Y-13240D01*
X50909Y-13227D01*
X50866Y-13205D01*
X50829Y-13175D01*
X50798Y-13138D01*
X50775Y-13096D01*
X50761Y-13050D01*
X50756Y-13003D01*
X50760Y-12956D01*
X50773Y-12910D01*
X50795Y-12868D01*
X50824Y-12830D01*
X50861Y-12799D01*
X50902Y-12776D01*
X50948Y-12761D01*
X50995Y-12756D01*
X51042Y-12759D01*
X51088Y-12772D01*
X51131Y-12794D01*
X51168Y-12823D01*
X51200Y-12859D01*
X51223Y-12901D01*
X51238Y-12946D01*
X51244Y-12994D01*
X51245Y-13000D01*
X44745Y-19000D02*
X44740Y-19047D01*
X44726Y-19093D01*
X44704Y-19135D01*
X44673Y-19172D01*
X44637Y-19203D01*
X44594Y-19225D01*
X44549Y-19239D01*
X44501Y-19244D01*
X44455Y-19240D01*
X44409Y-19227D01*
X44366Y-19205D01*
X44329Y-19175D01*
X44298Y-19138D01*
X44275Y-19096D01*
X44261Y-19050D01*
X44256Y-19003D01*
X44260Y-18956D01*
X44273Y-18910D01*
X44295Y-18868D01*
X44324Y-18830D01*
X44361Y-18799D01*
X44402Y-18776D01*
X44448Y-18761D01*
X44495Y-18756D01*
X44542Y-18759D01*
X44588Y-18772D01*
X44631Y-18794D01*
X44668Y-18823D01*
X44700Y-18859D01*
X44723Y-18901D01*
X44738Y-18946D01*
X44744Y-18994D01*
X44745Y-19000D01*
X44745Y-21000D02*
X44740Y-21047D01*
X44726Y-21093D01*
X44704Y-21135D01*
X44673Y-21172D01*
X44637Y-21203D01*
X44594Y-21225D01*
X44549Y-21239D01*
X44501Y-21244D01*
X44455Y-21240D01*
X44409Y-21227D01*
X44366Y-21205D01*
X44329Y-21175D01*
X44298Y-21138D01*
X44275Y-21096D01*
X44261Y-21050D01*
X44256Y-21003D01*
X44260Y-20956D01*
X44273Y-20910D01*
X44295Y-20868D01*
X44324Y-20830D01*
X44361Y-20799D01*
X44402Y-20776D01*
X44448Y-20761D01*
X44495Y-20756D01*
X44542Y-20759D01*
X44588Y-20772D01*
X44631Y-20794D01*
X44668Y-20823D01*
X44700Y-20859D01*
X44723Y-20901D01*
X44738Y-20946D01*
X44744Y-20994D01*
X44745Y-21000D01*
X51245Y-18000D02*
X51240Y-18047D01*
X51226Y-18093D01*
X51204Y-18135D01*
X51173Y-18172D01*
X51137Y-18203D01*
X51094Y-18225D01*
X51049Y-18239D01*
X51001Y-18244D01*
X50955Y-18240D01*
X50909Y-18227D01*
X50866Y-18205D01*
X50829Y-18175D01*
X50798Y-18138D01*
X50775Y-18096D01*
X50761Y-18050D01*
X50756Y-18003D01*
X50760Y-17956D01*
X50773Y-17910D01*
X50795Y-17868D01*
X50824Y-17830D01*
X50861Y-17799D01*
X50902Y-17776D01*
X50948Y-17761D01*
X50995Y-17756D01*
X51042Y-17759D01*
X51088Y-17772D01*
X51131Y-17794D01*
X51168Y-17823D01*
X51200Y-17859D01*
X51223Y-17901D01*
X51238Y-17946D01*
X51244Y-17994D01*
X51245Y-18000D01*
X51245Y-20000D02*
X51240Y-20047D01*
X51226Y-20093D01*
X51204Y-20135D01*
X51173Y-20172D01*
X51137Y-20203D01*
X51094Y-20225D01*
X51049Y-20239D01*
X51001Y-20244D01*
X50955Y-20240D01*
X50909Y-20227D01*
X50866Y-20205D01*
X50829Y-20175D01*
X50798Y-20138D01*
X50775Y-20096D01*
X50761Y-20050D01*
X50756Y-20003D01*
X50760Y-19956D01*
X50773Y-19910D01*
X50795Y-19868D01*
X50824Y-19830D01*
X50861Y-19799D01*
X50902Y-19776D01*
X50948Y-19761D01*
X50995Y-19756D01*
X51042Y-19759D01*
X51088Y-19772D01*
X51131Y-19794D01*
X51168Y-19823D01*
X51200Y-19859D01*
X51223Y-19901D01*
X51238Y-19946D01*
X51244Y-19994D01*
X51245Y-20000D01*
X44745Y-24500D02*
X44740Y-24547D01*
X44726Y-24593D01*
X44704Y-24635D01*
X44673Y-24672D01*
X44637Y-24703D01*
X44594Y-24725D01*
X44549Y-24739D01*
X44501Y-24744D01*
X44455Y-24740D01*
X44409Y-24727D01*
X44366Y-24705D01*
X44329Y-24675D01*
X44298Y-24638D01*
X44275Y-24596D01*
X44261Y-24550D01*
X44256Y-24503D01*
X44260Y-24456D01*
X44273Y-24410D01*
X44295Y-24368D01*
X44324Y-24330D01*
X44361Y-24299D01*
X44402Y-24276D01*
X44448Y-24261D01*
X44495Y-24256D01*
X44542Y-24259D01*
X44588Y-24272D01*
X44631Y-24294D01*
X44668Y-24323D01*
X44700Y-24359D01*
X44723Y-24401D01*
X44738Y-24446D01*
X44744Y-24494D01*
X44745Y-24500D01*
X44745Y-26500D02*
X44740Y-26547D01*
X44726Y-26593D01*
X44704Y-26635D01*
X44673Y-26672D01*
X44637Y-26703D01*
X44594Y-26725D01*
X44549Y-26739D01*
X44501Y-26744D01*
X44455Y-26740D01*
X44409Y-26727D01*
X44366Y-26705D01*
X44329Y-26675D01*
X44298Y-26638D01*
X44275Y-26596D01*
X44261Y-26550D01*
X44256Y-26503D01*
X44260Y-26456D01*
X44273Y-26410D01*
X44295Y-26368D01*
X44324Y-26330D01*
X44361Y-26299D01*
X44402Y-26276D01*
X44448Y-26261D01*
X44495Y-26256D01*
X44542Y-26259D01*
X44588Y-26272D01*
X44631Y-26294D01*
X44668Y-26323D01*
X44700Y-26359D01*
X44723Y-26401D01*
X44738Y-26446D01*
X44744Y-26494D01*
X44745Y-26500D01*
X51245Y-24500D02*
X51240Y-24547D01*
X51226Y-24593D01*
X51204Y-24635D01*
X51173Y-24672D01*
X51137Y-24703D01*
X51094Y-24725D01*
X51049Y-24739D01*
X51001Y-24744D01*
X50955Y-24740D01*
X50909Y-24727D01*
X50866Y-24705D01*
X50829Y-24675D01*
X50798Y-24638D01*
X50775Y-24596D01*
X50761Y-24550D01*
X50756Y-24503D01*
X50760Y-24456D01*
X50773Y-24410D01*
X50795Y-24368D01*
X50824Y-24330D01*
X50861Y-24299D01*
X50902Y-24276D01*
X50948Y-24261D01*
X50995Y-24256D01*
X51042Y-24259D01*
X51088Y-24272D01*
X51131Y-24294D01*
X51168Y-24323D01*
X51200Y-24359D01*
X51223Y-24401D01*
X51238Y-24446D01*
X51244Y-24494D01*
X51245Y-24500D01*
X51245Y-26500D02*
X51240Y-26547D01*
X51226Y-26593D01*
X51204Y-26635D01*
X51173Y-26672D01*
X51137Y-26703D01*
X51094Y-26725D01*
X51049Y-26739D01*
X51001Y-26744D01*
X50955Y-26740D01*
X50909Y-26727D01*
X50866Y-26705D01*
X50829Y-26675D01*
X50798Y-26638D01*
X50775Y-26596D01*
X50761Y-26550D01*
X50756Y-26503D01*
X50760Y-26456D01*
X50773Y-26410D01*
X50795Y-26368D01*
X50824Y-26330D01*
X50861Y-26299D01*
X50902Y-26276D01*
X50948Y-26261D01*
X50995Y-26256D01*
X51042Y-26259D01*
X51088Y-26272D01*
X51131Y-26294D01*
X51168Y-26323D01*
X51200Y-26359D01*
X51223Y-26401D01*
X51238Y-26446D01*
X51244Y-26494D01*
X51245Y-26500D01*
X16745Y-11000D02*
X16740Y-11047D01*
X16726Y-11093D01*
X16704Y-11135D01*
X16673Y-11172D01*
X16637Y-11203D01*
X16594Y-11225D01*
X16549Y-11239D01*
X16501Y-11244D01*
X16455Y-11240D01*
X16409Y-11227D01*
X16366Y-11205D01*
X16329Y-11175D01*
X16298Y-11138D01*
X16275Y-11096D01*
X16261Y-11050D01*
X16256Y-11003D01*
X16260Y-10956D01*
X16273Y-10910D01*
X16295Y-10868D01*
X16324Y-10830D01*
X16361Y-10799D01*
X16402Y-10776D01*
X16448Y-10761D01*
X16495Y-10756D01*
X16542Y-10759D01*
X16588Y-10772D01*
X16631Y-10794D01*
X16668Y-10823D01*
X16700Y-10859D01*
X16723Y-10901D01*
X16738Y-10946D01*
X16744Y-10994D01*
X16745Y-11000D01*
X14745Y-11000D02*
X14740Y-11047D01*
X14726Y-11093D01*
X14704Y-11135D01*
X14673Y-11172D01*
X14637Y-11203D01*
X14594Y-11225D01*
X14549Y-11239D01*
X14501Y-11244D01*
X14455Y-11240D01*
X14409Y-11227D01*
X14366Y-11205D01*
X14329Y-11175D01*
X14298Y-11138D01*
X14275Y-11096D01*
X14261Y-11050D01*
X14256Y-11003D01*
X14260Y-10956D01*
X14273Y-10910D01*
X14295Y-10868D01*
X14324Y-10830D01*
X14361Y-10799D01*
X14402Y-10776D01*
X14448Y-10761D01*
X14495Y-10756D01*
X14542Y-10759D01*
X14588Y-10772D01*
X14631Y-10794D01*
X14668Y-10823D01*
X14700Y-10859D01*
X14723Y-10901D01*
X14738Y-10946D01*
X14744Y-10994D01*
X14745Y-11000D01*
X32755Y-15755D02*
X32755Y-16245D01*
X33245Y-16245D01*
X33245Y-15755D01*
X32755Y-15755D01*
X32245Y-16000D02*
X32240Y-16047D01*
X32226Y-16093D01*
X32204Y-16135D01*
X32173Y-16172D01*
X32137Y-16203D01*
X32094Y-16225D01*
X32049Y-16239D01*
X32001Y-16244D01*
X31955Y-16240D01*
X31909Y-16227D01*
X31866Y-16205D01*
X31829Y-16175D01*
X31798Y-16138D01*
X31775Y-16096D01*
X31761Y-16050D01*
X31756Y-16003D01*
X31760Y-15956D01*
X31773Y-15910D01*
X31795Y-15868D01*
X31824Y-15830D01*
X31861Y-15799D01*
X31902Y-15776D01*
X31948Y-15761D01*
X31995Y-15756D01*
X32042Y-15759D01*
X32088Y-15772D01*
X32131Y-15794D01*
X32168Y-15823D01*
X32200Y-15859D01*
X32223Y-15901D01*
X32238Y-15946D01*
X32244Y-15994D01*
X32245Y-16000D01*
X31245Y-16000D02*
X31240Y-16047D01*
X31226Y-16093D01*
X31204Y-16135D01*
X31173Y-16172D01*
X31137Y-16203D01*
X31094Y-16225D01*
X31049Y-16239D01*
X31001Y-16244D01*
X30955Y-16240D01*
X30909Y-16227D01*
X30866Y-16205D01*
X30829Y-16175D01*
X30798Y-16138D01*
X30775Y-16096D01*
X30761Y-16050D01*
X30756Y-16003D01*
X30760Y-15956D01*
X30773Y-15910D01*
X30795Y-15868D01*
X30824Y-15830D01*
X30861Y-15799D01*
X30902Y-15776D01*
X30948Y-15761D01*
X30995Y-15756D01*
X31042Y-15759D01*
X31088Y-15772D01*
X31131Y-15794D01*
X31168Y-15823D01*
X31200Y-15859D01*
X31223Y-15901D01*
X31238Y-15946D01*
X31244Y-15994D01*
X31245Y-16000D01*
X30245Y-16000D02*
X30240Y-16047D01*
X30226Y-16093D01*
X30204Y-16135D01*
X30173Y-16172D01*
X30137Y-16203D01*
X30094Y-16225D01*
X30049Y-16239D01*
X30001Y-16244D01*
X29955Y-16240D01*
X29909Y-16227D01*
X29866Y-16205D01*
X29829Y-16175D01*
X29798Y-16138D01*
X29775Y-16096D01*
X29761Y-16050D01*
X29756Y-16003D01*
X29760Y-15956D01*
X29773Y-15910D01*
X29795Y-15868D01*
X29824Y-15830D01*
X29861Y-15799D01*
X29902Y-15776D01*
X29948Y-15761D01*
X29995Y-15756D01*
X30042Y-15759D01*
X30088Y-15772D01*
X30131Y-15794D01*
X30168Y-15823D01*
X30200Y-15859D01*
X30223Y-15901D01*
X30238Y-15946D01*
X30244Y-15994D01*
X30245Y-16000D01*
X29245Y-16000D02*
X29240Y-16047D01*
X29226Y-16093D01*
X29204Y-16135D01*
X29173Y-16172D01*
X29137Y-16203D01*
X29094Y-16225D01*
X29049Y-16239D01*
X29001Y-16244D01*
X28955Y-16240D01*
X28909Y-16227D01*
X28866Y-16205D01*
X28829Y-16175D01*
X28798Y-16138D01*
X28775Y-16096D01*
X28761Y-16050D01*
X28756Y-16003D01*
X28760Y-15956D01*
X28773Y-15910D01*
X28795Y-15868D01*
X28824Y-15830D01*
X28861Y-15799D01*
X28902Y-15776D01*
X28948Y-15761D01*
X28995Y-15756D01*
X29042Y-15759D01*
X29088Y-15772D01*
X29131Y-15794D01*
X29168Y-15823D01*
X29200Y-15859D01*
X29223Y-15901D01*
X29238Y-15946D01*
X29244Y-15994D01*
X29245Y-16000D01*
X28245Y-16000D02*
X28240Y-16047D01*
X28226Y-16093D01*
X28204Y-16135D01*
X28173Y-16172D01*
X28137Y-16203D01*
X28094Y-16225D01*
X28049Y-16239D01*
X28001Y-16244D01*
X27955Y-16240D01*
X27909Y-16227D01*
X27866Y-16205D01*
X27829Y-16175D01*
X27798Y-16138D01*
X27775Y-16096D01*
X27761Y-16050D01*
X27756Y-16003D01*
X27760Y-15956D01*
X27773Y-15910D01*
X27795Y-15868D01*
X27824Y-15830D01*
X27861Y-15799D01*
X27902Y-15776D01*
X27948Y-15761D01*
X27995Y-15756D01*
X28042Y-15759D01*
X28088Y-15772D01*
X28131Y-15794D01*
X28168Y-15823D01*
X28200Y-15859D01*
X28223Y-15901D01*
X28238Y-15946D01*
X28244Y-15994D01*
X28245Y-16000D01*
X27245Y-16000D02*
X27240Y-16047D01*
X27226Y-16093D01*
X27204Y-16135D01*
X27173Y-16172D01*
X27137Y-16203D01*
X27094Y-16225D01*
X27049Y-16239D01*
X27001Y-16244D01*
X26955Y-16240D01*
X26909Y-16227D01*
X26866Y-16205D01*
X26829Y-16175D01*
X26798Y-16138D01*
X26775Y-16096D01*
X26761Y-16050D01*
X26756Y-16003D01*
X26760Y-15956D01*
X26773Y-15910D01*
X26795Y-15868D01*
X26824Y-15830D01*
X26861Y-15799D01*
X26902Y-15776D01*
X26948Y-15761D01*
X26995Y-15756D01*
X27042Y-15759D01*
X27088Y-15772D01*
X27131Y-15794D01*
X27168Y-15823D01*
X27200Y-15859D01*
X27223Y-15901D01*
X27238Y-15946D01*
X27244Y-15994D01*
X27245Y-16000D01*
X27245Y-19000D02*
X27240Y-19047D01*
X27226Y-19093D01*
X27204Y-19135D01*
X27173Y-19172D01*
X27137Y-19203D01*
X27094Y-19225D01*
X27049Y-19239D01*
X27001Y-19244D01*
X26955Y-19240D01*
X26909Y-19227D01*
X26866Y-19205D01*
X26829Y-19175D01*
X26798Y-19138D01*
X26775Y-19096D01*
X26761Y-19050D01*
X26756Y-19003D01*
X26760Y-18956D01*
X26773Y-18910D01*
X26795Y-18868D01*
X26824Y-18830D01*
X26861Y-18799D01*
X26902Y-18776D01*
X26948Y-18761D01*
X26995Y-18756D01*
X27042Y-18759D01*
X27088Y-18772D01*
X27131Y-18794D01*
X27168Y-18823D01*
X27200Y-18859D01*
X27223Y-18901D01*
X27238Y-18946D01*
X27244Y-18994D01*
X27245Y-19000D01*
X28245Y-19000D02*
X28240Y-19047D01*
X28226Y-19093D01*
X28204Y-19135D01*
X28173Y-19172D01*
X28137Y-19203D01*
X28094Y-19225D01*
X28049Y-19239D01*
X28001Y-19244D01*
X27955Y-19240D01*
X27909Y-19227D01*
X27866Y-19205D01*
X27829Y-19175D01*
X27798Y-19138D01*
X27775Y-19096D01*
X27761Y-19050D01*
X27756Y-19003D01*
X27760Y-18956D01*
X27773Y-18910D01*
X27795Y-18868D01*
X27824Y-18830D01*
X27861Y-18799D01*
X27902Y-18776D01*
X27948Y-18761D01*
X27995Y-18756D01*
X28042Y-18759D01*
X28088Y-18772D01*
X28131Y-18794D01*
X28168Y-18823D01*
X28200Y-18859D01*
X28223Y-18901D01*
X28238Y-18946D01*
X28244Y-18994D01*
X28245Y-19000D01*
X29245Y-19000D02*
X29240Y-19047D01*
X29226Y-19093D01*
X29204Y-19135D01*
X29173Y-19172D01*
X29137Y-19203D01*
X29094Y-19225D01*
X29049Y-19239D01*
X29001Y-19244D01*
X28955Y-19240D01*
X28909Y-19227D01*
X28866Y-19205D01*
X28829Y-19175D01*
X28798Y-19138D01*
X28775Y-19096D01*
X28761Y-19050D01*
X28756Y-19003D01*
X28760Y-18956D01*
X28773Y-18910D01*
X28795Y-18868D01*
X28824Y-18830D01*
X28861Y-18799D01*
X28902Y-18776D01*
X28948Y-18761D01*
X28995Y-18756D01*
X29042Y-18759D01*
X29088Y-18772D01*
X29131Y-18794D01*
X29168Y-18823D01*
X29200Y-18859D01*
X29223Y-18901D01*
X29238Y-18946D01*
X29244Y-18994D01*
X29245Y-19000D01*
X30245Y-19000D02*
X30240Y-19047D01*
X30226Y-19093D01*
X30204Y-19135D01*
X30173Y-19172D01*
X30137Y-19203D01*
X30094Y-19225D01*
X30049Y-19239D01*
X30001Y-19244D01*
X29955Y-19240D01*
X29909Y-19227D01*
X29866Y-19205D01*
X29829Y-19175D01*
X29798Y-19138D01*
X29775Y-19096D01*
X29761Y-19050D01*
X29756Y-19003D01*
X29760Y-18956D01*
X29773Y-18910D01*
X29795Y-18868D01*
X29824Y-18830D01*
X29861Y-18799D01*
X29902Y-18776D01*
X29948Y-18761D01*
X29995Y-18756D01*
X30042Y-18759D01*
X30088Y-18772D01*
X30131Y-18794D01*
X30168Y-18823D01*
X30200Y-18859D01*
X30223Y-18901D01*
X30238Y-18946D01*
X30244Y-18994D01*
X30245Y-19000D01*
X31245Y-19000D02*
X31240Y-19047D01*
X31226Y-19093D01*
X31204Y-19135D01*
X31173Y-19172D01*
X31137Y-19203D01*
X31094Y-19225D01*
X31049Y-19239D01*
X31001Y-19244D01*
X30955Y-19240D01*
X30909Y-19227D01*
X30866Y-19205D01*
X30829Y-19175D01*
X30798Y-19138D01*
X30775Y-19096D01*
X30761Y-19050D01*
X30756Y-19003D01*
X30760Y-18956D01*
X30773Y-18910D01*
X30795Y-18868D01*
X30824Y-18830D01*
X30861Y-18799D01*
X30902Y-18776D01*
X30948Y-18761D01*
X30995Y-18756D01*
X31042Y-18759D01*
X31088Y-18772D01*
X31131Y-18794D01*
X31168Y-18823D01*
X31200Y-18859D01*
X31223Y-18901D01*
X31238Y-18946D01*
X31244Y-18994D01*
X31245Y-19000D01*
X32245Y-19000D02*
X32240Y-19047D01*
X32226Y-19093D01*
X32204Y-19135D01*
X32173Y-19172D01*
X32137Y-19203D01*
X32094Y-19225D01*
X32049Y-19239D01*
X32001Y-19244D01*
X31955Y-19240D01*
X31909Y-19227D01*
X31866Y-19205D01*
X31829Y-19175D01*
X31798Y-19138D01*
X31775Y-19096D01*
X31761Y-19050D01*
X31756Y-19003D01*
X31760Y-18956D01*
X31773Y-18910D01*
X31795Y-18868D01*
X31824Y-18830D01*
X31861Y-18799D01*
X31902Y-18776D01*
X31948Y-18761D01*
X31995Y-18756D01*
X32042Y-18759D01*
X32088Y-18772D01*
X32131Y-18794D01*
X32168Y-18823D01*
X32200Y-18859D01*
X32223Y-18901D01*
X32238Y-18946D01*
X32244Y-18994D01*
X32245Y-19000D01*
X33245Y-19000D02*
X33240Y-19047D01*
X33226Y-19093D01*
X33204Y-19135D01*
X33173Y-19172D01*
X33137Y-19203D01*
X33094Y-19225D01*
X33049Y-19239D01*
X33001Y-19244D01*
X32955Y-19240D01*
X32909Y-19227D01*
X32866Y-19205D01*
X32829Y-19175D01*
X32798Y-19138D01*
X32775Y-19096D01*
X32761Y-19050D01*
X32756Y-19003D01*
X32760Y-18956D01*
X32773Y-18910D01*
X32795Y-18868D01*
X32824Y-18830D01*
X32861Y-18799D01*
X32902Y-18776D01*
X32948Y-18761D01*
X32995Y-18756D01*
X33042Y-18759D01*
X33088Y-18772D01*
X33131Y-18794D01*
X33168Y-18823D01*
X33200Y-18859D01*
X33223Y-18901D01*
X33238Y-18946D01*
X33244Y-18994D01*
X33245Y-19000D01*
G54D15*
X18295Y-13962D02*
X18295Y-14286D01*
X18314Y-14324D01*
X18333Y-14343D01*
X18371Y-14362D01*
X18448Y-14362D01*
X18486Y-14343D01*
X18505Y-14324D01*
X18524Y-14286D01*
X18524Y-13962D01*
X18924Y-14362D02*
X18695Y-14362D01*
X18809Y-14362D02*
X18809Y-13962D01*
X18771Y-14019D01*
X18733Y-14057D01*
X18695Y-14076D01*
X17895Y-10462D02*
X18162Y-10462D01*
X17990Y-10862D01*
X18371Y-10633D02*
X18333Y-10614D01*
X18314Y-10595D01*
X18295Y-10557D01*
X18295Y-10538D01*
X18314Y-10500D01*
X18333Y-10481D01*
X18371Y-10462D01*
X18448Y-10462D01*
X18486Y-10481D01*
X18505Y-10500D01*
X18524Y-10538D01*
X18524Y-10557D01*
X18505Y-10595D01*
X18486Y-10614D01*
X18448Y-10633D01*
X18371Y-10633D01*
X18333Y-10652D01*
X18314Y-10671D01*
X18295Y-10710D01*
X18295Y-10786D01*
X18314Y-10824D01*
X18333Y-10843D01*
X18371Y-10862D01*
X18448Y-10862D01*
X18486Y-10843D01*
X18505Y-10824D01*
X18524Y-10786D01*
X18524Y-10710D01*
X18505Y-10671D01*
X18486Y-10652D01*
X18448Y-10633D01*
X18771Y-10462D02*
X18810Y-10462D01*
X18848Y-10481D01*
X18867Y-10500D01*
X18886Y-10538D01*
X18905Y-10614D01*
X18905Y-10710D01*
X18886Y-10786D01*
X18867Y-10824D01*
X18848Y-10843D01*
X18810Y-10862D01*
X18771Y-10862D01*
X18733Y-10843D01*
X18714Y-10824D01*
X18695Y-10786D01*
X18676Y-10710D01*
X18676Y-10614D01*
X18695Y-10538D01*
X18714Y-10500D01*
X18733Y-10481D01*
X18771Y-10462D01*
X19267Y-10462D02*
X19076Y-10462D01*
X19057Y-10652D01*
X19076Y-10633D01*
X19114Y-10614D01*
X19210Y-10614D01*
X19248Y-10633D01*
X19267Y-10652D01*
X19286Y-10690D01*
X19286Y-10786D01*
X19267Y-10824D01*
X19248Y-10843D01*
X19210Y-10862D01*
X19114Y-10862D01*
X19076Y-10843D01*
X19057Y-10824D01*
X22962Y-10200D02*
X22924Y-10181D01*
X22886Y-10143D01*
X22829Y-10086D01*
X22790Y-10067D01*
X22752Y-10067D01*
X22771Y-10162D02*
X22733Y-10143D01*
X22695Y-10105D01*
X22676Y-10029D01*
X22676Y-09895D01*
X22695Y-09819D01*
X22733Y-09781D01*
X22771Y-09762D01*
X22848Y-09762D01*
X22886Y-09781D01*
X22924Y-09819D01*
X22943Y-09895D01*
X22943Y-10029D01*
X22924Y-10105D01*
X22886Y-10143D01*
X22848Y-10162D01*
X22771Y-10162D01*
X23324Y-10162D02*
X23095Y-10162D01*
X23209Y-10162D02*
X23209Y-09762D01*
X23171Y-09819D01*
X23133Y-09857D01*
X23095Y-09876D01*
X20414Y-07300D02*
X20433Y-07281D01*
X20471Y-07262D01*
X20567Y-07262D01*
X20605Y-07281D01*
X20624Y-07300D01*
X20643Y-07338D01*
X20643Y-07376D01*
X20624Y-07433D01*
X20395Y-07662D01*
X20643Y-07662D01*
X20814Y-07662D02*
X20814Y-07262D01*
X21043Y-07662D01*
X21043Y-07262D01*
X21195Y-07262D02*
X21443Y-07262D01*
X21309Y-07414D01*
X21367Y-07414D01*
X21405Y-07433D01*
X21424Y-07452D01*
X21443Y-07490D01*
X21443Y-07586D01*
X21424Y-07624D01*
X21405Y-07643D01*
X21367Y-07662D01*
X21252Y-07662D01*
X21214Y-07643D01*
X21195Y-07624D01*
X21633Y-07662D02*
X21709Y-07662D01*
X21748Y-07643D01*
X21767Y-07624D01*
X21805Y-07567D01*
X21824Y-07490D01*
X21824Y-07338D01*
X21805Y-07300D01*
X21786Y-07281D01*
X21748Y-07262D01*
X21671Y-07262D01*
X21633Y-07281D01*
X21614Y-07300D01*
X21595Y-07338D01*
X21595Y-07433D01*
X21614Y-07471D01*
X21633Y-07490D01*
X21671Y-07510D01*
X21748Y-07510D01*
X21786Y-07490D01*
X21805Y-07471D01*
X21824Y-07433D01*
X22071Y-07262D02*
X22110Y-07262D01*
X22148Y-07281D01*
X22167Y-07300D01*
X22186Y-07338D01*
X22205Y-07414D01*
X22205Y-07510D01*
X22186Y-07586D01*
X22167Y-07624D01*
X22148Y-07643D01*
X22110Y-07662D01*
X22071Y-07662D01*
X22033Y-07643D01*
X22014Y-07624D01*
X21995Y-07586D01*
X21976Y-07510D01*
X21976Y-07414D01*
X21995Y-07338D01*
X22014Y-07300D01*
X22033Y-07281D01*
X22071Y-07262D01*
X22548Y-07395D02*
X22548Y-07662D01*
X22452Y-07243D02*
X22357Y-07529D01*
X22605Y-07529D01*
X11343Y-25033D02*
X11362Y-24976D01*
X11362Y-24880D01*
X11343Y-24842D01*
X11324Y-24823D01*
X11286Y-24804D01*
X11248Y-24804D01*
X11210Y-24823D01*
X11190Y-24842D01*
X11171Y-24880D01*
X11152Y-24957D01*
X11133Y-24995D01*
X11114Y-25014D01*
X11076Y-25033D01*
X11038Y-25033D01*
X11000Y-25014D01*
X10981Y-24995D01*
X10962Y-24957D01*
X10962Y-24861D01*
X10981Y-24804D01*
X10962Y-24671D02*
X11362Y-24576D01*
X11076Y-24499D01*
X11362Y-24423D01*
X10962Y-24328D01*
X11362Y-23966D02*
X11362Y-24195D01*
X11362Y-24081D02*
X10962Y-24081D01*
X11019Y-24119D01*
X11057Y-24157D01*
X11076Y-24195D01*
X12043Y-25805D02*
X12062Y-25748D01*
X12062Y-25652D01*
X12043Y-25614D01*
X12024Y-25595D01*
X11986Y-25576D01*
X11948Y-25576D01*
X11910Y-25595D01*
X11890Y-25614D01*
X11871Y-25652D01*
X11852Y-25729D01*
X11833Y-25767D01*
X11814Y-25786D01*
X11776Y-25805D01*
X11738Y-25805D01*
X11700Y-25786D01*
X11681Y-25767D01*
X11662Y-25729D01*
X11662Y-25633D01*
X11681Y-25576D01*
X11662Y-25443D02*
X12062Y-25348D01*
X11776Y-25271D01*
X12062Y-25195D01*
X11662Y-25100D01*
X12100Y-25043D02*
X12100Y-24738D01*
X12062Y-24643D02*
X11662Y-24643D01*
X11662Y-24490D01*
X11681Y-24452D01*
X11700Y-24433D01*
X11738Y-24414D01*
X11795Y-24414D01*
X11833Y-24433D01*
X11852Y-24452D01*
X11871Y-24490D01*
X11871Y-24643D01*
X11662Y-24243D02*
X11986Y-24243D01*
X12024Y-24224D01*
X12043Y-24205D01*
X12062Y-24167D01*
X12062Y-24090D01*
X12043Y-24052D01*
X12024Y-24033D01*
X11986Y-24014D01*
X11662Y-24014D01*
X12043Y-23843D02*
X12062Y-23786D01*
X12062Y-23690D01*
X12043Y-23652D01*
X12024Y-23633D01*
X11986Y-23614D01*
X11948Y-23614D01*
X11910Y-23633D01*
X11890Y-23652D01*
X11871Y-23690D01*
X11852Y-23767D01*
X11833Y-23805D01*
X11814Y-23824D01*
X11776Y-23843D01*
X11738Y-23843D01*
X11700Y-23824D01*
X11681Y-23805D01*
X11662Y-23767D01*
X11662Y-23671D01*
X11681Y-23614D01*
X12062Y-23443D02*
X11662Y-23443D01*
X11852Y-23443D02*
X11852Y-23214D01*
X12062Y-23214D02*
X11662Y-23214D01*
G54D10*
X47157Y-25932D02*
X47157Y-26296D01*
X47179Y-26339D01*
X47200Y-26361D01*
X47243Y-26382D01*
X47329Y-26382D01*
X47371Y-26361D01*
X47393Y-26339D01*
X47414Y-26296D01*
X47414Y-25932D01*
X47585Y-25932D02*
X47885Y-25932D01*
X47692Y-26382D01*
X47242Y-28257D02*
X47242Y-28424D01*
X46892Y-28424D01*
X47242Y-28141D02*
X46892Y-28141D01*
X47142Y-28024D01*
X46892Y-27907D01*
X47242Y-27907D01*
X46892Y-27574D02*
X46892Y-27741D01*
X47058Y-27757D01*
X47042Y-27741D01*
X47025Y-27707D01*
X47025Y-27624D01*
X47042Y-27591D01*
X47058Y-27574D01*
X47092Y-27557D01*
X47175Y-27557D01*
X47208Y-27574D01*
X47225Y-27591D01*
X47242Y-27624D01*
X47242Y-27707D01*
X47225Y-27741D01*
X47208Y-27757D01*
X47242Y-27224D02*
X47242Y-27424D01*
X47242Y-27324D02*
X46892Y-27324D01*
X46942Y-27358D01*
X46975Y-27391D01*
X46992Y-27424D01*
X46892Y-27008D02*
X46892Y-26975D01*
X46908Y-26941D01*
X46925Y-26925D01*
X46958Y-26908D01*
X47025Y-26891D01*
X47108Y-26891D01*
X47175Y-26908D01*
X47208Y-26925D01*
X47225Y-26941D01*
X47242Y-26975D01*
X47242Y-27008D01*
X47225Y-27041D01*
X47208Y-27058D01*
X47175Y-27075D01*
X47108Y-27091D01*
X47025Y-27091D01*
X46958Y-27075D01*
X46925Y-27058D01*
X46908Y-27041D01*
X46892Y-27008D01*
X47242Y-26725D02*
X47242Y-26658D01*
X47225Y-26625D01*
X47208Y-26608D01*
X47158Y-26575D01*
X47092Y-26558D01*
X46958Y-26558D01*
X46925Y-26575D01*
X46908Y-26592D01*
X46892Y-26625D01*
X46892Y-26692D01*
X46908Y-26725D01*
X46925Y-26742D01*
X46958Y-26758D01*
X47042Y-26758D01*
X47075Y-26742D01*
X47092Y-26725D01*
X47108Y-26692D01*
X47108Y-26625D01*
X47092Y-26592D01*
X47075Y-26575D01*
X47042Y-26558D01*
X47157Y-19432D02*
X47157Y-19796D01*
X47179Y-19839D01*
X47200Y-19861D01*
X47243Y-19882D01*
X47329Y-19882D01*
X47371Y-19861D01*
X47393Y-19839D01*
X47414Y-19796D01*
X47414Y-19432D01*
X47821Y-19432D02*
X47735Y-19432D01*
X47692Y-19454D01*
X47671Y-19475D01*
X47628Y-19539D01*
X47607Y-19625D01*
X47607Y-19796D01*
X47628Y-19839D01*
X47650Y-19861D01*
X47692Y-19882D01*
X47778Y-19882D01*
X47821Y-19861D01*
X47842Y-19839D01*
X47864Y-19796D01*
X47864Y-19689D01*
X47842Y-19646D01*
X47821Y-19625D01*
X47778Y-19604D01*
X47692Y-19604D01*
X47650Y-19625D01*
X47628Y-19646D01*
X47607Y-19689D01*
X47242Y-21757D02*
X47242Y-21924D01*
X46892Y-21924D01*
X47242Y-21641D02*
X46892Y-21641D01*
X47142Y-21524D01*
X46892Y-21407D01*
X47242Y-21407D01*
X46892Y-21074D02*
X46892Y-21241D01*
X47058Y-21257D01*
X47042Y-21241D01*
X47025Y-21207D01*
X47025Y-21124D01*
X47042Y-21091D01*
X47058Y-21074D01*
X47092Y-21057D01*
X47175Y-21057D01*
X47208Y-21074D01*
X47225Y-21091D01*
X47242Y-21124D01*
X47242Y-21207D01*
X47225Y-21241D01*
X47208Y-21257D01*
X47242Y-20724D02*
X47242Y-20924D01*
X47242Y-20824D02*
X46892Y-20824D01*
X46942Y-20858D01*
X46975Y-20891D01*
X46992Y-20924D01*
X46892Y-20508D02*
X46892Y-20475D01*
X46908Y-20441D01*
X46925Y-20425D01*
X46958Y-20408D01*
X47025Y-20391D01*
X47108Y-20391D01*
X47175Y-20408D01*
X47208Y-20425D01*
X47225Y-20441D01*
X47242Y-20475D01*
X47242Y-20508D01*
X47225Y-20541D01*
X47208Y-20558D01*
X47175Y-20575D01*
X47108Y-20591D01*
X47025Y-20591D01*
X46958Y-20575D01*
X46925Y-20558D01*
X46908Y-20541D01*
X46892Y-20508D01*
X47242Y-20225D02*
X47242Y-20158D01*
X47225Y-20125D01*
X47208Y-20108D01*
X47158Y-20075D01*
X47092Y-20058D01*
X46958Y-20058D01*
X46925Y-20075D01*
X46908Y-20092D01*
X46892Y-20125D01*
X46892Y-20192D01*
X46908Y-20225D01*
X46925Y-20242D01*
X46958Y-20258D01*
X47042Y-20258D01*
X47075Y-20242D01*
X47092Y-20225D01*
X47108Y-20192D01*
X47108Y-20125D01*
X47092Y-20092D01*
X47075Y-20075D01*
X47042Y-20058D01*
X47157Y-12432D02*
X47157Y-12796D01*
X47179Y-12839D01*
X47200Y-12861D01*
X47243Y-12882D01*
X47329Y-12882D01*
X47371Y-12861D01*
X47393Y-12839D01*
X47414Y-12796D01*
X47414Y-12432D01*
X47842Y-12432D02*
X47628Y-12432D01*
X47607Y-12646D01*
X47628Y-12625D01*
X47671Y-12604D01*
X47778Y-12604D01*
X47821Y-12625D01*
X47842Y-12646D01*
X47864Y-12689D01*
X47864Y-12796D01*
X47842Y-12839D01*
X47821Y-12861D01*
X47778Y-12882D01*
X47671Y-12882D01*
X47628Y-12861D01*
X47607Y-12839D01*
X47242Y-14757D02*
X47242Y-14924D01*
X46892Y-14924D01*
X47242Y-14641D02*
X46892Y-14641D01*
X47142Y-14524D01*
X46892Y-14407D01*
X47242Y-14407D01*
X46892Y-14074D02*
X46892Y-14241D01*
X47058Y-14257D01*
X47042Y-14241D01*
X47025Y-14207D01*
X47025Y-14124D01*
X47042Y-14091D01*
X47058Y-14074D01*
X47092Y-14057D01*
X47175Y-14057D01*
X47208Y-14074D01*
X47225Y-14091D01*
X47242Y-14124D01*
X47242Y-14207D01*
X47225Y-14241D01*
X47208Y-14257D01*
X47242Y-13724D02*
X47242Y-13924D01*
X47242Y-13824D02*
X46892Y-13824D01*
X46942Y-13858D01*
X46975Y-13891D01*
X46992Y-13924D01*
X46892Y-13508D02*
X46892Y-13475D01*
X46908Y-13441D01*
X46925Y-13425D01*
X46958Y-13408D01*
X47025Y-13391D01*
X47108Y-13391D01*
X47175Y-13408D01*
X47208Y-13425D01*
X47225Y-13441D01*
X47242Y-13475D01*
X47242Y-13508D01*
X47225Y-13541D01*
X47208Y-13558D01*
X47175Y-13575D01*
X47108Y-13591D01*
X47025Y-13591D01*
X46958Y-13575D01*
X46925Y-13558D01*
X46908Y-13541D01*
X46892Y-13508D01*
X47242Y-13225D02*
X47242Y-13158D01*
X47225Y-13125D01*
X47208Y-13108D01*
X47158Y-13075D01*
X47092Y-13058D01*
X46958Y-13058D01*
X46925Y-13075D01*
X46908Y-13092D01*
X46892Y-13125D01*
X46892Y-13192D01*
X46908Y-13225D01*
X46925Y-13242D01*
X46958Y-13258D01*
X47042Y-13258D01*
X47075Y-13242D01*
X47092Y-13225D01*
X47108Y-13192D01*
X47108Y-13125D01*
X47092Y-13092D01*
X47075Y-13075D01*
X47042Y-13058D01*
G54D15*
X51679Y-30323D02*
X51512Y-30061D01*
X51393Y-30323D02*
X51393Y-29773D01*
X51584Y-29773D01*
X51631Y-29799D01*
X51655Y-29825D01*
X51679Y-29877D01*
X51679Y-29956D01*
X51655Y-30008D01*
X51631Y-30035D01*
X51584Y-30061D01*
X51393Y-30061D01*
X52155Y-30323D02*
X51869Y-30323D01*
X52012Y-30323D02*
X52012Y-29773D01*
X51964Y-29851D01*
X51917Y-29904D01*
X51869Y-29930D01*
X52440Y-30008D02*
X52393Y-29982D01*
X52369Y-29956D01*
X52345Y-29904D01*
X52345Y-29877D01*
X52369Y-29825D01*
X52393Y-29799D01*
X52440Y-29773D01*
X52536Y-29773D01*
X52583Y-29799D01*
X52607Y-29825D01*
X52631Y-29877D01*
X52631Y-29904D01*
X52607Y-29956D01*
X52583Y-29982D01*
X52536Y-30008D01*
X52440Y-30008D01*
X52393Y-30035D01*
X52369Y-30061D01*
X52345Y-30113D01*
X52345Y-30218D01*
X52369Y-30270D01*
X52393Y-30296D01*
X52440Y-30323D01*
X52536Y-30323D01*
X52583Y-30296D01*
X52607Y-30270D01*
X52631Y-30218D01*
X52631Y-30113D01*
X52607Y-30061D01*
X52583Y-30035D01*
X52536Y-30008D01*
X40417Y-26523D02*
X40250Y-26261D01*
X40131Y-26523D02*
X40131Y-25973D01*
X40322Y-25973D01*
X40369Y-25999D01*
X40393Y-26025D01*
X40417Y-26077D01*
X40417Y-26156D01*
X40393Y-26208D01*
X40369Y-26235D01*
X40322Y-26261D01*
X40131Y-26261D01*
X40607Y-26025D02*
X40631Y-25999D01*
X40679Y-25973D01*
X40798Y-25973D01*
X40845Y-25999D01*
X40869Y-26025D01*
X40893Y-26077D01*
X40893Y-26130D01*
X40869Y-26208D01*
X40583Y-26523D01*
X40893Y-26523D01*
X40417Y-30023D02*
X40250Y-29761D01*
X40131Y-30023D02*
X40131Y-29473D01*
X40322Y-29473D01*
X40369Y-29499D01*
X40393Y-29525D01*
X40417Y-29577D01*
X40417Y-29656D01*
X40393Y-29708D01*
X40369Y-29735D01*
X40322Y-29761D01*
X40131Y-29761D01*
X40655Y-30023D02*
X40750Y-30023D01*
X40798Y-29996D01*
X40822Y-29970D01*
X40869Y-29892D01*
X40893Y-29787D01*
X40893Y-29577D01*
X40869Y-29525D01*
X40845Y-29499D01*
X40798Y-29473D01*
X40702Y-29473D01*
X40655Y-29499D01*
X40631Y-29525D01*
X40607Y-29577D01*
X40607Y-29708D01*
X40631Y-29761D01*
X40655Y-29787D01*
X40702Y-29813D01*
X40798Y-29813D01*
X40845Y-29787D01*
X40869Y-29761D01*
X40893Y-29708D01*
X40417Y-28423D02*
X40250Y-28161D01*
X40131Y-28423D02*
X40131Y-27873D01*
X40322Y-27873D01*
X40369Y-27899D01*
X40393Y-27925D01*
X40417Y-27977D01*
X40417Y-28056D01*
X40393Y-28108D01*
X40369Y-28135D01*
X40322Y-28161D01*
X40131Y-28161D01*
X40702Y-28108D02*
X40655Y-28082D01*
X40631Y-28056D01*
X40607Y-28004D01*
X40607Y-27977D01*
X40631Y-27925D01*
X40655Y-27899D01*
X40702Y-27873D01*
X40798Y-27873D01*
X40845Y-27899D01*
X40869Y-27925D01*
X40893Y-27977D01*
X40893Y-28004D01*
X40869Y-28056D01*
X40845Y-28082D01*
X40798Y-28108D01*
X40702Y-28108D01*
X40655Y-28135D01*
X40631Y-28161D01*
X40607Y-28213D01*
X40607Y-28318D01*
X40631Y-28370D01*
X40655Y-28396D01*
X40702Y-28423D01*
X40798Y-28423D01*
X40845Y-28396D01*
X40869Y-28370D01*
X40893Y-28318D01*
X40893Y-28213D01*
X40869Y-28161D01*
X40845Y-28135D01*
X40798Y-28108D01*
X30417Y-28523D02*
X30250Y-28261D01*
X30131Y-28523D02*
X30131Y-27973D01*
X30322Y-27973D01*
X30369Y-27999D01*
X30393Y-28025D01*
X30417Y-28077D01*
X30417Y-28156D01*
X30393Y-28208D01*
X30369Y-28235D01*
X30322Y-28261D01*
X30131Y-28261D01*
X30583Y-27973D02*
X30917Y-27973D01*
X30702Y-28523D01*
X30417Y-26923D02*
X30250Y-26661D01*
X30131Y-26923D02*
X30131Y-26373D01*
X30322Y-26373D01*
X30369Y-26399D01*
X30393Y-26425D01*
X30417Y-26477D01*
X30417Y-26556D01*
X30393Y-26608D01*
X30369Y-26635D01*
X30322Y-26661D01*
X30131Y-26661D01*
X30845Y-26373D02*
X30750Y-26373D01*
X30702Y-26399D01*
X30679Y-26425D01*
X30631Y-26504D01*
X30607Y-26608D01*
X30607Y-26818D01*
X30631Y-26870D01*
X30655Y-26896D01*
X30702Y-26923D01*
X30798Y-26923D01*
X30845Y-26896D01*
X30869Y-26870D01*
X30893Y-26818D01*
X30893Y-26687D01*
X30869Y-26635D01*
X30845Y-26608D01*
X30798Y-26582D01*
X30702Y-26582D01*
X30655Y-26608D01*
X30631Y-26635D01*
X30607Y-26687D01*
X40417Y-22023D02*
X40250Y-21761D01*
X40131Y-22023D02*
X40131Y-21473D01*
X40322Y-21473D01*
X40369Y-21499D01*
X40393Y-21525D01*
X40417Y-21577D01*
X40417Y-21656D01*
X40393Y-21708D01*
X40369Y-21735D01*
X40322Y-21761D01*
X40131Y-21761D01*
X40869Y-21473D02*
X40631Y-21473D01*
X40607Y-21735D01*
X40631Y-21708D01*
X40679Y-21682D01*
X40798Y-21682D01*
X40845Y-21708D01*
X40869Y-21735D01*
X40893Y-21787D01*
X40893Y-21918D01*
X40869Y-21970D01*
X40845Y-21996D01*
X40798Y-22023D01*
X40679Y-22023D01*
X40631Y-21996D01*
X40607Y-21970D01*
X30417Y-23523D02*
X30250Y-23261D01*
X30131Y-23523D02*
X30131Y-22973D01*
X30322Y-22973D01*
X30369Y-22999D01*
X30393Y-23025D01*
X30417Y-23077D01*
X30417Y-23156D01*
X30393Y-23208D01*
X30369Y-23235D01*
X30322Y-23261D01*
X30131Y-23261D01*
X30845Y-23156D02*
X30845Y-23523D01*
X30726Y-22946D02*
X30607Y-23339D01*
X30917Y-23339D01*
X30417Y-25023D02*
X30250Y-24761D01*
X30131Y-25023D02*
X30131Y-24473D01*
X30322Y-24473D01*
X30369Y-24499D01*
X30393Y-24525D01*
X30417Y-24577D01*
X30417Y-24656D01*
X30393Y-24708D01*
X30369Y-24735D01*
X30322Y-24761D01*
X30131Y-24761D01*
X30583Y-24473D02*
X30893Y-24473D01*
X30726Y-24682D01*
X30798Y-24682D01*
X30845Y-24708D01*
X30869Y-24735D01*
X30893Y-24787D01*
X30893Y-24918D01*
X30869Y-24970D01*
X30845Y-24996D01*
X30798Y-25023D01*
X30655Y-25023D01*
X30607Y-24996D01*
X30583Y-24970D01*
X15679Y-18523D02*
X15512Y-18261D01*
X15393Y-18523D02*
X15393Y-17973D01*
X15584Y-17973D01*
X15631Y-17999D01*
X15655Y-18025D01*
X15679Y-18077D01*
X15679Y-18156D01*
X15655Y-18208D01*
X15631Y-18235D01*
X15584Y-18261D01*
X15393Y-18261D01*
X16155Y-18523D02*
X15869Y-18523D01*
X16012Y-18523D02*
X16012Y-17973D01*
X15964Y-18051D01*
X15917Y-18104D01*
X15869Y-18130D01*
X16345Y-18025D02*
X16369Y-17999D01*
X16417Y-17973D01*
X16536Y-17973D01*
X16583Y-17999D01*
X16607Y-18025D01*
X16631Y-18077D01*
X16631Y-18130D01*
X16607Y-18208D01*
X16321Y-18523D01*
X16631Y-18523D01*
X40417Y-25023D02*
X40250Y-24761D01*
X40131Y-25023D02*
X40131Y-24473D01*
X40322Y-24473D01*
X40369Y-24499D01*
X40393Y-24525D01*
X40417Y-24577D01*
X40417Y-24656D01*
X40393Y-24708D01*
X40369Y-24735D01*
X40322Y-24761D01*
X40131Y-24761D01*
X40893Y-25023D02*
X40607Y-25023D01*
X40750Y-25023D02*
X40750Y-24473D01*
X40702Y-24551D01*
X40655Y-24604D01*
X40607Y-24630D01*
X15679Y-15423D02*
X15512Y-15161D01*
X15393Y-15423D02*
X15393Y-14873D01*
X15584Y-14873D01*
X15631Y-14899D01*
X15655Y-14925D01*
X15679Y-14977D01*
X15679Y-15056D01*
X15655Y-15108D01*
X15631Y-15135D01*
X15584Y-15161D01*
X15393Y-15161D01*
X16155Y-15423D02*
X15869Y-15423D01*
X16012Y-15423D02*
X16012Y-14873D01*
X15964Y-14951D01*
X15917Y-15004D01*
X15869Y-15030D01*
X16464Y-14873D02*
X16512Y-14873D01*
X16560Y-14899D01*
X16583Y-14925D01*
X16607Y-14977D01*
X16631Y-15082D01*
X16631Y-15213D01*
X16607Y-15318D01*
X16583Y-15370D01*
X16560Y-15396D01*
X16512Y-15423D01*
X16464Y-15423D01*
X16417Y-15396D01*
X16393Y-15370D01*
X16369Y-15318D01*
X16345Y-15213D01*
X16345Y-15082D01*
X16369Y-14977D01*
X16393Y-14925D01*
X16417Y-14899D01*
X16464Y-14873D01*
X15679Y-17023D02*
X15512Y-16761D01*
X15393Y-17023D02*
X15393Y-16473D01*
X15584Y-16473D01*
X15631Y-16499D01*
X15655Y-16525D01*
X15679Y-16577D01*
X15679Y-16656D01*
X15655Y-16708D01*
X15631Y-16735D01*
X15584Y-16761D01*
X15393Y-16761D01*
X16155Y-17023D02*
X15869Y-17023D01*
X16012Y-17023D02*
X16012Y-16473D01*
X15964Y-16551D01*
X15917Y-16604D01*
X15869Y-16630D01*
X16631Y-17023D02*
X16345Y-17023D01*
X16488Y-17023D02*
X16488Y-16473D01*
X16440Y-16551D01*
X16393Y-16604D01*
X16345Y-16630D01*
X10423Y-29821D02*
X10161Y-29988D01*
X10423Y-30107D02*
X09873Y-30107D01*
X09873Y-29916D01*
X09899Y-29869D01*
X09925Y-29845D01*
X09977Y-29821D01*
X10056Y-29821D01*
X10108Y-29845D01*
X10135Y-29869D01*
X10161Y-29916D01*
X10161Y-30107D01*
X10423Y-29345D02*
X10423Y-29631D01*
X10423Y-29488D02*
X09873Y-29488D01*
X09951Y-29536D01*
X10004Y-29583D01*
X10030Y-29631D01*
X09873Y-29179D02*
X09873Y-28869D01*
X10082Y-29036D01*
X10082Y-28964D01*
X10108Y-28917D01*
X10135Y-28893D01*
X10187Y-28869D01*
X10318Y-28869D01*
X10370Y-28893D01*
X10396Y-28917D01*
X10423Y-28964D01*
X10423Y-29107D01*
X10396Y-29155D01*
X10370Y-29179D01*
X22179Y-15023D02*
X22012Y-14761D01*
X21893Y-15023D02*
X21893Y-14473D01*
X22084Y-14473D01*
X22131Y-14499D01*
X22155Y-14525D01*
X22179Y-14577D01*
X22179Y-14656D01*
X22155Y-14708D01*
X22131Y-14735D01*
X22084Y-14761D01*
X21893Y-14761D01*
X22655Y-15023D02*
X22369Y-15023D01*
X22512Y-15023D02*
X22512Y-14473D01*
X22464Y-14551D01*
X22417Y-14604D01*
X22369Y-14630D01*
X23083Y-14656D02*
X23083Y-15023D01*
X22964Y-14446D02*
X22845Y-14839D01*
X23155Y-14839D01*
X20923Y-13321D02*
X20661Y-13488D01*
X20923Y-13607D02*
X20373Y-13607D01*
X20373Y-13416D01*
X20399Y-13369D01*
X20425Y-13345D01*
X20477Y-13321D01*
X20556Y-13321D01*
X20608Y-13345D01*
X20635Y-13369D01*
X20661Y-13416D01*
X20661Y-13607D01*
X20923Y-12845D02*
X20923Y-13131D01*
X20923Y-12988D02*
X20373Y-12988D01*
X20451Y-13036D01*
X20504Y-13083D01*
X20530Y-13131D01*
X20373Y-12393D02*
X20373Y-12631D01*
X20635Y-12655D01*
X20608Y-12631D01*
X20582Y-12583D01*
X20582Y-12464D01*
X20608Y-12417D01*
X20635Y-12393D01*
X20687Y-12369D01*
X20818Y-12369D01*
X20870Y-12393D01*
X20896Y-12417D01*
X20923Y-12464D01*
X20923Y-12583D01*
X20896Y-12631D01*
X20870Y-12655D01*
X25523Y-13321D02*
X25261Y-13488D01*
X25523Y-13607D02*
X24973Y-13607D01*
X24973Y-13416D01*
X24999Y-13369D01*
X25025Y-13345D01*
X25077Y-13321D01*
X25156Y-13321D01*
X25208Y-13345D01*
X25235Y-13369D01*
X25261Y-13416D01*
X25261Y-13607D01*
X25523Y-12845D02*
X25523Y-13131D01*
X25523Y-12988D02*
X24973Y-12988D01*
X25051Y-13036D01*
X25104Y-13083D01*
X25130Y-13131D01*
X24973Y-12417D02*
X24973Y-12512D01*
X24999Y-12560D01*
X25025Y-12583D01*
X25104Y-12631D01*
X25208Y-12655D01*
X25418Y-12655D01*
X25470Y-12631D01*
X25496Y-12607D01*
X25523Y-12560D01*
X25523Y-12464D01*
X25496Y-12417D01*
X25470Y-12393D01*
X25418Y-12369D01*
X25287Y-12369D01*
X25235Y-12393D01*
X25208Y-12417D01*
X25182Y-12464D01*
X25182Y-12560D01*
X25208Y-12607D01*
X25235Y-12631D01*
X25287Y-12655D01*
X24023Y-13321D02*
X23761Y-13488D01*
X24023Y-13607D02*
X23473Y-13607D01*
X23473Y-13416D01*
X23499Y-13369D01*
X23525Y-13345D01*
X23577Y-13321D01*
X23656Y-13321D01*
X23708Y-13345D01*
X23735Y-13369D01*
X23761Y-13416D01*
X23761Y-13607D01*
X24023Y-12845D02*
X24023Y-13131D01*
X24023Y-12988D02*
X23473Y-12988D01*
X23551Y-13036D01*
X23604Y-13083D01*
X23630Y-13131D01*
X23473Y-12679D02*
X23473Y-12345D01*
X24023Y-12560D01*
X17179Y-31423D02*
X17012Y-31161D01*
X16893Y-31423D02*
X16893Y-30873D01*
X17084Y-30873D01*
X17131Y-30899D01*
X17155Y-30925D01*
X17179Y-30977D01*
X17179Y-31056D01*
X17155Y-31108D01*
X17131Y-31135D01*
X17084Y-31161D01*
X16893Y-31161D01*
X17655Y-31423D02*
X17369Y-31423D01*
X17512Y-31423D02*
X17512Y-30873D01*
X17464Y-30951D01*
X17417Y-31004D01*
X17369Y-31030D01*
X17893Y-31423D02*
X17988Y-31423D01*
X18036Y-31396D01*
X18060Y-31370D01*
X18107Y-31292D01*
X18131Y-31187D01*
X18131Y-30977D01*
X18107Y-30925D01*
X18083Y-30899D01*
X18036Y-30873D01*
X17940Y-30873D01*
X17893Y-30899D01*
X17869Y-30925D01*
X17845Y-30977D01*
X17845Y-31108D01*
X17869Y-31161D01*
X17893Y-31187D01*
X17940Y-31213D01*
X18036Y-31213D01*
X18083Y-31187D01*
X18107Y-31161D01*
X18131Y-31108D01*
X40179Y-23523D02*
X40012Y-23261D01*
X39893Y-23523D02*
X39893Y-22973D01*
X40084Y-22973D01*
X40131Y-22999D01*
X40155Y-23025D01*
X40179Y-23077D01*
X40179Y-23156D01*
X40155Y-23208D01*
X40131Y-23235D01*
X40084Y-23261D01*
X39893Y-23261D01*
X40369Y-23025D02*
X40393Y-22999D01*
X40441Y-22973D01*
X40560Y-22973D01*
X40607Y-22999D01*
X40631Y-23025D01*
X40655Y-23077D01*
X40655Y-23130D01*
X40631Y-23208D01*
X40345Y-23523D01*
X40655Y-23523D01*
X40964Y-22973D02*
X41012Y-22973D01*
X41060Y-22999D01*
X41083Y-23025D01*
X41107Y-23077D01*
X41131Y-23182D01*
X41131Y-23313D01*
X41107Y-23418D01*
X41083Y-23470D01*
X41060Y-23496D01*
X41012Y-23523D01*
X40964Y-23523D01*
X40917Y-23496D01*
X40893Y-23470D01*
X40869Y-23418D01*
X40845Y-23313D01*
X40845Y-23182D01*
X40869Y-23077D01*
X40893Y-23025D01*
X40917Y-22999D01*
X40964Y-22973D01*
X12762Y-19633D02*
X13048Y-19633D01*
X13105Y-19653D01*
X13143Y-19691D01*
X13162Y-19748D01*
X13162Y-19786D01*
X12895Y-19271D02*
X13162Y-19271D01*
X12743Y-19367D02*
X13029Y-19462D01*
X13029Y-19214D01*
G54D10*
X11867Y-10262D02*
X11867Y-10548D01*
X11847Y-10605D01*
X11809Y-10643D01*
X11752Y-10662D01*
X11714Y-10662D01*
X12229Y-10262D02*
X12152Y-10262D01*
X12114Y-10281D01*
X12095Y-10300D01*
X12057Y-10357D01*
X12038Y-10433D01*
X12038Y-10586D01*
X12057Y-10624D01*
X12076Y-10643D01*
X12114Y-10662D01*
X12191Y-10662D01*
X12229Y-10643D01*
X12248Y-10624D01*
X12267Y-10586D01*
X12267Y-10490D01*
X12248Y-10452D01*
X12229Y-10433D01*
X12191Y-10414D01*
X12114Y-10414D01*
X12076Y-10433D01*
X12057Y-10452D01*
X12038Y-10490D01*
X12571Y-16100D02*
X12786Y-16100D01*
X12829Y-16114D01*
X12857Y-16143D01*
X12871Y-16186D01*
X12871Y-16214D01*
X12571Y-15814D02*
X12571Y-15957D01*
X12714Y-15971D01*
X12700Y-15957D01*
X12686Y-15928D01*
X12686Y-15857D01*
X12700Y-15828D01*
X12714Y-15814D01*
X12743Y-15799D01*
X12814Y-15799D01*
X12843Y-15814D01*
X12857Y-15828D01*
X12871Y-15857D01*
X12871Y-15928D01*
X12857Y-15957D01*
X12843Y-15971D01*
G54D17*
X14578Y-31321D02*
X14578Y-31021D01*
X14650Y-31021D01*
X14693Y-31036D01*
X14721Y-31064D01*
X14736Y-31093D01*
X14750Y-31150D01*
X14750Y-31193D01*
X14736Y-31250D01*
X14721Y-31279D01*
X14693Y-31307D01*
X14650Y-31321D01*
X14578Y-31321D01*
X15007Y-31121D02*
X15007Y-31321D01*
X14936Y-31007D02*
X14864Y-31221D01*
X15050Y-31221D01*
X13807Y-31121D02*
X13664Y-31121D01*
X13664Y-30821D01*
X13907Y-30964D02*
X14007Y-30964D01*
X14050Y-31121D02*
X13907Y-31121D01*
X13907Y-30821D01*
X14050Y-30821D01*
X14178Y-31121D02*
X14178Y-30821D01*
X14250Y-30821D01*
X14293Y-30836D01*
X14321Y-30864D01*
X14336Y-30893D01*
X14350Y-30950D01*
X14350Y-30993D01*
X14336Y-31050D01*
X14321Y-31079D01*
X14293Y-31107D01*
X14250Y-31121D01*
X14178Y-31121D01*
G54D13*
X15643Y-26985D02*
X16243Y-26585D01*
X15643Y-26585D02*
X16243Y-26985D01*
X16243Y-26043D02*
X16243Y-26386D01*
X16243Y-26214D02*
X15643Y-26214D01*
X15729Y-26271D01*
X15786Y-26329D01*
X15814Y-26386D01*
X18700Y-27857D02*
X18671Y-27828D01*
X18643Y-27771D01*
X18643Y-27628D01*
X18671Y-27571D01*
X18700Y-27542D01*
X18757Y-27514D01*
X18814Y-27514D01*
X18900Y-27542D01*
X19243Y-27885D01*
X19243Y-27514D01*
X18643Y-27143D02*
X18643Y-27086D01*
X18671Y-27029D01*
X18700Y-27000D01*
X18757Y-26971D01*
X18871Y-26943D01*
X19014Y-26943D01*
X19129Y-26971D01*
X19186Y-27000D01*
X19214Y-27029D01*
X19243Y-27086D01*
X19243Y-27143D01*
X19214Y-27200D01*
X19186Y-27229D01*
X19129Y-27257D01*
X19014Y-27286D01*
X18871Y-27286D01*
X18757Y-27257D01*
X18700Y-27229D01*
X18671Y-27200D01*
X18643Y-27143D01*
X19243Y-26686D02*
X18643Y-26686D01*
X19071Y-26486D01*
X18643Y-26286D01*
X19243Y-26286D01*
X19243Y-26000D02*
X18643Y-26000D01*
X18929Y-26000D02*
X18929Y-25657D01*
X19243Y-25657D02*
X18643Y-25657D01*
X18843Y-25428D02*
X18843Y-25114D01*
X19243Y-25428D01*
X19243Y-25114D01*
G54D15*
X57462Y-11650D02*
X57424Y-11626D01*
X57386Y-11579D01*
X57329Y-11507D01*
X57290Y-11483D01*
X57252Y-11483D01*
X57271Y-11602D02*
X57233Y-11579D01*
X57195Y-11531D01*
X57176Y-11436D01*
X57176Y-11269D01*
X57195Y-11174D01*
X57233Y-11126D01*
X57271Y-11102D01*
X57348Y-11102D01*
X57386Y-11126D01*
X57424Y-11174D01*
X57443Y-11269D01*
X57443Y-11436D01*
X57424Y-11531D01*
X57386Y-11579D01*
X57348Y-11602D01*
X57271Y-11602D01*
X57576Y-11102D02*
X57824Y-11102D01*
X57690Y-11293D01*
X57748Y-11293D01*
X57786Y-11317D01*
X57805Y-11340D01*
X57824Y-11388D01*
X57824Y-11507D01*
X57805Y-11555D01*
X57786Y-11579D01*
X57748Y-11602D01*
X57633Y-11602D01*
X57595Y-11579D01*
X57576Y-11555D01*
X56062Y-14712D02*
X56062Y-14312D01*
X56291Y-14712D01*
X56291Y-14312D01*
X56424Y-14312D02*
X56653Y-14312D01*
X56538Y-14712D02*
X56538Y-14312D01*
X56786Y-14712D02*
X56786Y-14312D01*
X56881Y-14312D01*
X56939Y-14331D01*
X56977Y-14369D01*
X56996Y-14407D01*
X57015Y-14483D01*
X57015Y-14540D01*
X56996Y-14617D01*
X56977Y-14655D01*
X56939Y-14693D01*
X56881Y-14712D01*
X56786Y-14712D01*
X57377Y-14312D02*
X57186Y-14312D01*
X57167Y-14502D01*
X57186Y-14483D01*
X57224Y-14464D01*
X57320Y-14464D01*
X57358Y-14483D01*
X57377Y-14502D01*
X57396Y-14540D01*
X57396Y-14636D01*
X57377Y-14674D01*
X57358Y-14693D01*
X57320Y-14712D01*
X57224Y-14712D01*
X57186Y-14693D01*
X57167Y-14674D01*
X57624Y-14483D02*
X57586Y-14464D01*
X57567Y-14445D01*
X57548Y-14407D01*
X57548Y-14388D01*
X57567Y-14350D01*
X57586Y-14331D01*
X57624Y-14312D01*
X57701Y-14312D01*
X57739Y-14331D01*
X57758Y-14350D01*
X57777Y-14388D01*
X57777Y-14407D01*
X57758Y-14445D01*
X57739Y-14464D01*
X57701Y-14483D01*
X57624Y-14483D01*
X57586Y-14502D01*
X57567Y-14521D01*
X57548Y-14560D01*
X57548Y-14636D01*
X57567Y-14674D01*
X57586Y-14693D01*
X57624Y-14712D01*
X57701Y-14712D01*
X57739Y-14693D01*
X57758Y-14674D01*
X57777Y-14636D01*
X57777Y-14560D01*
X57758Y-14521D01*
X57739Y-14502D01*
X57701Y-14483D01*
X58024Y-14312D02*
X58063Y-14312D01*
X58101Y-14331D01*
X58120Y-14350D01*
X58139Y-14388D01*
X58158Y-14464D01*
X58158Y-14560D01*
X58139Y-14636D01*
X58120Y-14674D01*
X58101Y-14693D01*
X58063Y-14712D01*
X58024Y-14712D01*
X57986Y-14693D01*
X57967Y-14674D01*
X57948Y-14636D01*
X57929Y-14560D01*
X57929Y-14464D01*
X57948Y-14388D01*
X57967Y-14350D01*
X57986Y-14331D01*
X58024Y-14312D01*
X58501Y-14312D02*
X58424Y-14312D01*
X58386Y-14331D01*
X58367Y-14350D01*
X58329Y-14407D01*
X58310Y-14483D01*
X58310Y-14636D01*
X58329Y-14674D01*
X58348Y-14693D01*
X58386Y-14712D01*
X58463Y-14712D01*
X58501Y-14693D01*
X58520Y-14674D01*
X58539Y-14636D01*
X58539Y-14540D01*
X58520Y-14502D01*
X58501Y-14483D01*
X58463Y-14464D01*
X58386Y-14464D01*
X58348Y-14483D01*
X58329Y-14502D01*
X58310Y-14540D01*
X58710Y-14712D02*
X58710Y-14312D01*
X58939Y-14712D01*
X58939Y-14312D01*
X53962Y-21650D02*
X53924Y-21626D01*
X53886Y-21579D01*
X53829Y-21507D01*
X53790Y-21483D01*
X53752Y-21483D01*
X53771Y-21602D02*
X53733Y-21579D01*
X53695Y-21531D01*
X53676Y-21436D01*
X53676Y-21269D01*
X53695Y-21174D01*
X53733Y-21126D01*
X53771Y-21102D01*
X53848Y-21102D01*
X53886Y-21126D01*
X53924Y-21174D01*
X53943Y-21269D01*
X53943Y-21436D01*
X53924Y-21531D01*
X53886Y-21579D01*
X53848Y-21602D01*
X53771Y-21602D01*
X54286Y-21102D02*
X54209Y-21102D01*
X54171Y-21126D01*
X54152Y-21150D01*
X54114Y-21221D01*
X54095Y-21317D01*
X54095Y-21507D01*
X54114Y-21555D01*
X54133Y-21579D01*
X54171Y-21602D01*
X54248Y-21602D01*
X54286Y-21579D01*
X54305Y-21555D01*
X54324Y-21507D01*
X54324Y-21388D01*
X54305Y-21340D01*
X54286Y-21317D01*
X54248Y-21293D01*
X54171Y-21293D01*
X54133Y-21317D01*
X54114Y-21340D01*
X54095Y-21388D01*
X52562Y-24712D02*
X52562Y-24312D01*
X52791Y-24712D01*
X52791Y-24312D01*
X52924Y-24312D02*
X53153Y-24312D01*
X53038Y-24712D02*
X53038Y-24312D01*
X53286Y-24712D02*
X53286Y-24312D01*
X53381Y-24312D01*
X53439Y-24331D01*
X53477Y-24369D01*
X53496Y-24407D01*
X53515Y-24483D01*
X53515Y-24540D01*
X53496Y-24617D01*
X53477Y-24655D01*
X53439Y-24693D01*
X53381Y-24712D01*
X53286Y-24712D01*
X53877Y-24312D02*
X53686Y-24312D01*
X53667Y-24502D01*
X53686Y-24483D01*
X53724Y-24464D01*
X53820Y-24464D01*
X53858Y-24483D01*
X53877Y-24502D01*
X53896Y-24540D01*
X53896Y-24636D01*
X53877Y-24674D01*
X53858Y-24693D01*
X53820Y-24712D01*
X53724Y-24712D01*
X53686Y-24693D01*
X53667Y-24674D01*
X54124Y-24483D02*
X54086Y-24464D01*
X54067Y-24445D01*
X54048Y-24407D01*
X54048Y-24388D01*
X54067Y-24350D01*
X54086Y-24331D01*
X54124Y-24312D01*
X54201Y-24312D01*
X54239Y-24331D01*
X54258Y-24350D01*
X54277Y-24388D01*
X54277Y-24407D01*
X54258Y-24445D01*
X54239Y-24464D01*
X54201Y-24483D01*
X54124Y-24483D01*
X54086Y-24502D01*
X54067Y-24521D01*
X54048Y-24560D01*
X54048Y-24636D01*
X54067Y-24674D01*
X54086Y-24693D01*
X54124Y-24712D01*
X54201Y-24712D01*
X54239Y-24693D01*
X54258Y-24674D01*
X54277Y-24636D01*
X54277Y-24560D01*
X54258Y-24521D01*
X54239Y-24502D01*
X54201Y-24483D01*
X54524Y-24312D02*
X54563Y-24312D01*
X54601Y-24331D01*
X54620Y-24350D01*
X54639Y-24388D01*
X54658Y-24464D01*
X54658Y-24560D01*
X54639Y-24636D01*
X54620Y-24674D01*
X54601Y-24693D01*
X54563Y-24712D01*
X54524Y-24712D01*
X54486Y-24693D01*
X54467Y-24674D01*
X54448Y-24636D01*
X54429Y-24560D01*
X54429Y-24464D01*
X54448Y-24388D01*
X54467Y-24350D01*
X54486Y-24331D01*
X54524Y-24312D01*
X55001Y-24312D02*
X54924Y-24312D01*
X54886Y-24331D01*
X54867Y-24350D01*
X54829Y-24407D01*
X54810Y-24483D01*
X54810Y-24636D01*
X54829Y-24674D01*
X54848Y-24693D01*
X54886Y-24712D01*
X54963Y-24712D01*
X55001Y-24693D01*
X55020Y-24674D01*
X55039Y-24636D01*
X55039Y-24540D01*
X55020Y-24502D01*
X55001Y-24483D01*
X54963Y-24464D01*
X54886Y-24464D01*
X54848Y-24483D01*
X54829Y-24502D01*
X54810Y-24540D01*
X55210Y-24712D02*
X55210Y-24312D01*
X55439Y-24712D01*
X55439Y-24312D01*
X57462Y-23650D02*
X57424Y-23626D01*
X57386Y-23579D01*
X57329Y-23507D01*
X57290Y-23483D01*
X57252Y-23483D01*
X57271Y-23602D02*
X57233Y-23579D01*
X57195Y-23531D01*
X57176Y-23436D01*
X57176Y-23269D01*
X57195Y-23174D01*
X57233Y-23126D01*
X57271Y-23102D01*
X57348Y-23102D01*
X57386Y-23126D01*
X57424Y-23174D01*
X57443Y-23269D01*
X57443Y-23436D01*
X57424Y-23531D01*
X57386Y-23579D01*
X57348Y-23602D01*
X57271Y-23602D01*
X57576Y-23102D02*
X57843Y-23102D01*
X57671Y-23602D01*
X56062Y-26712D02*
X56062Y-26312D01*
X56291Y-26712D01*
X56291Y-26312D01*
X56424Y-26312D02*
X56653Y-26312D01*
X56538Y-26712D02*
X56538Y-26312D01*
X56786Y-26712D02*
X56786Y-26312D01*
X56881Y-26312D01*
X56939Y-26331D01*
X56977Y-26369D01*
X56996Y-26407D01*
X57015Y-26483D01*
X57015Y-26540D01*
X56996Y-26617D01*
X56977Y-26655D01*
X56939Y-26693D01*
X56881Y-26712D01*
X56786Y-26712D01*
X57377Y-26312D02*
X57186Y-26312D01*
X57167Y-26502D01*
X57186Y-26483D01*
X57224Y-26464D01*
X57320Y-26464D01*
X57358Y-26483D01*
X57377Y-26502D01*
X57396Y-26540D01*
X57396Y-26636D01*
X57377Y-26674D01*
X57358Y-26693D01*
X57320Y-26712D01*
X57224Y-26712D01*
X57186Y-26693D01*
X57167Y-26674D01*
X57624Y-26483D02*
X57586Y-26464D01*
X57567Y-26445D01*
X57548Y-26407D01*
X57548Y-26388D01*
X57567Y-26350D01*
X57586Y-26331D01*
X57624Y-26312D01*
X57701Y-26312D01*
X57739Y-26331D01*
X57758Y-26350D01*
X57777Y-26388D01*
X57777Y-26407D01*
X57758Y-26445D01*
X57739Y-26464D01*
X57701Y-26483D01*
X57624Y-26483D01*
X57586Y-26502D01*
X57567Y-26521D01*
X57548Y-26560D01*
X57548Y-26636D01*
X57567Y-26674D01*
X57586Y-26693D01*
X57624Y-26712D01*
X57701Y-26712D01*
X57739Y-26693D01*
X57758Y-26674D01*
X57777Y-26636D01*
X57777Y-26560D01*
X57758Y-26521D01*
X57739Y-26502D01*
X57701Y-26483D01*
X58024Y-26312D02*
X58063Y-26312D01*
X58101Y-26331D01*
X58120Y-26350D01*
X58139Y-26388D01*
X58158Y-26464D01*
X58158Y-26560D01*
X58139Y-26636D01*
X58120Y-26674D01*
X58101Y-26693D01*
X58063Y-26712D01*
X58024Y-26712D01*
X57986Y-26693D01*
X57967Y-26674D01*
X57948Y-26636D01*
X57929Y-26560D01*
X57929Y-26464D01*
X57948Y-26388D01*
X57967Y-26350D01*
X57986Y-26331D01*
X58024Y-26312D01*
X58501Y-26312D02*
X58424Y-26312D01*
X58386Y-26331D01*
X58367Y-26350D01*
X58329Y-26407D01*
X58310Y-26483D01*
X58310Y-26636D01*
X58329Y-26674D01*
X58348Y-26693D01*
X58386Y-26712D01*
X58463Y-26712D01*
X58501Y-26693D01*
X58520Y-26674D01*
X58539Y-26636D01*
X58539Y-26540D01*
X58520Y-26502D01*
X58501Y-26483D01*
X58463Y-26464D01*
X58386Y-26464D01*
X58348Y-26483D01*
X58329Y-26502D01*
X58310Y-26540D01*
X58710Y-26712D02*
X58710Y-26312D01*
X58939Y-26712D01*
X58939Y-26312D01*
X53962Y-15650D02*
X53924Y-15626D01*
X53886Y-15579D01*
X53829Y-15507D01*
X53790Y-15483D01*
X53752Y-15483D01*
X53771Y-15602D02*
X53733Y-15579D01*
X53695Y-15531D01*
X53676Y-15436D01*
X53676Y-15269D01*
X53695Y-15174D01*
X53733Y-15126D01*
X53771Y-15102D01*
X53848Y-15102D01*
X53886Y-15126D01*
X53924Y-15174D01*
X53943Y-15269D01*
X53943Y-15436D01*
X53924Y-15531D01*
X53886Y-15579D01*
X53848Y-15602D01*
X53771Y-15602D01*
X54286Y-15269D02*
X54286Y-15602D01*
X54190Y-15079D02*
X54095Y-15436D01*
X54343Y-15436D01*
X52562Y-18712D02*
X52562Y-18312D01*
X52791Y-18712D01*
X52791Y-18312D01*
X52924Y-18312D02*
X53153Y-18312D01*
X53038Y-18712D02*
X53038Y-18312D01*
X53286Y-18712D02*
X53286Y-18312D01*
X53381Y-18312D01*
X53439Y-18331D01*
X53477Y-18369D01*
X53496Y-18407D01*
X53515Y-18483D01*
X53515Y-18540D01*
X53496Y-18617D01*
X53477Y-18655D01*
X53439Y-18693D01*
X53381Y-18712D01*
X53286Y-18712D01*
X53877Y-18312D02*
X53686Y-18312D01*
X53667Y-18502D01*
X53686Y-18483D01*
X53724Y-18464D01*
X53820Y-18464D01*
X53858Y-18483D01*
X53877Y-18502D01*
X53896Y-18540D01*
X53896Y-18636D01*
X53877Y-18674D01*
X53858Y-18693D01*
X53820Y-18712D01*
X53724Y-18712D01*
X53686Y-18693D01*
X53667Y-18674D01*
X54124Y-18483D02*
X54086Y-18464D01*
X54067Y-18445D01*
X54048Y-18407D01*
X54048Y-18388D01*
X54067Y-18350D01*
X54086Y-18331D01*
X54124Y-18312D01*
X54201Y-18312D01*
X54239Y-18331D01*
X54258Y-18350D01*
X54277Y-18388D01*
X54277Y-18407D01*
X54258Y-18445D01*
X54239Y-18464D01*
X54201Y-18483D01*
X54124Y-18483D01*
X54086Y-18502D01*
X54067Y-18521D01*
X54048Y-18560D01*
X54048Y-18636D01*
X54067Y-18674D01*
X54086Y-18693D01*
X54124Y-18712D01*
X54201Y-18712D01*
X54239Y-18693D01*
X54258Y-18674D01*
X54277Y-18636D01*
X54277Y-18560D01*
X54258Y-18521D01*
X54239Y-18502D01*
X54201Y-18483D01*
X54524Y-18312D02*
X54563Y-18312D01*
X54601Y-18331D01*
X54620Y-18350D01*
X54639Y-18388D01*
X54658Y-18464D01*
X54658Y-18560D01*
X54639Y-18636D01*
X54620Y-18674D01*
X54601Y-18693D01*
X54563Y-18712D01*
X54524Y-18712D01*
X54486Y-18693D01*
X54467Y-18674D01*
X54448Y-18636D01*
X54429Y-18560D01*
X54429Y-18464D01*
X54448Y-18388D01*
X54467Y-18350D01*
X54486Y-18331D01*
X54524Y-18312D01*
X55001Y-18312D02*
X54924Y-18312D01*
X54886Y-18331D01*
X54867Y-18350D01*
X54829Y-18407D01*
X54810Y-18483D01*
X54810Y-18636D01*
X54829Y-18674D01*
X54848Y-18693D01*
X54886Y-18712D01*
X54963Y-18712D01*
X55001Y-18693D01*
X55020Y-18674D01*
X55039Y-18636D01*
X55039Y-18540D01*
X55020Y-18502D01*
X55001Y-18483D01*
X54963Y-18464D01*
X54886Y-18464D01*
X54848Y-18483D01*
X54829Y-18502D01*
X54810Y-18540D01*
X55210Y-18712D02*
X55210Y-18312D01*
X55439Y-18712D01*
X55439Y-18312D01*
X57462Y-17650D02*
X57424Y-17626D01*
X57386Y-17579D01*
X57329Y-17507D01*
X57290Y-17483D01*
X57252Y-17483D01*
X57271Y-17602D02*
X57233Y-17579D01*
X57195Y-17531D01*
X57176Y-17436D01*
X57176Y-17269D01*
X57195Y-17174D01*
X57233Y-17126D01*
X57271Y-17102D01*
X57348Y-17102D01*
X57386Y-17126D01*
X57424Y-17174D01*
X57443Y-17269D01*
X57443Y-17436D01*
X57424Y-17531D01*
X57386Y-17579D01*
X57348Y-17602D01*
X57271Y-17602D01*
X57805Y-17102D02*
X57614Y-17102D01*
X57595Y-17340D01*
X57614Y-17317D01*
X57652Y-17293D01*
X57748Y-17293D01*
X57786Y-17317D01*
X57805Y-17340D01*
X57824Y-17388D01*
X57824Y-17507D01*
X57805Y-17555D01*
X57786Y-17579D01*
X57748Y-17602D01*
X57652Y-17602D01*
X57614Y-17579D01*
X57595Y-17555D01*
X56062Y-20712D02*
X56062Y-20312D01*
X56291Y-20712D01*
X56291Y-20312D01*
X56424Y-20312D02*
X56653Y-20312D01*
X56538Y-20712D02*
X56538Y-20312D01*
X56786Y-20712D02*
X56786Y-20312D01*
X56881Y-20312D01*
X56939Y-20331D01*
X56977Y-20369D01*
X56996Y-20407D01*
X57015Y-20483D01*
X57015Y-20540D01*
X56996Y-20617D01*
X56977Y-20655D01*
X56939Y-20693D01*
X56881Y-20712D01*
X56786Y-20712D01*
X57377Y-20312D02*
X57186Y-20312D01*
X57167Y-20502D01*
X57186Y-20483D01*
X57224Y-20464D01*
X57320Y-20464D01*
X57358Y-20483D01*
X57377Y-20502D01*
X57396Y-20540D01*
X57396Y-20636D01*
X57377Y-20674D01*
X57358Y-20693D01*
X57320Y-20712D01*
X57224Y-20712D01*
X57186Y-20693D01*
X57167Y-20674D01*
X57624Y-20483D02*
X57586Y-20464D01*
X57567Y-20445D01*
X57548Y-20407D01*
X57548Y-20388D01*
X57567Y-20350D01*
X57586Y-20331D01*
X57624Y-20312D01*
X57701Y-20312D01*
X57739Y-20331D01*
X57758Y-20350D01*
X57777Y-20388D01*
X57777Y-20407D01*
X57758Y-20445D01*
X57739Y-20464D01*
X57701Y-20483D01*
X57624Y-20483D01*
X57586Y-20502D01*
X57567Y-20521D01*
X57548Y-20560D01*
X57548Y-20636D01*
X57567Y-20674D01*
X57586Y-20693D01*
X57624Y-20712D01*
X57701Y-20712D01*
X57739Y-20693D01*
X57758Y-20674D01*
X57777Y-20636D01*
X57777Y-20560D01*
X57758Y-20521D01*
X57739Y-20502D01*
X57701Y-20483D01*
X58024Y-20312D02*
X58063Y-20312D01*
X58101Y-20331D01*
X58120Y-20350D01*
X58139Y-20388D01*
X58158Y-20464D01*
X58158Y-20560D01*
X58139Y-20636D01*
X58120Y-20674D01*
X58101Y-20693D01*
X58063Y-20712D01*
X58024Y-20712D01*
X57986Y-20693D01*
X57967Y-20674D01*
X57948Y-20636D01*
X57929Y-20560D01*
X57929Y-20464D01*
X57948Y-20388D01*
X57967Y-20350D01*
X57986Y-20331D01*
X58024Y-20312D01*
X58501Y-20312D02*
X58424Y-20312D01*
X58386Y-20331D01*
X58367Y-20350D01*
X58329Y-20407D01*
X58310Y-20483D01*
X58310Y-20636D01*
X58329Y-20674D01*
X58348Y-20693D01*
X58386Y-20712D01*
X58463Y-20712D01*
X58501Y-20693D01*
X58520Y-20674D01*
X58539Y-20636D01*
X58539Y-20540D01*
X58520Y-20502D01*
X58501Y-20483D01*
X58463Y-20464D01*
X58386Y-20464D01*
X58348Y-20483D01*
X58329Y-20502D01*
X58310Y-20540D01*
X58710Y-20712D02*
X58710Y-20312D01*
X58939Y-20712D01*
X58939Y-20312D01*
X53962Y-09650D02*
X53924Y-09626D01*
X53886Y-09579D01*
X53829Y-09507D01*
X53790Y-09483D01*
X53752Y-09483D01*
X53771Y-09602D02*
X53733Y-09579D01*
X53695Y-09531D01*
X53676Y-09436D01*
X53676Y-09269D01*
X53695Y-09174D01*
X53733Y-09126D01*
X53771Y-09102D01*
X53848Y-09102D01*
X53886Y-09126D01*
X53924Y-09174D01*
X53943Y-09269D01*
X53943Y-09436D01*
X53924Y-09531D01*
X53886Y-09579D01*
X53848Y-09602D01*
X53771Y-09602D01*
X54095Y-09150D02*
X54114Y-09126D01*
X54152Y-09102D01*
X54248Y-09102D01*
X54286Y-09126D01*
X54305Y-09150D01*
X54324Y-09198D01*
X54324Y-09245D01*
X54305Y-09317D01*
X54076Y-09602D01*
X54324Y-09602D01*
X52562Y-12712D02*
X52562Y-12312D01*
X52791Y-12712D01*
X52791Y-12312D01*
X52924Y-12312D02*
X53153Y-12312D01*
X53038Y-12712D02*
X53038Y-12312D01*
X53286Y-12712D02*
X53286Y-12312D01*
X53381Y-12312D01*
X53439Y-12331D01*
X53477Y-12369D01*
X53496Y-12407D01*
X53515Y-12483D01*
X53515Y-12540D01*
X53496Y-12617D01*
X53477Y-12655D01*
X53439Y-12693D01*
X53381Y-12712D01*
X53286Y-12712D01*
X53877Y-12312D02*
X53686Y-12312D01*
X53667Y-12502D01*
X53686Y-12483D01*
X53724Y-12464D01*
X53820Y-12464D01*
X53858Y-12483D01*
X53877Y-12502D01*
X53896Y-12540D01*
X53896Y-12636D01*
X53877Y-12674D01*
X53858Y-12693D01*
X53820Y-12712D01*
X53724Y-12712D01*
X53686Y-12693D01*
X53667Y-12674D01*
X54124Y-12483D02*
X54086Y-12464D01*
X54067Y-12445D01*
X54048Y-12407D01*
X54048Y-12388D01*
X54067Y-12350D01*
X54086Y-12331D01*
X54124Y-12312D01*
X54201Y-12312D01*
X54239Y-12331D01*
X54258Y-12350D01*
X54277Y-12388D01*
X54277Y-12407D01*
X54258Y-12445D01*
X54239Y-12464D01*
X54201Y-12483D01*
X54124Y-12483D01*
X54086Y-12502D01*
X54067Y-12521D01*
X54048Y-12560D01*
X54048Y-12636D01*
X54067Y-12674D01*
X54086Y-12693D01*
X54124Y-12712D01*
X54201Y-12712D01*
X54239Y-12693D01*
X54258Y-12674D01*
X54277Y-12636D01*
X54277Y-12560D01*
X54258Y-12521D01*
X54239Y-12502D01*
X54201Y-12483D01*
X54524Y-12312D02*
X54563Y-12312D01*
X54601Y-12331D01*
X54620Y-12350D01*
X54639Y-12388D01*
X54658Y-12464D01*
X54658Y-12560D01*
X54639Y-12636D01*
X54620Y-12674D01*
X54601Y-12693D01*
X54563Y-12712D01*
X54524Y-12712D01*
X54486Y-12693D01*
X54467Y-12674D01*
X54448Y-12636D01*
X54429Y-12560D01*
X54429Y-12464D01*
X54448Y-12388D01*
X54467Y-12350D01*
X54486Y-12331D01*
X54524Y-12312D01*
X55001Y-12312D02*
X54924Y-12312D01*
X54886Y-12331D01*
X54867Y-12350D01*
X54829Y-12407D01*
X54810Y-12483D01*
X54810Y-12636D01*
X54829Y-12674D01*
X54848Y-12693D01*
X54886Y-12712D01*
X54963Y-12712D01*
X55001Y-12693D01*
X55020Y-12674D01*
X55039Y-12636D01*
X55039Y-12540D01*
X55020Y-12502D01*
X55001Y-12483D01*
X54963Y-12464D01*
X54886Y-12464D01*
X54848Y-12483D01*
X54829Y-12502D01*
X54810Y-12540D01*
X55210Y-12712D02*
X55210Y-12312D01*
X55439Y-12712D01*
X55439Y-12312D01*
X47205Y-23962D02*
X47205Y-23562D01*
X47300Y-23562D01*
X47358Y-23581D01*
X47396Y-23619D01*
X47415Y-23657D01*
X47434Y-23733D01*
X47434Y-23790D01*
X47415Y-23867D01*
X47396Y-23905D01*
X47358Y-23943D01*
X47300Y-23962D01*
X47205Y-23962D01*
X47567Y-23562D02*
X47815Y-23562D01*
X47681Y-23714D01*
X47739Y-23714D01*
X47777Y-23733D01*
X47796Y-23752D01*
X47815Y-23790D01*
X47815Y-23886D01*
X47796Y-23924D01*
X47777Y-23943D01*
X47739Y-23962D01*
X47624Y-23962D01*
X47586Y-23943D01*
X47567Y-23924D01*
X47205Y-17362D02*
X47205Y-16962D01*
X47300Y-16962D01*
X47358Y-16981D01*
X47396Y-17019D01*
X47415Y-17057D01*
X47434Y-17133D01*
X47434Y-17190D01*
X47415Y-17267D01*
X47396Y-17305D01*
X47358Y-17343D01*
X47300Y-17362D01*
X47205Y-17362D01*
X47586Y-17000D02*
X47605Y-16981D01*
X47643Y-16962D01*
X47739Y-16962D01*
X47777Y-16981D01*
X47796Y-17000D01*
X47815Y-17038D01*
X47815Y-17076D01*
X47796Y-17133D01*
X47567Y-17362D01*
X47815Y-17362D01*
X47205Y-10462D02*
X47205Y-10062D01*
X47300Y-10062D01*
X47358Y-10081D01*
X47396Y-10119D01*
X47415Y-10157D01*
X47434Y-10233D01*
X47434Y-10290D01*
X47415Y-10367D01*
X47396Y-10405D01*
X47358Y-10443D01*
X47300Y-10462D01*
X47205Y-10462D01*
X47815Y-10462D02*
X47586Y-10462D01*
X47700Y-10462D02*
X47700Y-10062D01*
X47662Y-10119D01*
X47624Y-10157D01*
X47586Y-10176D01*
G54D18*
X22157Y-16243D02*
X22157Y-16729D01*
X22179Y-16786D01*
X22200Y-16814D01*
X22243Y-16843D01*
X22329Y-16843D01*
X22371Y-16814D01*
X22393Y-16786D01*
X22414Y-16729D01*
X22414Y-16243D01*
X22585Y-16243D02*
X22864Y-16243D01*
X22714Y-16471D01*
X22778Y-16471D01*
X22821Y-16500D01*
X22842Y-16529D01*
X22864Y-16586D01*
X22864Y-16729D01*
X22842Y-16786D01*
X22821Y-16814D01*
X22778Y-16843D01*
X22650Y-16843D01*
X22607Y-16814D01*
X22585Y-16786D01*
X22571Y-30804D02*
X22571Y-30590D01*
X22743Y-30847D02*
X22143Y-30697D01*
X22743Y-30547D01*
X22143Y-30461D02*
X22143Y-30204D01*
X22743Y-30333D02*
X22143Y-30333D01*
X22743Y-30054D02*
X22143Y-30054D01*
X22571Y-29904D01*
X22143Y-29754D01*
X22743Y-29754D01*
X22429Y-29540D02*
X22429Y-29390D01*
X22743Y-29326D02*
X22743Y-29540D01*
X22143Y-29540D01*
X22143Y-29326D01*
X22171Y-28897D02*
X22143Y-28940D01*
X22143Y-29004D01*
X22171Y-29069D01*
X22229Y-29111D01*
X22286Y-29133D01*
X22400Y-29154D01*
X22486Y-29154D01*
X22600Y-29133D01*
X22657Y-29111D01*
X22714Y-29069D01*
X22743Y-29004D01*
X22743Y-28961D01*
X22714Y-28897D01*
X22686Y-28876D01*
X22486Y-28876D01*
X22486Y-28961D01*
X22571Y-28704D02*
X22571Y-28490D01*
X22743Y-28747D02*
X22143Y-28597D01*
X22743Y-28447D01*
X22143Y-28340D02*
X22143Y-28061D01*
X22371Y-28211D01*
X22371Y-28147D01*
X22400Y-28104D01*
X22429Y-28083D01*
X22486Y-28061D01*
X22629Y-28061D01*
X22686Y-28083D01*
X22714Y-28104D01*
X22743Y-28147D01*
X22743Y-28275D01*
X22714Y-28318D01*
X22686Y-28340D01*
X22200Y-27889D02*
X22171Y-27868D01*
X22143Y-27825D01*
X22143Y-27718D01*
X22171Y-27675D01*
X22200Y-27654D01*
X22257Y-27632D01*
X22314Y-27632D01*
X22400Y-27654D01*
X22743Y-27911D01*
X22743Y-27632D01*
X22400Y-27375D02*
X22371Y-27417D01*
X22343Y-27439D01*
X22286Y-27460D01*
X22257Y-27460D01*
X22200Y-27439D01*
X22171Y-27417D01*
X22143Y-27375D01*
X22143Y-27289D01*
X22171Y-27246D01*
X22200Y-27225D01*
X22257Y-27203D01*
X22286Y-27203D01*
X22343Y-27225D01*
X22371Y-27246D01*
X22400Y-27289D01*
X22400Y-27375D01*
X22429Y-27417D01*
X22457Y-27439D01*
X22514Y-27460D01*
X22629Y-27460D01*
X22686Y-27439D01*
X22714Y-27417D01*
X22743Y-27375D01*
X22743Y-27289D01*
X22714Y-27246D01*
X22686Y-27225D01*
X22629Y-27203D01*
X22514Y-27203D01*
X22457Y-27225D01*
X22429Y-27246D01*
X22400Y-27289D01*
X22514Y-27010D02*
X22514Y-26667D01*
X22743Y-26453D02*
X22143Y-26453D01*
X22143Y-26281D01*
X22171Y-26239D01*
X22200Y-26217D01*
X22257Y-26196D01*
X22343Y-26196D01*
X22400Y-26217D01*
X22429Y-26239D01*
X22457Y-26281D01*
X22457Y-26453D01*
X35157Y-21743D02*
X35157Y-22229D01*
X35179Y-22286D01*
X35200Y-22314D01*
X35243Y-22343D01*
X35329Y-22343D01*
X35371Y-22314D01*
X35393Y-22286D01*
X35414Y-22229D01*
X35414Y-21743D01*
X35607Y-21800D02*
X35628Y-21771D01*
X35671Y-21743D01*
X35778Y-21743D01*
X35821Y-21771D01*
X35842Y-21800D01*
X35864Y-21857D01*
X35864Y-21914D01*
X35842Y-22000D01*
X35585Y-22343D01*
X35864Y-22343D01*
X35243Y-28211D02*
X35243Y-28425D01*
X34643Y-28425D01*
X35243Y-28061D02*
X34643Y-28061D01*
X35071Y-27911D01*
X34643Y-27761D01*
X35243Y-27761D01*
X34700Y-27568D02*
X34671Y-27547D01*
X34643Y-27504D01*
X34643Y-27397D01*
X34671Y-27354D01*
X34700Y-27333D01*
X34757Y-27311D01*
X34814Y-27311D01*
X34900Y-27333D01*
X35243Y-27590D01*
X35243Y-27311D01*
X35243Y-27096D02*
X35243Y-27011D01*
X35214Y-26968D01*
X35186Y-26946D01*
X35100Y-26904D01*
X34986Y-26882D01*
X34757Y-26882D01*
X34700Y-26904D01*
X34671Y-26925D01*
X34643Y-26968D01*
X34643Y-27054D01*
X34671Y-27096D01*
X34700Y-27118D01*
X34757Y-27139D01*
X34900Y-27139D01*
X34957Y-27118D01*
X34986Y-27096D01*
X35014Y-27054D01*
X35014Y-26968D01*
X34986Y-26925D01*
X34957Y-26904D01*
X34900Y-26882D01*
X34643Y-26603D02*
X34643Y-26560D01*
X34671Y-26517D01*
X34700Y-26496D01*
X34757Y-26475D01*
X34871Y-26453D01*
X35014Y-26453D01*
X35129Y-26475D01*
X35186Y-26496D01*
X35214Y-26517D01*
X35243Y-26560D01*
X35243Y-26603D01*
X35214Y-26646D01*
X35186Y-26667D01*
X35129Y-26689D01*
X35014Y-26710D01*
X34871Y-26710D01*
X34757Y-26689D01*
X34700Y-26667D01*
X34671Y-26646D01*
X34643Y-26603D01*
X34700Y-26281D02*
X34671Y-26260D01*
X34643Y-26217D01*
X34643Y-26110D01*
X34671Y-26067D01*
X34700Y-26046D01*
X34757Y-26024D01*
X34814Y-26024D01*
X34900Y-26046D01*
X35243Y-26303D01*
X35243Y-26024D01*
X35243Y-25831D02*
X34643Y-25831D01*
X35243Y-25574D01*
X34643Y-25574D01*
G54D15*
X14924Y-24257D02*
X14943Y-24276D01*
X14962Y-24333D01*
X14962Y-24371D01*
X14943Y-24429D01*
X14905Y-24467D01*
X14867Y-24486D01*
X14790Y-24505D01*
X14733Y-24505D01*
X14657Y-24486D01*
X14619Y-24467D01*
X14581Y-24429D01*
X14562Y-24371D01*
X14562Y-24333D01*
X14581Y-24276D01*
X14600Y-24257D01*
X14962Y-23876D02*
X14962Y-24105D01*
X14962Y-23991D02*
X14562Y-23991D01*
X14619Y-24029D01*
X14657Y-24067D01*
X14676Y-24105D01*
X14600Y-23724D02*
X14581Y-23705D01*
X14562Y-23667D01*
X14562Y-23571D01*
X14581Y-23533D01*
X14600Y-23514D01*
X14638Y-23495D01*
X14676Y-23495D01*
X14733Y-23514D01*
X14962Y-23743D01*
X14962Y-23495D01*
X15434Y-12424D02*
X15415Y-12443D01*
X15358Y-12462D01*
X15320Y-12462D01*
X15262Y-12443D01*
X15224Y-12405D01*
X15205Y-12367D01*
X15186Y-12290D01*
X15186Y-12233D01*
X15205Y-12157D01*
X15224Y-12119D01*
X15262Y-12081D01*
X15320Y-12062D01*
X15358Y-12062D01*
X15415Y-12081D01*
X15434Y-12100D01*
X15586Y-12100D02*
X15605Y-12081D01*
X15643Y-12062D01*
X15739Y-12062D01*
X15777Y-12081D01*
X15796Y-12100D01*
X15815Y-12138D01*
X15815Y-12176D01*
X15796Y-12233D01*
X15567Y-12462D01*
X15815Y-12462D01*
X11924Y-29157D02*
X11943Y-29176D01*
X11962Y-29233D01*
X11962Y-29271D01*
X11943Y-29329D01*
X11905Y-29367D01*
X11867Y-29386D01*
X11790Y-29405D01*
X11733Y-29405D01*
X11657Y-29386D01*
X11619Y-29367D01*
X11581Y-29329D01*
X11562Y-29271D01*
X11562Y-29233D01*
X11581Y-29176D01*
X11600Y-29157D01*
X11962Y-28776D02*
X11962Y-29005D01*
X11962Y-28891D02*
X11562Y-28891D01*
X11619Y-28929D01*
X11657Y-28967D01*
X11676Y-29005D01*
X11962Y-28395D02*
X11962Y-28624D01*
X11962Y-28510D02*
X11562Y-28510D01*
X11619Y-28548D01*
X11657Y-28586D01*
X11676Y-28624D01*
X26924Y-24257D02*
X26943Y-24276D01*
X26962Y-24333D01*
X26962Y-24371D01*
X26943Y-24429D01*
X26905Y-24467D01*
X26867Y-24486D01*
X26790Y-24505D01*
X26733Y-24505D01*
X26657Y-24486D01*
X26619Y-24467D01*
X26581Y-24429D01*
X26562Y-24371D01*
X26562Y-24333D01*
X26581Y-24276D01*
X26600Y-24257D01*
X26962Y-23876D02*
X26962Y-24105D01*
X26962Y-23991D02*
X26562Y-23991D01*
X26619Y-24029D01*
X26657Y-24067D01*
X26676Y-24105D01*
X26562Y-23629D02*
X26562Y-23590D01*
X26581Y-23552D01*
X26600Y-23533D01*
X26638Y-23514D01*
X26714Y-23495D01*
X26810Y-23495D01*
X26886Y-23514D01*
X26924Y-23533D01*
X26943Y-23552D01*
X26962Y-23590D01*
X26962Y-23629D01*
X26943Y-23667D01*
X26924Y-23686D01*
X26886Y-23705D01*
X26810Y-23724D01*
X26714Y-23724D01*
X26638Y-23705D01*
X26600Y-23686D01*
X26581Y-23667D01*
X26562Y-23629D01*
X25424Y-25066D02*
X25443Y-25085D01*
X25462Y-25142D01*
X25462Y-25180D01*
X25443Y-25238D01*
X25405Y-25276D01*
X25367Y-25295D01*
X25290Y-25314D01*
X25233Y-25314D01*
X25157Y-25295D01*
X25119Y-25276D01*
X25081Y-25238D01*
X25062Y-25180D01*
X25062Y-25142D01*
X25081Y-25085D01*
X25100Y-25066D01*
X25462Y-24876D02*
X25462Y-24800D01*
X25443Y-24761D01*
X25424Y-24742D01*
X25367Y-24704D01*
X25290Y-24685D01*
X25138Y-24685D01*
X25100Y-24704D01*
X25081Y-24723D01*
X25062Y-24761D01*
X25062Y-24838D01*
X25081Y-24876D01*
X25100Y-24895D01*
X25138Y-24914D01*
X25233Y-24914D01*
X25271Y-24895D01*
X25290Y-24876D01*
X25310Y-24838D01*
X25310Y-24761D01*
X25290Y-24723D01*
X25271Y-24704D01*
X25233Y-24685D01*
X17424Y-22066D02*
X17443Y-22085D01*
X17462Y-22142D01*
X17462Y-22180D01*
X17443Y-22238D01*
X17405Y-22276D01*
X17367Y-22295D01*
X17290Y-22314D01*
X17233Y-22314D01*
X17157Y-22295D01*
X17119Y-22276D01*
X17081Y-22238D01*
X17062Y-22180D01*
X17062Y-22142D01*
X17081Y-22085D01*
X17100Y-22066D01*
X17233Y-21838D02*
X17214Y-21876D01*
X17195Y-21895D01*
X17157Y-21914D01*
X17138Y-21914D01*
X17100Y-21895D01*
X17081Y-21876D01*
X17062Y-21838D01*
X17062Y-21761D01*
X17081Y-21723D01*
X17100Y-21704D01*
X17138Y-21685D01*
X17157Y-21685D01*
X17195Y-21704D01*
X17214Y-21723D01*
X17233Y-21761D01*
X17233Y-21838D01*
X17252Y-21876D01*
X17271Y-21895D01*
X17310Y-21914D01*
X17386Y-21914D01*
X17424Y-21895D01*
X17443Y-21876D01*
X17462Y-21838D01*
X17462Y-21761D01*
X17443Y-21723D01*
X17424Y-21704D01*
X17386Y-21685D01*
X17310Y-21685D01*
X17271Y-21704D01*
X17252Y-21723D01*
X17233Y-21761D01*
X40434Y-31424D02*
X40415Y-31443D01*
X40358Y-31462D01*
X40320Y-31462D01*
X40262Y-31443D01*
X40224Y-31405D01*
X40205Y-31367D01*
X40186Y-31290D01*
X40186Y-31233D01*
X40205Y-31157D01*
X40224Y-31119D01*
X40262Y-31081D01*
X40320Y-31062D01*
X40358Y-31062D01*
X40415Y-31081D01*
X40434Y-31100D01*
X40567Y-31062D02*
X40834Y-31062D01*
X40662Y-31462D01*
X35434Y-31424D02*
X35415Y-31443D01*
X35358Y-31462D01*
X35320Y-31462D01*
X35262Y-31443D01*
X35224Y-31405D01*
X35205Y-31367D01*
X35186Y-31290D01*
X35186Y-31233D01*
X35205Y-31157D01*
X35224Y-31119D01*
X35262Y-31081D01*
X35320Y-31062D01*
X35358Y-31062D01*
X35415Y-31081D01*
X35434Y-31100D01*
X35777Y-31062D02*
X35700Y-31062D01*
X35662Y-31081D01*
X35643Y-31100D01*
X35605Y-31157D01*
X35586Y-31233D01*
X35586Y-31386D01*
X35605Y-31424D01*
X35624Y-31443D01*
X35662Y-31462D01*
X35739Y-31462D01*
X35777Y-31443D01*
X35796Y-31424D01*
X35815Y-31386D01*
X35815Y-31290D01*
X35796Y-31252D01*
X35777Y-31233D01*
X35739Y-31214D01*
X35662Y-31214D01*
X35624Y-31233D01*
X35605Y-31252D01*
X35586Y-31290D01*
X30434Y-29924D02*
X30415Y-29943D01*
X30358Y-29962D01*
X30320Y-29962D01*
X30262Y-29943D01*
X30224Y-29905D01*
X30205Y-29867D01*
X30186Y-29790D01*
X30186Y-29733D01*
X30205Y-29657D01*
X30224Y-29619D01*
X30262Y-29581D01*
X30320Y-29562D01*
X30358Y-29562D01*
X30415Y-29581D01*
X30434Y-29600D01*
X30796Y-29562D02*
X30605Y-29562D01*
X30586Y-29752D01*
X30605Y-29733D01*
X30643Y-29714D01*
X30739Y-29714D01*
X30777Y-29733D01*
X30796Y-29752D01*
X30815Y-29790D01*
X30815Y-29886D01*
X30796Y-29924D01*
X30777Y-29943D01*
X30739Y-29962D01*
X30643Y-29962D01*
X30605Y-29943D01*
X30586Y-29924D01*
X40434Y-20424D02*
X40415Y-20443D01*
X40358Y-20462D01*
X40320Y-20462D01*
X40262Y-20443D01*
X40224Y-20405D01*
X40205Y-20367D01*
X40186Y-20290D01*
X40186Y-20233D01*
X40205Y-20157D01*
X40224Y-20119D01*
X40262Y-20081D01*
X40320Y-20062D01*
X40358Y-20062D01*
X40415Y-20081D01*
X40434Y-20100D01*
X40777Y-20195D02*
X40777Y-20462D01*
X40681Y-20043D02*
X40586Y-20329D01*
X40834Y-20329D01*
X30434Y-21924D02*
X30415Y-21943D01*
X30358Y-21962D01*
X30320Y-21962D01*
X30262Y-21943D01*
X30224Y-21905D01*
X30205Y-21867D01*
X30186Y-21790D01*
X30186Y-21733D01*
X30205Y-21657D01*
X30224Y-21619D01*
X30262Y-21581D01*
X30320Y-21562D01*
X30358Y-21562D01*
X30415Y-21581D01*
X30434Y-21600D01*
X30567Y-21562D02*
X30815Y-21562D01*
X30681Y-21714D01*
X30739Y-21714D01*
X30777Y-21733D01*
X30796Y-21752D01*
X30815Y-21790D01*
X30815Y-21886D01*
X30796Y-21924D01*
X30777Y-21943D01*
X30739Y-21962D01*
X30624Y-21962D01*
X30586Y-21943D01*
X30567Y-21924D01*
X14924Y-29257D02*
X14943Y-29276D01*
X14962Y-29333D01*
X14962Y-29371D01*
X14943Y-29429D01*
X14905Y-29467D01*
X14867Y-29486D01*
X14790Y-29505D01*
X14733Y-29505D01*
X14657Y-29486D01*
X14619Y-29467D01*
X14581Y-29429D01*
X14562Y-29371D01*
X14562Y-29333D01*
X14581Y-29276D01*
X14600Y-29257D01*
X14962Y-28876D02*
X14962Y-29105D01*
X14962Y-28991D02*
X14562Y-28991D01*
X14619Y-29029D01*
X14657Y-29067D01*
X14676Y-29105D01*
X14562Y-28743D02*
X14562Y-28495D01*
X14714Y-28629D01*
X14714Y-28571D01*
X14733Y-28533D01*
X14752Y-28514D01*
X14790Y-28495D01*
X14886Y-28495D01*
X14924Y-28514D01*
X14943Y-28533D01*
X14962Y-28571D01*
X14962Y-28686D01*
X14943Y-28724D01*
X14924Y-28743D01*
X30243Y-20424D02*
X30224Y-20443D01*
X30167Y-20462D01*
X30129Y-20462D01*
X30071Y-20443D01*
X30033Y-20405D01*
X30014Y-20367D01*
X29995Y-20290D01*
X29995Y-20233D01*
X30014Y-20157D01*
X30033Y-20119D01*
X30071Y-20081D01*
X30129Y-20062D01*
X30167Y-20062D01*
X30224Y-20081D01*
X30243Y-20100D01*
X30624Y-20462D02*
X30395Y-20462D01*
X30509Y-20462D02*
X30509Y-20062D01*
X30471Y-20119D01*
X30433Y-20157D01*
X30395Y-20176D01*
X30967Y-20195D02*
X30967Y-20462D01*
X30871Y-20043D02*
X30776Y-20329D01*
X31024Y-20329D01*
X22424Y-13257D02*
X22443Y-13276D01*
X22462Y-13333D01*
X22462Y-13371D01*
X22443Y-13429D01*
X22405Y-13467D01*
X22367Y-13486D01*
X22290Y-13505D01*
X22233Y-13505D01*
X22157Y-13486D01*
X22119Y-13467D01*
X22081Y-13429D01*
X22062Y-13371D01*
X22062Y-13333D01*
X22081Y-13276D01*
X22100Y-13257D01*
X22462Y-12876D02*
X22462Y-13105D01*
X22462Y-12991D02*
X22062Y-12991D01*
X22119Y-13029D01*
X22157Y-13067D01*
X22176Y-13105D01*
X22062Y-12514D02*
X22062Y-12705D01*
X22252Y-12724D01*
X22233Y-12705D01*
X22214Y-12667D01*
X22214Y-12571D01*
X22233Y-12533D01*
X22252Y-12514D01*
X22290Y-12495D01*
X22386Y-12495D01*
X22424Y-12514D01*
X22443Y-12533D01*
X22462Y-12571D01*
X22462Y-12667D01*
X22443Y-12705D01*
X22424Y-12724D01*
X43924Y-13257D02*
X43943Y-13276D01*
X43962Y-13333D01*
X43962Y-13371D01*
X43943Y-13429D01*
X43905Y-13467D01*
X43867Y-13486D01*
X43790Y-13505D01*
X43733Y-13505D01*
X43657Y-13486D01*
X43619Y-13467D01*
X43581Y-13429D01*
X43562Y-13371D01*
X43562Y-13333D01*
X43581Y-13276D01*
X43600Y-13257D01*
X43962Y-12876D02*
X43962Y-13105D01*
X43962Y-12991D02*
X43562Y-12991D01*
X43619Y-13029D01*
X43657Y-13067D01*
X43676Y-13105D01*
X43562Y-12533D02*
X43562Y-12610D01*
X43581Y-12648D01*
X43600Y-12667D01*
X43657Y-12705D01*
X43733Y-12724D01*
X43886Y-12724D01*
X43924Y-12705D01*
X43943Y-12686D01*
X43962Y-12648D01*
X43962Y-12571D01*
X43943Y-12533D01*
X43924Y-12514D01*
X43886Y-12495D01*
X43790Y-12495D01*
X43752Y-12514D01*
X43733Y-12533D01*
X43714Y-12571D01*
X43714Y-12648D01*
X43733Y-12686D01*
X43752Y-12705D01*
X43790Y-12724D01*
X50424Y-12257D02*
X50443Y-12276D01*
X50462Y-12333D01*
X50462Y-12371D01*
X50443Y-12429D01*
X50405Y-12467D01*
X50367Y-12486D01*
X50290Y-12505D01*
X50233Y-12505D01*
X50157Y-12486D01*
X50119Y-12467D01*
X50081Y-12429D01*
X50062Y-12371D01*
X50062Y-12333D01*
X50081Y-12276D01*
X50100Y-12257D01*
X50462Y-11876D02*
X50462Y-12105D01*
X50462Y-11991D02*
X50062Y-11991D01*
X50119Y-12029D01*
X50157Y-12067D01*
X50176Y-12105D01*
X50062Y-11743D02*
X50062Y-11476D01*
X50462Y-11648D01*
X43924Y-20257D02*
X43943Y-20276D01*
X43962Y-20333D01*
X43962Y-20371D01*
X43943Y-20429D01*
X43905Y-20467D01*
X43867Y-20486D01*
X43790Y-20505D01*
X43733Y-20505D01*
X43657Y-20486D01*
X43619Y-20467D01*
X43581Y-20429D01*
X43562Y-20371D01*
X43562Y-20333D01*
X43581Y-20276D01*
X43600Y-20257D01*
X43962Y-19876D02*
X43962Y-20105D01*
X43962Y-19991D02*
X43562Y-19991D01*
X43619Y-20029D01*
X43657Y-20067D01*
X43676Y-20105D01*
X43733Y-19648D02*
X43714Y-19686D01*
X43695Y-19705D01*
X43657Y-19724D01*
X43638Y-19724D01*
X43600Y-19705D01*
X43581Y-19686D01*
X43562Y-19648D01*
X43562Y-19571D01*
X43581Y-19533D01*
X43600Y-19514D01*
X43638Y-19495D01*
X43657Y-19495D01*
X43695Y-19514D01*
X43714Y-19533D01*
X43733Y-19571D01*
X43733Y-19648D01*
X43752Y-19686D01*
X43771Y-19705D01*
X43810Y-19724D01*
X43886Y-19724D01*
X43924Y-19705D01*
X43943Y-19686D01*
X43962Y-19648D01*
X43962Y-19571D01*
X43943Y-19533D01*
X43924Y-19514D01*
X43886Y-19495D01*
X43810Y-19495D01*
X43771Y-19514D01*
X43752Y-19533D01*
X43733Y-19571D01*
X50424Y-19257D02*
X50443Y-19276D01*
X50462Y-19333D01*
X50462Y-19371D01*
X50443Y-19429D01*
X50405Y-19467D01*
X50367Y-19486D01*
X50290Y-19505D01*
X50233Y-19505D01*
X50157Y-19486D01*
X50119Y-19467D01*
X50081Y-19429D01*
X50062Y-19371D01*
X50062Y-19333D01*
X50081Y-19276D01*
X50100Y-19257D01*
X50462Y-18876D02*
X50462Y-19105D01*
X50462Y-18991D02*
X50062Y-18991D01*
X50119Y-19029D01*
X50157Y-19067D01*
X50176Y-19105D01*
X50462Y-18686D02*
X50462Y-18610D01*
X50443Y-18571D01*
X50424Y-18552D01*
X50367Y-18514D01*
X50290Y-18495D01*
X50138Y-18495D01*
X50100Y-18514D01*
X50081Y-18533D01*
X50062Y-18571D01*
X50062Y-18648D01*
X50081Y-18686D01*
X50100Y-18705D01*
X50138Y-18724D01*
X50233Y-18724D01*
X50271Y-18705D01*
X50290Y-18686D01*
X50310Y-18648D01*
X50310Y-18571D01*
X50290Y-18533D01*
X50271Y-18514D01*
X50233Y-18495D01*
X43924Y-25757D02*
X43943Y-25776D01*
X43962Y-25833D01*
X43962Y-25871D01*
X43943Y-25929D01*
X43905Y-25967D01*
X43867Y-25986D01*
X43790Y-26005D01*
X43733Y-26005D01*
X43657Y-25986D01*
X43619Y-25967D01*
X43581Y-25929D01*
X43562Y-25871D01*
X43562Y-25833D01*
X43581Y-25776D01*
X43600Y-25757D01*
X43600Y-25605D02*
X43581Y-25586D01*
X43562Y-25548D01*
X43562Y-25452D01*
X43581Y-25414D01*
X43600Y-25395D01*
X43638Y-25376D01*
X43676Y-25376D01*
X43733Y-25395D01*
X43962Y-25624D01*
X43962Y-25376D01*
X43562Y-25129D02*
X43562Y-25090D01*
X43581Y-25052D01*
X43600Y-25033D01*
X43638Y-25014D01*
X43714Y-24995D01*
X43810Y-24995D01*
X43886Y-25014D01*
X43924Y-25033D01*
X43943Y-25052D01*
X43962Y-25090D01*
X43962Y-25129D01*
X43943Y-25167D01*
X43924Y-25186D01*
X43886Y-25205D01*
X43810Y-25224D01*
X43714Y-25224D01*
X43638Y-25205D01*
X43600Y-25186D01*
X43581Y-25167D01*
X43562Y-25129D01*
X50424Y-25757D02*
X50443Y-25776D01*
X50462Y-25833D01*
X50462Y-25871D01*
X50443Y-25929D01*
X50405Y-25967D01*
X50367Y-25986D01*
X50290Y-26005D01*
X50233Y-26005D01*
X50157Y-25986D01*
X50119Y-25967D01*
X50081Y-25929D01*
X50062Y-25871D01*
X50062Y-25833D01*
X50081Y-25776D01*
X50100Y-25757D01*
X50100Y-25605D02*
X50081Y-25586D01*
X50062Y-25548D01*
X50062Y-25452D01*
X50081Y-25414D01*
X50100Y-25395D01*
X50138Y-25376D01*
X50176Y-25376D01*
X50233Y-25395D01*
X50462Y-25624D01*
X50462Y-25376D01*
X50462Y-24995D02*
X50462Y-25224D01*
X50462Y-25110D02*
X50062Y-25110D01*
X50119Y-25148D01*
X50157Y-25186D01*
X50176Y-25224D01*
X15434Y-10424D02*
X15415Y-10443D01*
X15358Y-10462D01*
X15320Y-10462D01*
X15262Y-10443D01*
X15224Y-10405D01*
X15205Y-10367D01*
X15186Y-10290D01*
X15186Y-10233D01*
X15205Y-10157D01*
X15224Y-10119D01*
X15262Y-10081D01*
X15320Y-10062D01*
X15358Y-10062D01*
X15415Y-10081D01*
X15434Y-10100D01*
X15815Y-10462D02*
X15586Y-10462D01*
X15700Y-10462D02*
X15700Y-10062D01*
X15662Y-10119D01*
X15624Y-10157D01*
X15586Y-10176D01*
G54D18*
X33657Y-15743D02*
X33657Y-16229D01*
X33679Y-16286D01*
X33700Y-16314D01*
X33743Y-16343D01*
X33829Y-16343D01*
X33871Y-16314D01*
X33893Y-16286D01*
X33914Y-16229D01*
X33914Y-15743D01*
X34321Y-15943D02*
X34321Y-16343D01*
X34214Y-15714D02*
X34107Y-16143D01*
X34385Y-16143D01*
X28246Y-16643D02*
X28546Y-16643D01*
X28353Y-17243D01*
X28911Y-16843D02*
X28911Y-17243D01*
X28804Y-16614D02*
X28697Y-17043D01*
X28975Y-17043D01*
X29147Y-17243D02*
X29147Y-16643D01*
X29147Y-16929D02*
X29404Y-16929D01*
X29404Y-17243D02*
X29404Y-16643D01*
X29875Y-17186D02*
X29854Y-17214D01*
X29790Y-17243D01*
X29747Y-17243D01*
X29682Y-17214D01*
X29640Y-17157D01*
X29618Y-17100D01*
X29597Y-16986D01*
X29597Y-16900D01*
X29618Y-16786D01*
X29640Y-16729D01*
X29682Y-16671D01*
X29747Y-16643D01*
X29790Y-16643D01*
X29854Y-16671D01*
X29875Y-16700D01*
X30154Y-16643D02*
X30197Y-16643D01*
X30240Y-16671D01*
X30261Y-16700D01*
X30282Y-16757D01*
X30304Y-16871D01*
X30304Y-17014D01*
X30282Y-17129D01*
X30261Y-17186D01*
X30240Y-17214D01*
X30197Y-17243D01*
X30154Y-17243D01*
X30111Y-17214D01*
X30090Y-17186D01*
X30068Y-17129D01*
X30047Y-17014D01*
X30047Y-16871D01*
X30068Y-16757D01*
X30090Y-16700D01*
X30111Y-16671D01*
X30154Y-16643D01*
X30561Y-16900D02*
X30519Y-16871D01*
X30497Y-16843D01*
X30476Y-16786D01*
X30476Y-16757D01*
X30497Y-16700D01*
X30519Y-16671D01*
X30561Y-16643D01*
X30647Y-16643D01*
X30690Y-16671D01*
X30711Y-16700D01*
X30733Y-16757D01*
X30733Y-16786D01*
X30711Y-16843D01*
X30690Y-16871D01*
X30647Y-16900D01*
X30561Y-16900D01*
X30519Y-16929D01*
X30497Y-16957D01*
X30476Y-17014D01*
X30476Y-17129D01*
X30497Y-17186D01*
X30519Y-17214D01*
X30561Y-17243D01*
X30647Y-17243D01*
X30690Y-17214D01*
X30711Y-17186D01*
X30733Y-17129D01*
X30733Y-17014D01*
X30711Y-16957D01*
X30690Y-16929D01*
X30647Y-16900D01*
G54D13*
X61800Y-10643D02*
X61800Y-11071D01*
X61772Y-11157D01*
X61715Y-11214D01*
X61629Y-11243D01*
X61572Y-11243D01*
X62400Y-11243D02*
X62057Y-11243D01*
X62229Y-11243D02*
X62229Y-10643D01*
X62172Y-10729D01*
X62114Y-10786D01*
X62057Y-10814D01*
X60743Y-14643D02*
X60743Y-15129D01*
X60771Y-15186D01*
X60800Y-15214D01*
X60857Y-15243D01*
X60971Y-15243D01*
X61029Y-15214D01*
X61057Y-15186D01*
X61086Y-15129D01*
X61086Y-14643D01*
X61229Y-15300D02*
X61686Y-15300D01*
X61943Y-14643D02*
X62057Y-14643D01*
X62115Y-14671D01*
X62172Y-14729D01*
X62200Y-14843D01*
X62200Y-15043D01*
X62172Y-15157D01*
X62115Y-15214D01*
X62057Y-15243D01*
X61943Y-15243D01*
X61886Y-15214D01*
X61829Y-15157D01*
X61800Y-15043D01*
X61800Y-14843D01*
X61829Y-14729D01*
X61886Y-14671D01*
X61943Y-14643D01*
X62458Y-14643D02*
X62458Y-15129D01*
X62486Y-15186D01*
X62515Y-15214D01*
X62572Y-15243D01*
X62686Y-15243D01*
X62744Y-15214D01*
X62772Y-15186D01*
X62801Y-15129D01*
X62801Y-14643D01*
X63001Y-14643D02*
X63344Y-14643D01*
X63173Y-15243D02*
X63173Y-14643D01*
X61800Y-16643D02*
X61800Y-17071D01*
X61772Y-17157D01*
X61715Y-17214D01*
X61629Y-17243D01*
X61572Y-17243D01*
X62057Y-16700D02*
X62086Y-16671D01*
X62143Y-16643D01*
X62286Y-16643D01*
X62343Y-16671D01*
X62372Y-16700D01*
X62400Y-16757D01*
X62400Y-16814D01*
X62372Y-16900D01*
X62029Y-17243D01*
X62400Y-17243D01*
X60714Y-20643D02*
X60914Y-21243D01*
X61114Y-20643D01*
X61171Y-21300D02*
X61628Y-21300D01*
X61885Y-20643D02*
X61999Y-20643D01*
X62057Y-20671D01*
X62114Y-20729D01*
X62142Y-20843D01*
X62142Y-21043D01*
X62114Y-21157D01*
X62057Y-21214D01*
X61999Y-21243D01*
X61885Y-21243D01*
X61828Y-21214D01*
X61771Y-21157D01*
X61742Y-21043D01*
X61742Y-20843D01*
X61771Y-20729D01*
X61828Y-20671D01*
X61885Y-20643D01*
X62400Y-20643D02*
X62400Y-21129D01*
X62428Y-21186D01*
X62457Y-21214D01*
X62514Y-21243D01*
X62628Y-21243D01*
X62686Y-21214D01*
X62714Y-21186D01*
X62743Y-21129D01*
X62743Y-20643D01*
X62943Y-20643D02*
X63286Y-20643D01*
X63115Y-21243D02*
X63115Y-20643D01*
X61800Y-22643D02*
X61800Y-23071D01*
X61772Y-23157D01*
X61715Y-23214D01*
X61629Y-23243D01*
X61572Y-23243D01*
X62029Y-22643D02*
X62400Y-22643D01*
X62200Y-22871D01*
X62286Y-22871D01*
X62343Y-22900D01*
X62372Y-22929D01*
X62400Y-22986D01*
X62400Y-23129D01*
X62372Y-23186D01*
X62343Y-23214D01*
X62286Y-23243D01*
X62114Y-23243D01*
X62057Y-23214D01*
X62029Y-23186D01*
X60657Y-26643D02*
X60800Y-27243D01*
X60914Y-26814D01*
X61028Y-27243D01*
X61171Y-26643D01*
X61257Y-27300D02*
X61714Y-27300D01*
X61971Y-26643D02*
X62085Y-26643D01*
X62143Y-26671D01*
X62200Y-26729D01*
X62228Y-26843D01*
X62228Y-27043D01*
X62200Y-27157D01*
X62143Y-27214D01*
X62085Y-27243D01*
X61971Y-27243D01*
X61914Y-27214D01*
X61857Y-27157D01*
X61828Y-27043D01*
X61828Y-26843D01*
X61857Y-26729D01*
X61914Y-26671D01*
X61971Y-26643D01*
X62486Y-26643D02*
X62486Y-27129D01*
X62514Y-27186D01*
X62543Y-27214D01*
X62600Y-27243D01*
X62714Y-27243D01*
X62772Y-27214D01*
X62800Y-27186D01*
X62829Y-27129D01*
X62829Y-26643D01*
X63029Y-26643D02*
X63372Y-26643D01*
X63201Y-27243D02*
X63201Y-26643D01*
X29300Y-07643D02*
X29300Y-08071D01*
X29272Y-08157D01*
X29215Y-08214D01*
X29129Y-08243D01*
X29072Y-08243D01*
X29529Y-07643D02*
X29929Y-07643D01*
X29672Y-08243D01*
X28458Y-13429D02*
X28544Y-13457D01*
X28572Y-13486D01*
X28601Y-13543D01*
X28601Y-13629D01*
X28572Y-13686D01*
X28544Y-13714D01*
X28486Y-13743D01*
X28258Y-13743D01*
X28258Y-13143D01*
X28458Y-13143D01*
X28515Y-13171D01*
X28544Y-13200D01*
X28572Y-13257D01*
X28572Y-13314D01*
X28544Y-13371D01*
X28515Y-13400D01*
X28458Y-13429D01*
X28258Y-13429D01*
X28829Y-13571D02*
X29115Y-13571D01*
X28772Y-13743D02*
X28972Y-13143D01*
X29172Y-13743D01*
X29286Y-13143D02*
X29629Y-13143D01*
X29458Y-13743D02*
X29458Y-13143D01*
X29743Y-13143D02*
X30086Y-13143D01*
X29915Y-13743D02*
X29915Y-13143D01*
X30286Y-13514D02*
X30743Y-13514D01*
X30514Y-13743D02*
X30514Y-13286D01*
X34800Y-07643D02*
X34800Y-08071D01*
X34772Y-08157D01*
X34715Y-08214D01*
X34629Y-08243D01*
X34572Y-08243D01*
X35172Y-07900D02*
X35114Y-07871D01*
X35086Y-07843D01*
X35057Y-07786D01*
X35057Y-07757D01*
X35086Y-07700D01*
X35114Y-07671D01*
X35172Y-07643D01*
X35286Y-07643D01*
X35343Y-07671D01*
X35372Y-07700D01*
X35400Y-07757D01*
X35400Y-07786D01*
X35372Y-07843D01*
X35343Y-07871D01*
X35286Y-07900D01*
X35172Y-07900D01*
X35114Y-07929D01*
X35086Y-07957D01*
X35057Y-08014D01*
X35057Y-08129D01*
X35086Y-08186D01*
X35114Y-08214D01*
X35172Y-08243D01*
X35286Y-08243D01*
X35343Y-08214D01*
X35372Y-08186D01*
X35400Y-08129D01*
X35400Y-08014D01*
X35372Y-07957D01*
X35343Y-07929D01*
X35286Y-07900D01*
X33958Y-13429D02*
X34044Y-13457D01*
X34072Y-13486D01*
X34101Y-13543D01*
X34101Y-13629D01*
X34072Y-13686D01*
X34044Y-13714D01*
X33986Y-13743D01*
X33758Y-13743D01*
X33758Y-13143D01*
X33958Y-13143D01*
X34015Y-13171D01*
X34044Y-13200D01*
X34072Y-13257D01*
X34072Y-13314D01*
X34044Y-13371D01*
X34015Y-13400D01*
X33958Y-13429D01*
X33758Y-13429D01*
X34329Y-13571D02*
X34615Y-13571D01*
X34272Y-13743D02*
X34472Y-13143D01*
X34672Y-13743D01*
X34786Y-13143D02*
X35129Y-13143D01*
X34958Y-13743D02*
X34958Y-13143D01*
X35243Y-13143D02*
X35586Y-13143D01*
X35415Y-13743D02*
X35415Y-13143D01*
X35786Y-13514D02*
X36243Y-13514D01*
M02*
