M48
;DRILL file {PCBnew (2011-05-25)-stable} date Sun 14 Jun 2015 13:18:03 MST
;FORMAT={-:-/ absolute / inch / decimal}
FMAT,2
INCH,TZ
T1C0.025
T2C0.030
T3C0.032
T4C0.035
T5C0.040
%
G90
G05
M72
T1
X1.080Y1.730
X1.460Y1.410
X1.580Y1.490
X1.620Y2.010
X1.680Y2.070
X1.680Y2.370
X1.900Y2.290
X1.920Y1.750
X1.980Y2.270
X2.020Y2.510
X2.080Y1.670
X2.220Y2.530
X2.240Y2.390
X2.280Y2.690
X2.280Y2.790
X2.480Y2.070
X2.520Y1.770
X2.700Y2.750
X2.720Y1.490
X2.740Y2.070
X2.900Y2.650
X3.160Y1.730
X3.260Y2.090
X3.280Y0.870
X3.280Y0.910
X3.280Y0.950
X3.280Y0.990
X3.280Y1.030
X3.280Y1.070
X3.280Y1.110
X3.280Y1.150
X3.280Y1.190
X3.280Y1.230
X3.320Y2.970
X3.500Y2.090
X3.540Y2.370
X3.580Y2.930
X3.600Y1.990
X3.720Y0.870
X3.720Y0.910
X3.720Y0.950
X3.720Y0.990
X3.720Y1.030
X3.720Y1.070
X3.720Y1.110
X3.720Y1.150
X3.720Y1.190
X3.720Y1.230
X3.720Y2.270
X3.780Y2.210
X3.820Y2.850
X3.840Y2.770
X3.900Y1.930
X4.180Y1.990
X4.360Y2.770
X4.460Y2.770
X4.555Y1.305
X4.560Y2.670
X4.640Y2.570
X4.640Y3.050
X4.645Y1.545
X4.645Y2.245
X4.645Y2.890
X4.920Y1.250
X4.920Y2.610
X4.940Y1.950
X5.000Y1.410
X5.000Y2.110
X5.000Y2.750
X5.200Y1.610
X5.200Y2.210
X5.340Y2.990
X5.540Y1.510
X5.600Y2.270
X5.840Y1.690
X5.840Y2.300
X5.840Y2.890
T2
X1.750Y2.550
X1.750Y2.750
T3
X1.050Y2.300
X1.050Y2.600
X1.100Y2.800
X1.100Y3.100
X1.250Y2.300
X1.250Y2.600
X1.250Y2.800
X1.250Y3.000
X1.350Y3.200
X1.450Y1.100
X1.450Y1.300
X1.450Y1.600
X1.450Y1.750
X1.450Y1.900
X1.450Y3.200
X1.550Y2.300
X1.550Y2.500
X1.550Y2.800
X1.550Y3.000
X1.600Y3.200
X1.650Y1.100
X1.650Y1.300
X1.750Y1.600
X1.750Y1.750
X1.750Y1.900
X1.800Y2.100
X1.800Y2.300
X1.860Y1.220
X1.860Y1.320
X1.900Y3.200
X1.960Y1.220
X2.100Y1.550
X2.100Y1.800
X2.100Y1.900
X2.100Y2.000
X2.100Y2.100
X2.100Y2.200
X2.100Y2.300
X2.100Y2.400
X2.100Y2.500
X2.100Y2.600
X2.100Y2.700
X2.100Y2.800
X2.100Y2.900
X2.100Y3.000
X2.100Y3.100
X2.150Y0.900
X2.150Y1.000
X2.150Y1.150
X2.150Y1.450
X2.250Y0.900
X2.300Y1.200
X2.300Y1.400
X2.400Y1.550
X2.400Y1.800
X2.400Y1.900
X2.400Y2.000
X2.400Y2.100
X2.400Y2.200
X2.400Y2.300
X2.400Y2.400
X2.400Y2.500
X2.400Y2.600
X2.400Y2.700
X2.400Y2.800
X2.400Y2.900
X2.400Y3.000
X2.400Y3.100
X2.450Y1.150
X2.450Y1.450
X2.600Y1.150
X2.600Y1.450
X2.600Y2.400
X2.600Y2.600
X2.700Y1.600
X2.700Y1.900
X2.750Y2.300
X2.750Y2.500
X2.800Y1.600
X2.800Y1.900
X2.900Y1.600
X2.900Y1.900
X2.900Y2.400
X2.900Y2.550
X2.900Y2.750
X2.900Y2.900
X2.950Y2.100
X2.950Y2.250
X2.950Y3.050
X3.000Y1.600
X3.000Y1.900
X3.100Y1.600
X3.100Y1.900
X3.150Y2.100
X3.150Y2.250
X3.150Y3.050
X3.200Y1.600
X3.200Y1.900
X3.200Y2.400
X3.200Y2.550
X3.200Y2.750
X3.200Y2.900
X3.300Y1.600
X3.300Y1.900
X3.400Y2.350
X3.400Y2.450
X3.400Y2.550
X3.400Y2.650
X3.400Y2.750
X3.400Y2.850
X3.400Y2.950
X3.450Y3.200
X3.650Y3.200
X3.700Y2.350
X3.700Y2.450
X3.700Y2.550
X3.700Y2.650
X3.700Y2.750
X3.700Y2.850
X3.700Y2.950
X3.900Y2.250
X3.900Y2.400
X3.900Y2.550
X3.900Y2.700
X3.900Y2.900
X3.900Y3.050
X3.950Y2.100
X3.950Y3.200
X4.150Y2.100
X4.150Y3.200
X4.200Y2.250
X4.200Y2.400
X4.200Y2.550
X4.200Y2.700
X4.200Y2.900
X4.200Y3.050
X4.450Y1.200
X4.450Y1.400
X4.450Y1.900
X4.450Y2.100
X4.450Y2.450
X4.450Y2.650
X4.950Y3.100
X5.100Y1.100
X5.100Y1.300
X5.100Y1.800
X5.100Y2.000
X5.100Y2.450
X5.100Y2.650
X5.450Y3.100
T4
X4.550Y1.100
X4.550Y1.800
X4.550Y2.450
X4.950Y1.100
X4.950Y1.800
X4.950Y2.450
T5
X1.100Y1.850
X1.100Y1.950
X1.100Y2.050
X1.200Y1.150
X1.200Y1.250
X1.200Y1.350
X1.200Y1.550
X1.200Y1.650
X1.200Y1.850
X1.200Y1.950
X1.200Y2.050
T0
M30
